<svg xmlns="http://www.w3.org/2000/svg" xmlns:xlink="http://www.w3.org/1999/xlink" viewBox="0,0,255.99184,255.99184" width="200px" height="200px"><defs><clipPath id="clip-1"><path d="M0,255.99184v-255.99184h255.99184v255.99184zM191,156.50286c-21.81559,0 -39.49714,17.68155 -39.49714,39.49714c0,21.81559 17.68155,39.49714 39.49714,39.49714c21.81559,0 39.49714,-17.68155 39.49714,-39.49714c0,-21.81559 -17.68155,-39.49714 -39.49714,-39.49714z" id="overlayBgMask" fill="none"></path></clipPath></defs><g fill="none" fill-rule="nonzero" stroke="#000000" stroke-width="5.12" stroke-linecap="butt" stroke-linejoin="miter" stroke-miterlimit="10" stroke-dasharray="" stroke-dashoffset="0" font-family="none" font-weight="none" font-size="none" text-anchor="none" style="mix-blend-mode: normal"><path d="M78.14361,252.6267c-41.29901,0 -74.77847,-33.47946 -74.77847,-74.77847v-99.70462c0,-41.29901 33.47946,-74.77847 74.77847,-74.77847h99.70462c41.29901,0 74.77847,33.47946 74.77847,74.77847v99.70462c0,41.29901 -33.47946,74.77847 -74.77847,74.77847z" id="shape"></path></g><g clip-path="url(#clip-1)" fill="none" fill-rule="nonzero" stroke="none" stroke-width="1" stroke-linecap="butt" stroke-linejoin="miter" stroke-miterlimit="10" stroke-dasharray="" stroke-dashoffset="0" font-family="none" font-weight="none" font-size="none" text-anchor="none" style="mix-blend-mode: normal"><g transform="scale(5.12,5.12)" fill="#000000"><path d="M14,3.64063l-0.49805,0.28906l-6,3.45898l-0.5,0.28906v0.57813l-0.00195,23.09375v0.57813l0.5,0.28906l28,16.16406l0.5,0.28711l0.5,-0.28711l6,-3.46094l0.5,-0.28906v-0.57812l0.00195,-23.0957v-0.57617l-0.5,-0.28906l-11.50195,-6.64258v-2.88281v-0.57812l-0.5,-0.28906l-8,-4.61328l-0.49805,-0.28711l-0.5,0.28711l-2,1.14844l-0.50195,0.28906l-4.5,-2.59375zM14.00195,5.08398l5.75,3.31641l-0.00195,4.47461c-0.0001,0.08942 0.04756,0.17208 0.125,0.2168l2,1.1543c0.07735,0.04465 0.17265,0.04465 0.25,0l2,-1.1543c0.07683,-0.04436 0.1244,-0.12612 0.125,-0.21484v-0.72266l1.5,0.86523v3.32031c-0.0001,0.08942 0.04756,0.17208 0.125,0.2168l2,1.1543c0.07735,0.04465 0.17265,0.04465 0.25,0l2.00195,-1.1543c0.07744,-0.04471 0.1251,-0.12738 0.125,-0.2168v-1.87891l11.25,6.49805l-5.5,3.17188l-27.5,-15.875zM22,6.24023l7.5,4.32617l-1.5,0.86524l-7.49609,-4.33203zM20.25,7.5293l7.5,4.33594v5.19727l-1.5,-0.86719v-3.31836c0.0001,-0.08942 -0.04756,-0.17208 -0.125,-0.2168l-1,-0.57812v-0.00195l-1,-0.57617c-0.00697,-0.00425 -0.01414,-0.00817 -0.02148,-0.01172l-1.97852,-1.14258c-0.04371,-0.02543 -0.0941,-0.03701 -0.14453,-0.0332c-0.13039,0.01023 -0.23086,0.11921 -0.23047,0.25v3.03125l-1.5,-0.86523l0.00195,-4.47852h-0.00195zM8.25195,8.68945l27.5,15.875l-0.00195,22.51563l-27.5,-15.875zM22.25,11l1.5,0.86328v0.86914l-1.5,0.86523zM29.75,11l0.00195,3.02734c-0.00002,0.00195 -0.00002,0.00391 0,0.00586v2.16211l-1.50195,0.86719v-5.19727zM13.98047,16.08984c-0.13039,0.01023 -0.23086,0.11921 -0.23047,0.25v13.85547c-0.0001,0.08942 0.04756,0.17208 0.125,0.2168l1,0.57813c0.0774,0.04467 0.17275,0.04463 0.25011,-0.00009c0.07736,-0.04473 0.12498,-0.12734 0.12489,-0.2167v-13.85547c0.0001,-0.08942 -0.04756,-0.17208 -0.125,-0.2168l-1,-0.57812c-0.04371,-0.02543 -0.0941,-0.03701 -0.14453,-0.0332zM14.25,16.77344l0.5,0.28711v13.2793l-0.5,-0.28906zM18.98047,18.97656c-0.13039,0.01023 -0.23086,0.11921 -0.23047,0.25v13.85547c-0.0001,0.08942 0.04756,0.17208 0.125,0.2168l1,0.57813c0.0774,0.04467 0.17275,0.04463 0.25011,-0.00009c0.07736,-0.04473 0.12498,-0.12734 0.12489,-0.2167v-13.85547c0.0001,-0.08942 -0.04756,-0.17208 -0.125,-0.2168l-1,-0.57812c-0.04371,-0.02543 -0.0941,-0.03701 -0.14453,-0.0332zM19.25,19.66016l0.5,0.28711v13.2793l-0.5,-0.28711zM41.75195,21.38867l-0.00195,22.52148l-5.5,3.16992l0.00195,-22.51758zM23.98047,21.86328c-0.13039,0.01023 -0.23086,0.11921 -0.23047,0.25v13.85742c-0.0001,0.08942 0.04756,0.17208 0.125,0.2168l1,0.57617c0.0774,0.04467 0.17275,0.04463 0.25011,-0.00009c0.07736,-0.04473 0.12498,-0.12734 0.12489,-0.2167v-13.85547c0.0001,-0.08942 -0.04756,-0.17208 -0.125,-0.2168l-1,-0.57812c-0.04371,-0.02543 -0.0941,-0.03701 -0.14453,-0.0332zM24.25,22.54688l0.5,0.28906v13.27734l-0.5,-0.28711zM28.98047,24.75c-0.13039,0.01023 -0.23086,0.11921 -0.23047,0.25v13.85547c-0.0001,0.08942 0.04756,0.17208 0.125,0.2168l1,0.57813c0.0774,0.04467 0.17275,0.04463 0.25011,-0.00009c0.07736,-0.04473 0.12498,-0.12734 0.12489,-0.2167v-13.85742c-0.0006,-0.08872 -0.04817,-0.17048 -0.125,-0.21484l-1,-0.57812c-0.04371,-0.02543 -0.0941,-0.03701 -0.14453,-0.0332zM29.25,25.43359l0.5,0.28711v13.2793l-0.5,-0.28906z"></path></g></g><g fill="#38da55" fill-rule="nonzero" stroke="none" stroke-width="1" stroke-linecap="butt" stroke-linejoin="miter" stroke-miterlimit="10" stroke-dasharray="" stroke-dashoffset="0" font-family="none" font-weight="none" font-size="none" text-anchor="none" style="mix-blend-mode: normal"><g transform="translate(160.28,165.28) scale(4.38857,4.38857)" id="overlay"><path d="M9.2,7.786c0.39,0.39 0.39,1.023 0,1.414c-0.196,0.195 -0.451,0.293 -0.707,0.293c-0.256,0 -0.512,-0.098 -0.707,-0.293l-1.786,-1.786v-3.414c0,-0.552 0.448,-1 1,-1c0.552,0 1,0.448 1,1v2.586zM14,7c0,3.86 -3.14,7 -7,7c-3.86,0 -7,-3.14 -7,-7c0,-3.86 3.14,-7 7,-7c3.86,0 7,3.14 7,7zM12,7c0,-2.757 -2.243,-5 -5,-5c-2.757,0 -5,2.243 -5,5c0,2.757 2.243,5 5,5c2.757,0 5,-2.243 5,-5z"></path></g></g></svg>