<svg xmlns="http://www.w3.org/2000/svg" xmlns:xlink="http://www.w3.org/1999/xlink" viewBox="0,0,255.99184,255.99184" width="200px" height="200px"><defs><clipPath id="clip-1"><path d="M0,255.99184l0,-246.99184c0,0 0,0 0,0c0,4.971 4.029,9 9,9c4.971,0 9,-4.029 9,-9c0,-4.971 -4.029,-9 -9,-9c-4.971,0 -9,4.029 -9,9v-9h255.99184v255.99184z" id="overlayBgMask" fill="none"></path></clipPath></defs><g fill="none" fill-rule="nonzero" stroke="#000000" stroke-width="5.12" stroke-linecap="butt" stroke-linejoin="miter" stroke-miterlimit="10" stroke-dasharray="" stroke-dashoffset="0" font-family="none" font-weight="none" font-size="none" text-anchor="none" style="mix-blend-mode: normal"><path transform="translate(3.36514,3.36514) scale(0.97371,0.97371)" d="M76.79755,255.99184c-42.41412,0 -76.79755,-34.38343 -76.79755,-76.79755v-102.39673c0,-42.41412 34.38343,-76.79755 76.79755,-76.79755h102.39673c42.41412,0 76.79755,34.38343 76.79755,76.79755v102.39673c0,42.41412 -34.38343,76.79755 -76.79755,76.79755z" id="shape"></path></g><g clip-path="url(#clip-1)" fill="none" fill-rule="nonzero" stroke="none" stroke-width="1" stroke-linecap="butt" stroke-linejoin="miter" stroke-miterlimit="10" stroke-dasharray="" stroke-dashoffset="0" font-family="none" font-weight="none" font-size="none" text-anchor="none" style="mix-blend-mode: normal"><g transform="scale(5.12,5.12)" fill="#000000"><path d="M37,5.36914l-0.5,0.28906l-29,16.74414l-0.4043,0.23438l-0.08008,0.46094l-1.91992,11.08594l-1.5957,0.91992l-0.5,0.28906v0.57617v2.30859v0.57813l0.5,0.28906l1,0.57617l0.5,0.29102l0.5,-0.28906l3.5,-2.02148l3,1.73242l-0.5,0.28906l-0.5,0.28906v0.57617v2.30859v0.57813l0.5,0.28906l1,0.57617l0.5,0.29102l0.5,-0.28906l33,-19.05469l0.5,-0.28711v-0.57617v-12.70312v-0.57812l-0.5,-0.28906l-9,-5.19531zM37,6.81445l8.50195,4.90625l-28.50195,16.45508l-8.5,-4.9082zM34.98047,9.73828c-0.03735,0.00366 -0.0734,0.01567 -0.10547,0.03516l-3,1.73242c-0.07742,0.04494 -0.12491,0.12784 -0.12451,0.21736c0.0004,0.08952 0.04864,0.17199 0.12646,0.21623l4.99805,2.88477c0.07735,0.04465 0.17265,0.04465 0.25,0l3,-1.73242c0.07667,-0.04484 0.1238,-0.127 0.1238,-0.21582c0,-0.08882 -0.04712,-0.17098 -0.1238,-0.21582l-5,-2.88672c-0.03612,-0.02155 -0.0771,-0.03365 -0.11914,-0.03516c-0.00846,-0.00043 -0.01693,-0.00043 -0.02539,0zM35,10.27734l4.50195,2.59766l-2.50195,1.44336l-4.5,-2.59766zM45.75,12.15234v9.81641l-6.5,3.75195v-7.64844c0.00003,-0.06768 -0.02738,-0.13248 -0.07597,-0.17959c-0.04859,-0.04711 -0.1142,-0.07252 -0.18184,-0.07041c-0.0412,0.00124 -0.08146,0.01264 -0.11719,0.0332l-4,2.30859c-0.07744,0.04471 -0.1251,0.12738 -0.125,0.2168v7.93945l-6.5,3.75195v-7.64844c0.00003,-0.06768 -0.02738,-0.13248 -0.07597,-0.17959c-0.04859,-0.04711 -0.1142,-0.07252 -0.18184,-0.07041c-0.0412,0.00124 -0.08146,0.01264 -0.11719,0.0332l-4,2.30859c-0.07744,0.04471 -0.1251,0.12738 -0.125,0.2168v7.9375l-8.41211,4.85742l1.88867,-10.90625zM43.99219,14.93555c-0.0412,0.00124 -0.08146,0.01264 -0.11719,0.0332l-3,1.73242c-0.07744,0.04471 -0.1251,0.12738 -0.125,0.2168v4.61719c-0.0005,0.08997 0.04738,0.17327 0.12537,0.21812c0.07799,0.04486 0.17407,0.04435 0.25158,-0.00133l3,-1.7793c0.07608,-0.04485 0.12286,-0.12652 0.12305,-0.21484v-4.57227c0.00003,-0.06768 -0.02738,-0.13248 -0.07597,-0.17959c-0.04859,-0.04711 -0.1142,-0.07252 -0.18184,-0.07041zM43.75,15.61914v3.99609l-2.5,1.48242v-4.03711zM38.75,18.50586v7.50391l-3.5,2.02148v-7.50586zM16.98047,20.13086c-0.03786,0.00277 -0.0746,0.01412 -0.10742,0.0332l-2.99805,1.73242c-0.07762,0.04459 -0.12548,0.12728 -0.12548,0.2168c0,0.08952 0.04786,0.17221 0.12548,0.2168l4.99805,2.88477c0.07735,0.04465 0.17265,0.04465 0.25,0l3,-1.73047c0.07762,-0.04459 0.12548,-0.12728 0.12548,-0.2168c0,-0.08952 -0.04786,-0.17221 -0.12548,-0.2168l-5,-2.88672c-0.04315,-0.02504 -0.0928,-0.03661 -0.14258,-0.0332zM17,20.66992l4.49805,2.59766l-2.5,1.44336l-4.49805,-2.59766zM32.99219,21.28516c-0.04137,0.00183 -0.08164,0.01391 -0.11719,0.03516l-3,1.73047c-0.07744,0.04471 -0.1251,0.12738 -0.125,0.2168v4.61914c0.0002,0.08962 0.04836,0.17228 0.12622,0.21665c0.07786,0.04438 0.17352,0.04369 0.25073,-0.00181l3,-1.77734c0.07608,-0.04485 0.12286,-0.12652 0.12305,-0.21484v-4.57422c0.00003,-0.06768 -0.02738,-0.13248 -0.07597,-0.17959c-0.04859,-0.04711 -0.1142,-0.07252 -0.18184,-0.07041zM32.75,21.96875v3.99805l-2.5,1.48242v-4.03711zM45.75,22.54688v1.73242l-32.5,18.76172v-1.73047l1.86523,-1.07812c0.0033,-0.00188 0.00656,-0.00383 0.00977,-0.00586c0.00739,-0.00419 0.01456,-0.00875 0.02148,-0.01367zM8.18555,23.66406l0.57031,0.32813l-1.19531,6.81641l-0.55664,-0.32227zM9.21484,24.25781l0.51367,0.29688l-1.24219,7.17578c-0.01819,0.10343 0.03018,0.2072 0.12109,0.25977l4.99609,2.88477c0.07046,0.04071 0.15632,0.04458 0.23016,0.01038c0.07384,-0.0342 0.12641,-0.10219 0.14093,-0.18226l1.22656,-6.99023l0.51367,0.29688l-1.24024,7.17773c-0.01819,0.10343 0.03018,0.2072 0.12109,0.25977l0.85547,0.49414l-0.27344,1.57617l-1.69141,-0.97852c-0.04315,-0.02504 -0.0928,-0.03661 -0.14258,-0.0332c-0.11473,0.00823 -0.20903,0.09367 -0.22852,0.20703l-0.17969,1.05273c-0.01732,0.10278 0.03094,0.20552 0.12109,0.25781l1.84961,1.06641l-0.0918,0.52539l-0.66797,-0.38477c-0.00692,-0.00492 -0.0141,-0.00948 -0.02148,-0.01367l-5,-2.88672c-0.00697,-0.00425 -0.01414,-0.00817 -0.02148,-0.01172l-2.82812,-1.63281l0.0918,-0.52539l1.69141,0.97656c0.07074,0.04073 0.15691,0.04437 0.23082,0.00975c0.07392,-0.03463 0.12628,-0.10315 0.14027,-0.18357l0.18164,-1.05078c0.01695,-0.10322 -0.03214,-0.20607 -0.12305,-0.25781l-1.84766,-1.06836l0.27148,-1.57422l0.70703,0.4082c0.07059,0.04156 0.15707,0.04591 0.23147,0.01163c0.0744,-0.03428 0.12729,-0.10283 0.14157,-0.1835zM10.18945,24.82031l4.55078,2.62695l-1.19531,6.81641l-4.53516,-2.61914zM27.75,24.85547v7.50586l-3.5,2.02148v-7.50586zM21.99219,27.63672c-0.0412,0.00124 -0.08146,0.01264 -0.11719,0.0332l-3,1.73242c-0.0632,0.03629 -0.10742,0.09834 -0.12109,0.16992l-1,5.19531c-0.01927,0.09685 0.02027,0.19597 0.10091,0.25297c0.08064,0.057 0.18727,0.06119 0.27214,0.0107l4,-2.35547c0.07608,-0.04485 0.12286,-0.12652 0.12305,-0.21484v-4.57422c0.00003,-0.06768 -0.02738,-0.13248 -0.07597,-0.17959c-0.04859,-0.04711 -0.1142,-0.07252 -0.18184,-0.07041zM16.17578,28.27539l0.54883,0.31641l-1.18164,6.82422l-0.54687,-0.31445zM21.75,28.32031v3.99609l-3.39844,2.00195l0.87305,-4.53906zM6.54883,33.11133l1.53906,0.88867l-0.08984,0.52539l-1.54102,-0.89062zM6,35.10352l0.5,0.28906l-1.5,0.86523l-0.5,-0.28711zM7,35.68164l1.5,0.86523l-3.25,1.875v-1.73047zM4.25,36.4043l0.5,0.28711v1.73047l-0.5,-0.28711zM13.54883,37.15234l1.53906,0.88867l-0.0918,0.52344l-1.53906,-0.88672zM14,39.72266l0.5,0.28906l-1.5,0.86523l-0.5,-0.28906zM12.25,41.02148l0.5,0.28906v1.73047l-0.5,-0.28711z"></path></g></g><g fill="#38da55" fill-rule="nonzero" stroke="none" stroke-width="1" stroke-linecap="butt" stroke-linejoin="miter" stroke-miterlimit="10" stroke-dasharray="" stroke-dashoffset="0" font-family="none" font-weight="none" font-size="none" text-anchor="none" style="mix-blend-mode: normal"><g transform="translate(160.28,165.28) scale(4.38857,4.38857)" id="overlay"><path d="M7,0c-3.866,0 -7,3.134 -7,7c0,3.866 3.134,7 7,7c3.866,0 7,-3.134 7,-7c0,-3.866 -3.134,-7 -7,-7zM10.707,5.707l-4,4c-0.195,0.195 -0.451,0.293 -0.707,0.293c-0.256,0 -0.512,-0.098 -0.707,-0.293l-2,-2c-0.391,-0.391 -0.391,-1.023 0,-1.414c0.391,-0.391 1.023,-0.391 1.414,0l1.293,1.293l3.293,-3.293c0.391,-0.391 1.023,-0.391 1.414,0c0.391,0.391 0.391,1.023 0,1.414z"></path></g></g></svg>