<svg xmlns="http://www.w3.org/2000/svg" xmlns:xlink="http://www.w3.org/1999/xlink" viewBox="0,0,255.99184,255.99184" width="200px" height="200px"><defs><clipPath id="clip-1"><path d="M-2.61216,258.604v-261.21616h261.21616v261.21616zM199.77714,156.50286c-16.93989,0 -30.72,13.78011 -30.72,30.72c0,1.56672 0.13605,3.14661 0.39936,4.73966l-15.38633,15.38633c-1.64133,1.64571 -2.56731,3.8795 -2.56731,6.20544v13.13061c0,4.83621 3.91461,8.76398 8.75081,8.77714l13.16571,0.03511c0.00878,0 0.01755,0 0.02633,0c2.32155,0 4.55095,-0.9216 6.19666,-2.56293c1.65449,-1.64571 2.58048,-3.88389 2.58048,-6.21422c2.32594,0 4.55973,-0.92599 6.20544,-2.5717l6.60919,-6.60919c1.59305,0.2677 3.17294,0.40375 4.73966,0.40375c16.93989,0 30.72,-13.78011 30.72,-30.72c0,-16.93989 -13.78011,-30.72 -30.72,-30.72z" id="overlayBgMask" fill="none"></path></clipPath></defs><g transform="translate(2.55992,2.55992) scale(0.98,0.98)"><g fill="none" fill-rule="nonzero" stroke="#000000" stroke-width="5.12" stroke-linecap="butt" stroke-linejoin="miter" stroke-miterlimit="10" stroke-dasharray="" stroke-dashoffset="0" font-family="none" font-weight="none" font-size="none" text-anchor="none" style="mix-blend-mode: normal"><path d="M77.09945,255.23709c-42.16402,0 -76.3447,-34.18069 -76.3447,-76.3447v-101.79294c0,-42.16402 34.18069,-76.3447 76.3447,-76.3447h101.79294c42.16402,0 76.3447,34.18069 76.3447,76.3447v101.79294c0,42.16402 -34.18069,76.3447 -76.3447,76.3447z" id="shape"></path></g><g clip-path="url(#clip-1)" fill="none" fill-rule="nonzero" stroke="none" stroke-width="1" stroke-linecap="butt" stroke-linejoin="miter" stroke-miterlimit="10" stroke-dasharray="" stroke-dashoffset="0" font-family="none" font-weight="none" font-size="none" text-anchor="none" style="mix-blend-mode: normal"><g transform="scale(5.12,5.12)" fill="#000000"><path d="M13,1.90625l-0.5,0.28906l-4,2.30859l-0.5,0.28906v0.57617v31.17773v1.73242l1.5,-0.86719l4.5,-2.59766l22.5,12.99023l0.5,0.28906l0.5,-0.28906l4,-2.30859l0.5,-0.28906v-0.57617v-25.4043v-0.57617l-0.5,-0.28906l-28,-16.16602zM13,3.34961l27.5,15.87695l-3.5,2.02148l-27.50195,-15.87695zM9.25,5.80273l27.5,15.87695v24.82617l-22.625,-13.0625c-0.07735,-0.04465 -0.17265,-0.04465 -0.25,0l-4.625,2.66992zM21.98047,16.08984c-0.13039,0.01023 -0.23086,0.11921 -0.23047,0.25v3.46484c-0.0001,0.08942 0.04756,0.17208 0.125,0.2168l3,1.73047c0.0774,0.04467 0.17275,0.04463 0.25011,-0.00009c0.07736,-0.04473 0.12498,-0.12734 0.12489,-0.2167v-3.46289c0.0001,-0.08942 -0.04756,-0.17208 -0.125,-0.2168l-3,-1.73242c-0.04371,-0.02543 -0.0941,-0.03701 -0.14453,-0.0332zM22.25,16.77344l2.5,1.44336v2.88672l-2.5,-1.44336zM40.75,19.66016v24.82617l-3.5,2.01953v-24.82617zM21.98047,23.01758c-0.13039,0.01023 -0.23086,0.11921 -0.23047,0.25v11.54688c-0.0001,0.08942 0.04756,0.17208 0.125,0.2168l3,1.73242c0.0774,0.04467 0.17275,0.04463 0.25011,-0.00009c0.07736,-0.04473 0.12498,-0.12734 0.12489,-0.2167v-11.54687c0.0001,-0.08942 -0.04756,-0.17208 -0.125,-0.2168l-3,-1.73242c-0.03631,-0.02087 -0.07727,-0.03229 -0.11914,-0.0332c-0.00846,-0.00043 -0.01693,-0.00043 -0.02539,0zM22.25,23.70117l2.5,1.44336v10.96875l-2.5,-1.44336z"></path></g></g><g fill="#38da55" fill-rule="nonzero" stroke="none" stroke-width="1" stroke-linecap="butt" stroke-linejoin="miter" stroke-miterlimit="10" stroke-dasharray="" stroke-dashoffset="0" font-family="none" font-weight="none" font-size="none" text-anchor="none" style="mix-blend-mode: normal"><g transform="translate(160.28,165.28) scale(4.38857,4.38857)" id="overlay"><path d="M9,0c-2.761,0 -5,2.239 -5,5c0,0.595 0.122,1.158 0.313,1.687l-4.313,4.313v2.992l3,0.008v-2h2l2.313,-2.313c0.529,0.191 1.092,0.313 1.687,0.313c2.761,0 5,-2.239 5,-5c0,-2.761 -2.239,-5 -5,-5zM9.5,6c-0.828,0 -1.5,-0.672 -1.5,-1.5c0,-0.828 0.672,-1.5 1.5,-1.5c0.828,0 1.5,0.672 1.5,1.5c0,0.828 -0.672,1.5 -1.5,1.5z"></path></g></g></g></svg>