<svg xmlns="http://www.w3.org/2000/svg" xmlns:xlink="http://www.w3.org/1999/xlink" viewBox="0,0,255.99184,255.99184" width="200px" height="200px"><defs><clipPath id="clip-1"><path d="M0,255.99184v-255.99184h255.99184v255.99184zM191,156.50286c-21.81559,0 -39.49714,17.68155 -39.49714,39.49714c0,21.81559 17.68155,39.49714 39.49714,39.49714c21.81559,0 39.49714,-17.68155 39.49714,-39.49714c0,-21.81559 -17.68155,-39.49714 -39.49714,-39.49714z" id="overlayBgMask" fill="none"></path></clipPath></defs><g fill="none" fill-rule="nonzero" stroke="#000000" stroke-width="5.12" stroke-linecap="butt" stroke-linejoin="miter" stroke-miterlimit="10" stroke-dasharray="" stroke-dashoffset="0" font-family="none" font-weight="none" font-size="none" text-anchor="none" style="mix-blend-mode: normal"><path d="M78.14361,252.6267c-41.29901,0 -74.77847,-33.47946 -74.77847,-74.77847v-99.70462c0,-41.29901 33.47946,-74.77847 74.77847,-74.77847h99.70462c41.29901,0 74.77847,33.47946 74.77847,74.77847v99.70462c0,41.29901 -33.47946,74.77847 -74.77847,74.77847z" id="shape"></path></g><g clip-path="url(#clip-1)" fill="none" fill-rule="nonzero" stroke="none" stroke-width="1" stroke-linecap="butt" stroke-linejoin="miter" stroke-miterlimit="10" stroke-dasharray="" stroke-dashoffset="0" font-family="none" font-weight="none" font-size="none" text-anchor="none" style="mix-blend-mode: normal"><g transform="scale(5.12,5.12)" fill="#000000"><path d="M17,1.90625l-0.5,0.28906l-2,1.1543l-0.5,0.28906v0.57617v7.50586l-2.5,-1.44336l-0.5,-0.28906l-0.5,0.28906l-2,1.15625l-0.5,0.28711v0.57813v20.7832v0.57813l0.5,0.28906l24,13.85547l0.5,0.28906l0.5,-0.28906l2,-1.1543l0.5,-0.28906v-0.57812v-7.50586l2.5,1.44336l0.5,0.28906l0.5,-0.28906l2,-1.1543l0.5,-0.28906v-0.57812v-20.78125v-0.57812l-0.5,-0.28906l-24,-13.85547zM17,3.34961l23.50195,13.56641l-1.50195,0.86719l-23.5,-13.56836zM15.25,4.64844l23.5,13.56836v2.88672l-23.5,-13.56836zM15.25,8.11133l23.5,13.56836v2.88672l-23.5,-13.56641zM11,11.43359l3.875,2.23633c0.00697,0.00425 0.01414,0.00817 0.02148,0.01172l19.60352,11.31836l-1.5,0.86719l-23.50195,-13.56836zM15.25,11.57813l23.5,13.56641v13.27734l-3.5,-2.01953v-11.40234c0.0001,-0.08942 -0.04756,-0.17208 -0.125,-0.2168l-19.875,-11.47461zM9.25,12.73047l23.5,13.56836v20.20703l-23.5,-13.56641zM40.75,17.34961v20.20898l-1.5,0.86328v-20.20508zM25.98047,25.32617c-0.13039,0.01023 -0.23086,0.11921 -0.23047,0.25v4.61914c-0.0001,0.08942 0.04756,0.17208 0.125,0.2168l4,2.31055c0.0774,0.04467 0.17275,0.04463 0.25011,-0.00009c0.07736,-0.04473 0.12498,-0.12734 0.12489,-0.2167v-4.61914c0.0001,-0.08942 -0.04756,-0.17208 -0.125,-0.2168l-4,-2.30859c-0.03612,-0.02155 -0.0771,-0.03365 -0.11914,-0.03516c-0.00846,-0.00043 -0.01693,-0.00043 -0.02539,0zM34.75,25.43359v11.11328v9.09375l-1.5,0.86523v-20.20703zM26.25,26.00977l3.5,2.02148v4.04102l-3.5,-2.02148zM10.98047,28.21484c-0.13039,0.01023 -0.23086,0.11921 -0.23047,0.25v2.30859c-0.0001,0.08942 0.04756,0.17208 0.125,0.2168l4,2.30859c0.0774,0.04467 0.17275,0.04463 0.25011,-0.00009c0.07736,-0.04473 0.12498,-0.12734 0.12489,-0.2167v-2.30859c0.0001,-0.08942 -0.04756,-0.17208 -0.125,-0.2168l-4,-2.30859c-0.04371,-0.02543 -0.0941,-0.03701 -0.14453,-0.0332zM11.25,28.89648l3.5,2.02148v1.73242l-3.5,-2.02148zM15.98047,31.10156c-0.13039,0.01023 -0.23086,0.11921 -0.23047,0.25v2.30859c-0.0001,0.08942 0.04756,0.17208 0.125,0.2168l4,2.30859c0.0771,0.0445 0.17203,0.04465 0.24927,0.0004c0.07724,-0.04425 0.12512,-0.12623 0.12573,-0.21524v-2.31055c0.0001,-0.08942 -0.04756,-0.17208 -0.125,-0.2168l-4,-2.30859c-0.04371,-0.02543 -0.0941,-0.03701 -0.14453,-0.0332zM16.25,31.78516l3.5,2.01953v1.73242l-3.5,-2.02148zM20.98047,33.98828c-0.13039,0.01023 -0.23086,0.11921 -0.23047,0.25v2.30859c-0.0001,0.08942 0.04756,0.17208 0.125,0.2168l4,2.30859c0.0774,0.04467 0.17275,0.04463 0.25011,-0.00009c0.07736,-0.04473 0.12498,-0.12734 0.12489,-0.2167v-2.30859c0.0001,-0.08942 -0.04756,-0.17208 -0.125,-0.2168l-4,-2.30859c-0.04371,-0.02543 -0.0941,-0.03701 -0.14453,-0.0332zM21.25,34.67188l3.5,2.01953v1.73047l-3.5,-2.01953zM25.98047,36.875c-0.12964,0.01017 -0.22984,0.11801 -0.23047,0.24805v2.31055c-0.0001,0.08942 0.04756,0.17208 0.125,0.2168l4,2.30859c0.0774,0.04467 0.17275,0.04463 0.25011,-0.00009c0.07736,-0.04473 0.12498,-0.12734 0.12489,-0.2167v-2.30859c0.0001,-0.08942 -0.04756,-0.17208 -0.125,-0.2168l-4,-2.30859c-0.04371,-0.02543 -0.0941,-0.03701 -0.14453,-0.0332zM26.25,37.55664l3.5,2.02148v1.73242l-3.5,-2.02148z"></path></g></g><g fill="#38da55" fill-rule="nonzero" stroke="none" stroke-width="1" stroke-linecap="butt" stroke-linejoin="miter" stroke-miterlimit="10" stroke-dasharray="" stroke-dashoffset="0" font-family="none" font-weight="none" font-size="none" text-anchor="none" style="mix-blend-mode: normal"><g transform="translate(160.28,165.28) scale(4.38857,4.38857)" id="overlay"><g><path d="M7,0c-3.866,0 -7,3.134 -7,7c0,3.866 3.134,7 7,7c3.866,0 7,-3.134 7,-7c0,-3.866 -3.134,-7 -7,-7zM8,10.598v1.402h-2v-1.394c-1.198,-0.259 -1.928,-1.005 -1.952,-2.089h1.709c0.044,0.513 0.557,0.84 1.299,0.84c0.669,0 1.128,-0.322 1.128,-0.786c0,-0.391 -0.308,-0.601 -1.113,-0.762l-0.928,-0.186c-1.289,-0.245 -1.953,-0.948 -1.953,-2.056c0,-1.084 0.69,-1.866 1.81,-2.154v-1.413h2v1.419c1.088,0.289 1.792,1.049 1.815,2.065h-1.655c-0.039,-0.498 -0.513,-0.845 -1.143,-0.845c-0.63,0 -1.045,0.298 -1.045,0.767c0,0.386 0.312,0.61 1.055,0.757l0.908,0.176c1.392,0.269 2.017,0.898 2.017,2.017c0,1.172 -0.725,1.966 -1.952,2.242z"></path></g></g></g></svg>