<svg xmlns="http://www.w3.org/2000/svg" xmlns:xlink="http://www.w3.org/1999/xlink" viewBox="0,0,255.99184,255.99184" width="200px" height="200px"><defs><clipPath id="clip-1"><path d="M0,255.99184v-255.99184h255.99184v255.99184zM212.94286,178.44571h-4.38857v-4.38857c0,-9.68119 -7.8731,-17.55429 -17.55429,-17.55429c-9.68119,0 -17.55429,7.8731 -17.55429,17.55429v4.38857h-4.38857c-9.68119,0 -17.55429,7.8731 -17.55429,17.55429c0,9.68119 7.8731,17.55429 17.55429,17.55429h4.38857v4.38857c0,9.68119 7.8731,17.55429 17.55429,17.55429c9.68119,0 17.55429,-7.8731 17.55429,-17.55429v-4.38857h4.38857c9.68119,0 17.55429,-7.8731 17.55429,-17.55429c0,-9.68119 -7.8731,-17.55429 -17.55429,-17.55429z" id="overlayBgMask" fill="none"></path></clipPath></defs><g fill="none" fill-rule="nonzero" stroke="#000000" stroke-width="5.12" stroke-linecap="butt" stroke-linejoin="miter" stroke-miterlimit="10" stroke-dasharray="" stroke-dashoffset="0" font-family="none" font-weight="none" font-size="none" text-anchor="none" style="mix-blend-mode: normal"><path d="M78.14361,252.6267c-41.29901,0 -74.77847,-33.47946 -74.77847,-74.77847v-99.70462c0,-41.29901 33.47946,-74.77847 74.77847,-74.77847h99.70462c41.29901,0 74.77847,33.47946 74.77847,74.77847v99.70462c0,41.29901 -33.47946,74.77847 -74.77847,74.77847z" id="shape"></path></g><g clip-path="url(#clip-1)" fill="none" fill-rule="nonzero" stroke="none" stroke-width="1" stroke-linecap="butt" stroke-linejoin="miter" stroke-miterlimit="10" stroke-dasharray="" stroke-dashoffset="0" font-family="none" font-weight="none" font-size="none" text-anchor="none" style="mix-blend-mode: normal"><g transform="scale(5.12,5.12)" fill="#000000"><path d="M18,4.79492l-0.5,0.28906l-14,8.08008l-0.5,0.28906v0.57617v6.93164v0.46484l0.35547,0.29883l26,21.93945l0.53711,0.45313l0.60742,-0.35156l14,-8.08984l0.5,-0.28906v-0.57617v-2.30078v-0.51953l-0.42578,-0.29883l-0.52539,-0.36914l1.44922,-0.83594l0.50195,-0.28906v-0.57812v-2.30859v-0.53906l-0.44922,-0.29687l-0.51758,-0.33984l1.46875,-0.84961l0.49805,-0.28906v-0.57617v-2.31055v-0.57617l-0.5,-0.28906l-28,-16.16016zM18,6.23828l27.5,15.87109l-13.5,7.79883l-27.50195,-15.87695zM15.98047,9.16211c-0.03719,0.00306 -0.07323,0.0144 -0.10547,0.0332l-6,3.46484c-0.07667,0.04484 -0.1238,0.127 -0.1238,0.21582c0,0.08882 0.04712,0.17098 0.1238,0.21582l1.62695,0.93945l-1.62695,0.9375c-0.07762,0.04459 -0.12548,0.12728 -0.12548,0.2168c0,0.08952 0.04786,0.17221 0.12548,0.2168l20,11.54688c0.07735,0.04465 0.17265,0.04465 0.25,0l1.875,-1.08398l1.875,1.08398c0.07735,0.04465 0.17265,0.04465 0.25,0l6,-3.46484c0.07762,-0.04459 0.12548,-0.12728 0.12548,-0.2168c0,-0.08952 -0.04786,-0.17221 -0.12548,-0.2168l-1.625,-0.9375l1.625,-0.9375c0.07762,-0.04459 0.12548,-0.12728 0.12548,-0.2168c0,-0.08952 -0.04786,-0.1722 -0.12548,-0.2168l-20,-11.54688c-0.07735,-0.04465 -0.17265,-0.04465 -0.25,0l-1.875,1.08203l-1.875,-1.08203c-0.04371,-0.02543 -0.0941,-0.03701 -0.14453,-0.0332zM16,9.70117l1.875,1.08203c0.07735,0.04465 0.17265,0.04465 0.25,0l1.875,-1.08203l19.5,11.25781l-1.625,0.9375c-0.07762,0.04459 -0.12548,0.12728 -0.12548,0.2168c0,0.08952 0.04786,0.17221 0.12548,0.2168l1.625,0.9375l-5.5,3.17578l-1.875,-1.08203c-0.07735,-0.04465 -0.17265,-0.04465 -0.25,0l-1.875,1.08203l-19.5,-11.25781l1.625,-0.93945c0.07762,-0.04459 0.12548,-0.12728 0.12548,-0.2168c0,-0.08952 -0.04786,-0.17221 -0.12548,-0.2168l-1.625,-0.9375zM17.98047,12.62695c-0.03719,0.00306 -0.07323,0.0144 -0.10547,0.0332l-2,1.15234c-0.07762,0.04459 -0.12548,0.12728 -0.12548,0.2168c0,0.08952 0.04786,0.17221 0.12548,0.2168l2,1.15625c0.07735,0.04465 0.17265,0.04465 0.25,0l2,-1.15625c0.07762,-0.04459 0.12548,-0.12728 0.12548,-0.2168c0,-0.08952 -0.04786,-0.17221 -0.12548,-0.2168l-2,-1.15234c-0.04371,-0.02543 -0.0941,-0.03701 -0.14453,-0.0332zM18,13.16406l1.50195,0.86524l-1.50195,0.86719l-1.50195,-0.86719zM4.25,14.46289l27.5,15.87695v1.73242l-27.5,-15.87695zM25.98047,14.93555c-0.00327,0.00059 -0.00652,0.00124 -0.00977,0.00195l-5,0.57617c-0.09511,0.01113 -0.17551,0.0756 -0.20703,0.16602l-1,2.88672c-0.03947,0.11342 0.00727,0.23888 0.11133,0.29883l4,2.31055c0.04673,0.02676 0.10084,0.03772 0.1543,0.03125l5,-0.57812c0.09511,-0.01113 0.17551,-0.0756 0.20703,-0.16602l1,-2.88672c0.03947,-0.11342 -0.00727,-0.23888 -0.11133,-0.29883l-4,-2.30859c-0.04371,-0.02543 -0.0941,-0.03701 -0.14453,-0.0332zM25.94531,15.44336l3.75,2.16406l-0.88086,2.54297l-4.76172,0.55078l-3.74805,-2.16602l0.88086,-2.54297zM4.25,16.82227l26.5,18.69922v1.69922l-26.5,-18.70117zM4.25,19.18555l25.5,21.51953v1.65625l-25.5,-21.51758zM8.64453,19.31055l23.23047,13.41211c0.07735,0.04465 0.17265,0.04465 0.25,0l10.99609,-6.34766l1.40234,0.92188l-13.50977,7.79883zM31.98047,20.70898c-0.03719,0.00306 -0.07323,0.0144 -0.10547,0.0332l-2,1.1543c-0.07762,0.04459 -0.12548,0.12728 -0.12548,0.2168c0,0.08952 0.04786,0.17221 0.12548,0.2168l2,1.1543c0.07735,0.04465 0.17265,0.04465 0.25,0l2,-1.1543c0.07762,-0.04459 0.12548,-0.12728 0.12548,-0.2168c0,-0.08952 -0.04786,-0.17221 -0.12548,-0.2168l-2,-1.1543c-0.04371,-0.02543 -0.0941,-0.03701 -0.14453,-0.0332zM32,21.24805l1.5,0.86523l-1.5,0.86523l-1.5,-0.86523zM8.59766,22.19922l22.25781,15.70703c0.07985,0.0562 0.18511,0.06078 0.26953,0.01172l11.05273,-6.38086l1.35742,0.95313l-13.50781,7.79297zM45.75,22.54297v1.73242l-2.74609,1.58789c-0.00739,0.00419 -0.01456,0.00875 -0.02148,0.01367l-10.73242,6.19531v-1.73242zM44.75,27.74414v1.73047l-2.68555,1.54883c-0.00739,0.00419 -0.01456,0.00875 -0.02148,0.01367l-10.79297,6.23242v-1.73242zM43.75,32.94336v1.72266l-13.5,7.80078v-1.73437z"></path></g></g><g fill="#38da55" fill-rule="nonzero" stroke="none" stroke-width="1" stroke-linecap="butt" stroke-linejoin="miter" stroke-miterlimit="10" stroke-dasharray="" stroke-dashoffset="0" font-family="none" font-weight="none" font-size="none" text-anchor="none" style="mix-blend-mode: normal"><g transform="translate(160.28,165.28) scale(4.38857,4.38857)" id="overlay"><path d="M14,7c0,1.105 -0.895,2 -2,2h-3v3c0,1.105 -0.895,2 -2,2c-1.105,0 -2,-0.895 -2,-2v-3h-3c-1.105,0 -2,-0.895 -2,-2c0,-1.105 0.895,-2 2,-2h3v-3c0,-1.105 0.895,-2 2,-2c1.105,0 2,0.895 2,2v3h3c1.105,0 2,0.895 2,2z"></path></g></g></svg>