<svg xmlns="http://www.w3.org/2000/svg" xmlns:xlink="http://www.w3.org/1999/xlink" viewBox="0,0,255.99184,255.99184" width="200px" height="200px"><defs><clipPath id="clip-1"><path d="M0,255.99184v-255.99184h255.99184v255.99184zM227.12607,174.09703c-0.1141,-0.12727 -0.23259,-0.25453 -0.35547,-0.37741l-13.67454,-13.61749c-0.20626,-0.20187 -0.41691,-0.39496 -0.64072,-0.57928c-2.41806,-1.97482 -5.28375,-3.01928 -8.28986,-3.01928c-3.86626,0 -7.53504,1.73784 -10.06281,4.7659c-0.10971,0.13165 -0.21504,0.26331 -0.31597,0.40374l-10.96684,14.81555c-0.60122,0.81187 -1.04446,1.70274 -1.32971,2.62432c-1.85633,-0.43885 -3.7741,-0.66705 -5.72698,-0.66705c-6.53447,0 -12.67836,2.54533 -17.29944,7.16641c-3.42741,3.42741 -3.42741,8.98325 0,12.41066l5.94641,5.94641l-9.04907,9.04907c-2.48828,2.48828 -3.85749,5.7972 -3.85749,9.31238c0,3.51518 1.36921,6.82411 3.85749,9.30799c2.48389,2.48828 5.79281,3.85749 9.30799,3.85749c3.51518,0 6.82411,-1.36921 9.30799,-3.85749l9.04907,-9.04907l5.94641,5.94641c1.65007,1.64568 3.87943,2.57166 6.20972,2.57166c2.3259,0 4.55964,-0.92597 6.20533,-2.57166c6.23166,-6.23166 8.39519,-15.01742 6.4818,-23.02203c0.92597,-0.28525 1.82122,-0.72849 2.64187,-1.3341l14.89893,-11.01951c0.19309,-0.14043 0.37741,-0.28964 0.55734,-0.44763c2.87885,-2.519 4.52892,-6.11756 4.52892,-9.8785c0,-3.19482 -1.19806,-6.29749 -3.37036,-8.73749z" id="overlayBgMask" fill="none"></path></clipPath></defs><g transform=""><g fill="none" fill-rule="nonzero" stroke="#000000" stroke-width="5.12" stroke-linecap="butt" stroke-linejoin="miter" stroke-miterlimit="10" stroke-dasharray="" stroke-dashoffset="0" font-family="none" font-weight="none" font-size="none" text-anchor="none" style="mix-blend-mode: normal"><path d="M78.14361,252.6267c-41.29901,0 -74.77847,-33.47946 -74.77847,-74.77847v-99.70462c0,-41.29901 33.47946,-74.77847 74.77847,-74.77847h99.70462c41.29901,0 74.77847,33.47946 74.77847,74.77847v99.70462c0,41.29901 -33.47946,74.77847 -74.77847,74.77847z" id="shape"></path></g><g clip-path="url(#clip-1)" fill="none" fill-rule="nonzero" stroke="none" stroke-width="1" stroke-linecap="butt" stroke-linejoin="miter" stroke-miterlimit="10" stroke-dasharray="" stroke-dashoffset="0" font-family="none" font-weight="none" font-size="none" text-anchor="none" style="mix-blend-mode: normal"><g transform="scale(5.12,5.12)" fill="#000000"><path d="M15,0.75195l-0.5,0.28711l-2,1.15625l-0.5,0.28711v0.57813v32.33203v0.57617l0.49805,0.28906l21.98438,12.72852l0.5,0.28906l0.5,-0.28906l2,-1.1543l0.5,-0.28711v-0.57812l0.01758,-23.12109v-9.23828v-0.57812l-0.5,-0.28906l-10.51367,-6.06836l-0.00391,-1.70117v-0.57617l-0.5,-0.28711l-4,-2.30859l-0.51367,-0.29687l-0.50586,0.30859l-1.03516,0.63086l-0.37305,0.22852l-4.55469,-2.63086zM15,2.19531l5.70508,3.29297l0.01172,1.73828l-7.2168,-4.16602zM13.25,3.49414l7.4707,4.3125l0.0293,4.49219c0.0006,0.08872 0.04817,0.17048 0.125,0.21484l4,2.31055c0.07735,0.04465 0.17265,0.04465 0.25,0l1,-0.57812c0.07744,-0.04471 0.1251,-0.12738 0.125,-0.2168l-0.00586,-3.0332l8.50586,4.91016v31.79102l-21.5,-12.44922zM21.98633,3.95508l3.50195,2.02344l-0.52539,0.31055l-3.52148,-2.00195zM21.20117,4.72461l3.51563,2l0.03125,7.44922l-3.49805,-2.02148l-0.04492,-6.81055zM25.73242,6.41406l0.00586,1.83594l0.01172,5.63672l-0.50195,0.28906l-0.03125,-7.45703zM26.23828,8.68359l10.26172,5.92383l-1.5,0.86523l-8.75781,-5.05469zM21.98047,9.16211c-0.13114,0.01028 -0.23189,0.12042 -0.23047,0.25195l0.02344,2.30273c0.00088,0.08762 0.04756,0.16839 0.12305,0.21289l1.97656,1.16211c0.07721,0.0455 0.17287,0.04619 0.25073,0.00181c0.07786,-0.04438 0.12602,-0.12703 0.12622,-0.21665v-2.31055c0.0001,-0.08942 -0.04756,-0.17208 -0.125,-0.2168l-2,-1.1543c-0.04371,-0.02543 -0.0941,-0.03701 -0.14453,-0.0332zM22.25391,9.84766l1.49609,0.86328v1.72851l-1.47852,-0.86914zM36.75,15.04102v8.80469l-0.01758,22.97656l-1.48242,0.85547v-31.77148zM21.68164,17.0625c-0.10579,0.00076 -0.19966,0.06803 -0.23437,0.16797l-0.66602,1.93164c-0.01641,0.04576 -0.01912,0.0953 -0.00781,0.14258l0.74609,3.01367c0.01177,0.04554 0.03614,0.08683 0.07031,0.11914l2.23633,2.1543c0.03518,0.03333 0.07928,0.05573 0.12695,0.06445l2.23633,0.43164c0.12085,0.02245 0.2401,-0.04628 0.28125,-0.16211l0.74805,-2.08594c0.0168,-0.04635 0.01952,-0.09664 0.00781,-0.14453l-0.67187,-2.77148c-0.01029,-0.04169 -0.03114,-0.08003 -0.06055,-0.11133l-2.3125,-2.46094c-0.04149,-0.0444 -0.09773,-0.07217 -0.1582,-0.07812l-2.31641,-0.21094c-0.00846,-0.00043 -0.01693,-0.00043 -0.02539,0zM21.85742,17.57813l2.02539,0.18359l2.20117,2.34375l0.63867,2.63477l-0.65039,1.81641l-1.95312,-0.37695l-2.13086,-2.05273l-0.71094,-2.87109zM19.98047,24.17383c-0.10725,0.00866 -0.19694,0.08497 -0.22266,0.18945l-1,4.04102c-0.02626,0.10762 0.02143,0.21969 0.11719,0.27539l10,5.77539c0.08477,0.04926 0.19051,0.04443 0.27044,-0.01236c0.07993,-0.05679 0.11928,-0.15505 0.10066,-0.25131l-1,-5.19727c-0.01367,-0.07158 -0.05789,-0.13364 -0.12109,-0.16992l-8,-4.61719c-0.04371,-0.02543 -0.0941,-0.03701 -0.14453,-0.0332zM20.16211,24.80469l7.61328,4.39648l0.875,4.54688l-9.36328,-5.40625zM16.98047,30.52344c-0.13039,0.01023 -0.23086,0.11921 -0.23047,0.25v2.30859c-0.0001,0.08942 0.04756,0.17208 0.125,0.2168l14,8.08398c0.0774,0.04467 0.17275,0.04463 0.25011,-0.00009c0.07736,-0.04473 0.12498,-0.12734 0.12489,-0.2167v-2.31055c0.0001,-0.08942 -0.04756,-0.17208 -0.125,-0.2168l-14,-8.08203c-0.03631,-0.02087 -0.07727,-0.03229 -0.11914,-0.0332c-0.00846,-0.00043 -0.01693,-0.00043 -0.02539,0zM17.25,31.20703l13.5,7.79297v1.73242l-13.5,-7.79297z"></path></g></g><g fill="#38da55" fill-rule="nonzero" stroke="none" stroke-width="1" stroke-linecap="butt" stroke-linejoin="miter" stroke-miterlimit="10" stroke-dasharray="" stroke-dashoffset="0" font-family="none" font-weight="none" font-size="none" text-anchor="none" style="mix-blend-mode: normal"><g transform="translate(160.2811,165.28055) scale(4.38849,4.38849)" id="overlay"><path d="M7.953,7.943c1.396,1.396 1.396,3.66 0,5.057l-2.769,-2.769l-3.476,3.476c-0.196,0.195 -0.452,0.293 -0.708,0.293c-0.256,0 -0.512,-0.098 -0.707,-0.293c-0.391,-0.391 -0.391,-1.023 0,-1.414l3.476,-3.476l-2.769,-2.77c1.396,-1.396 3.66,-1.396 5.057,0zM14,4c0,-0.255 -0.103,-0.483 -0.261,-0.66l-3.116,-3.104c-0.172,-0.14 -0.383,-0.236 -0.623,-0.236c-0.309,0 -0.574,0.148 -0.758,0.368l-2.498,3.376l3.513,3.513l3.395,-2.511c0.209,-0.185 0.348,-0.446 0.348,-0.746z"></path></g></g></g></svg>