<svg xmlns="http://www.w3.org/2000/svg" xmlns:xlink="http://www.w3.org/1999/xlink" viewBox="0,0,255.99184,255.99184" width="200px" height="200px"><defs><clipPath id="clip-1"><path d="M0,255.99184v-255.99184h255.99184v255.99184zM220.952,180.38107c-3.11589,-13.65723 -15.36439,-23.87822 -29.952,-23.87822c-14.58761,0 -26.83611,10.22098 -29.952,23.87822c-5.66126,2.9184 -9.54514,8.82103 -9.54514,15.61893v21.94286c0,9.68119 7.8731,17.55429 17.55429,17.55429h43.88571c9.68119,0 17.55429,-7.8731 17.55429,-17.55429v-21.94286c0,-6.7979 -3.88389,-12.70053 -9.54514,-15.61893z" id="overlayBgMask" fill="none"></path></clipPath></defs><g fill="none" fill-rule="nonzero" stroke="#000000" stroke-width="5.12" stroke-linecap="butt" stroke-linejoin="miter" stroke-miterlimit="10" stroke-dasharray="" stroke-dashoffset="0" font-family="none" font-weight="none" font-size="none" text-anchor="none" style="mix-blend-mode: normal"><path d="M78.14361,252.6267c-41.29901,0 -74.77847,-33.47946 -74.77847,-74.77847v-99.70462c0,-41.29901 33.47946,-74.77847 74.77847,-74.77847h99.70462c41.29901,0 74.77847,33.47946 74.77847,74.77847v99.70462c0,41.29901 -33.47946,74.77847 -74.77847,74.77847z" id="shape"></path></g><g clip-path="url(#clip-1)" fill="none" fill-rule="nonzero" stroke="none" stroke-width="1" stroke-linecap="butt" stroke-linejoin="miter" stroke-miterlimit="10" stroke-dasharray="" stroke-dashoffset="0" font-family="none" font-weight="none" font-size="none" text-anchor="none" style="mix-blend-mode: normal"><g transform="scale(5.12,5.12)" fill="#000000"><path d="M24,2.48242l-0.5,0.28906l-16,9.23828l-0.5,0.28906v0.57617v23.0957v0.57617l0.5,0.28906l8,4.61914l0.5,0.28906l0.5,-0.28906l0.5,-0.28906v0.57617v0.57812l0.5,0.28906l8,4.61914l0.5,0.28906l0.5,-0.28906l16,-9.23828l0.5,-0.28906v-0.57812v-23.09375v-0.57617l-0.5,-0.28906l-2,-1.1543l-0.5,-0.28906l-0.5,0.28906l-1.5,0.86719l-1,-0.57812v-1.73242v-0.57812l-0.5,-0.28906l-2,-1.1543l-0.5,-0.28711l-0.5,0.28906l-0.5,0.28711v-0.57617v-0.57812l-0.5,-0.28906l-2,-1.1543l-0.5,-0.28906l-0.5,0.28906l-1.5,0.86523l-1,-0.57617v-1.73242v-0.57812l-0.5,-0.28906l-2,-1.1543zM24,3.92578l1.5,0.86719l-13.625,7.86719c-0.07667,0.04484 -0.1238,0.127 -0.1238,0.21582c0,0.08882 0.04712,0.17098 0.1238,0.21582l4,2.31055c0.07735,0.04465 0.17265,0.04465 0.25,0l11.98828,-6.92383h0.00195c0.0033,-0.00188 0.00656,-0.00383 0.00977,-0.00586l0.02148,-0.01172c0.00739,-0.00419 0.01456,-0.00875 0.02148,-0.01367l1.83203,-1.05664l1.50195,0.86719l-15.50195,8.94727l-7.50195,-4.33008zM25.75,5.22656v1.73047l-11.74023,6.79102l-1.51172,-0.87305zM26,7.39063l1.50195,0.86719l-11.50195,6.63867l-1.48828,-0.85937zM31.75,8.68945v1.73242l-13.83789,7.98828c-0.06133,0.02313 -0.11113,0.06942 -0.13867,0.12891c-0.00066,0.0013 -0.00131,0.0026 -0.00195,0.00391c-0.00283,0.00576 -0.00543,0.01162 -0.00781,0.01758c0,0.00065 0,0.0013 0,0.00195c0,0.00065 0,0.0013 0,0.00195c-0.00217,0.00578 -0.00412,0.01165 -0.00586,0.01758c-0.00001,0.0013 -0.00001,0.0026 0,0.00391c-0.00156,0.00646 -0.00286,0.01297 -0.00391,0.01953c-0.00156,0.00646 -0.00286,0.01297 -0.00391,0.01953c-0.00002,0.00195 -0.00002,0.00391 0,0.00586c-0.00002,0.00195 -0.00002,0.00391 0,0.00586c-0.00009,0.00391 -0.00009,0.00781 0,0.01172c-0.00009,0.00391 -0.00009,0.00781 0,0.01172v20.62891l-1.5,0.86523v-22.51562zM34,9.70117l1.5,0.86523l-13.625,7.86523c-0.07762,0.04459 -0.12548,0.12728 -0.12548,0.2168c0,0.08952 0.04786,0.1722 0.12548,0.2168l4,2.31055c0.07735,0.04465 0.17265,0.04465 0.25,0l11.98828,-6.92383h0.00195c0.0033,-0.00188 0.00656,-0.00383 0.00977,-0.00586l0.02148,-0.01172c0.00739,-0.00419 0.01456,-0.00875 0.02148,-0.01367l1.83203,-1.05664l1.50195,0.86719l-15.50195,8.94727l-7.5,-4.33008l13.60352,-7.85352c0.00735,-0.00355 0.01452,-0.00746 0.02148,-0.01172c0.00739,-0.00419 0.01456,-0.00875 0.02148,-0.01367zM35.75,11v1.73242l-11.73828,6.78906l-1.51172,-0.87305zM36,13.16406l1.50195,0.86719l-11.50195,6.63867l-1.48828,-0.85937zM8.25,13.30859l7.5,4.33008v22.51563l-7.5,-4.32812zM41.75,14.46289v22.51758l-15.5,8.94922v-22.51758zM18.25,19.08203l7.5,4.33008v22.51758l-7.5,-4.33008v-2.14844c0.00021,-0.00586 0.00021,-0.01172 0,-0.01758z"></path></g></g><g fill="#38da55" fill-rule="nonzero" stroke="none" stroke-width="1" stroke-linecap="butt" stroke-linejoin="miter" stroke-miterlimit="10" stroke-dasharray="" stroke-dashoffset="0" font-family="none" font-weight="none" font-size="none" text-anchor="none" style="mix-blend-mode: normal"><g transform="translate(160.28,165.28) scale(4.38857,4.38857)" id="overlay"><path d="M14,7v5c0,1.105 -0.895,2 -2,2h-10c-1.105,0 -2,-0.895 -2,-2v-5c0,-1.105 0.895,-2 2,-2c0,-2.757 2.243,-5 5,-5c0.925,0 1.83,0.255 2.615,0.738c0.47,0.29 0.617,0.905 0.328,1.376c-0.29,0.47 -0.906,0.616 -1.376,0.328c-0.469,-0.289 -1.011,-0.442 -1.567,-0.442c-1.654,0 -3,1.346 -3,3h8c1.105,0 2,0.895 2,2z"></path></g></g></svg>