<svg xmlns="http://www.w3.org/2000/svg" xmlns:xlink="http://www.w3.org/1999/xlink" viewBox="0,0,255.99184,255.99184" width="200px" height="200px"><defs><clipPath id="clip-1"><path d="M0,255.99184v-255.99184h255.99184v255.99184zM226.51232,186.48558c1.20247,-2.78235 1.10153,-6.06062 -0.51346,-8.86053l-1.58427,-2.74725c-1.56672,-2.71653 -4.3403,-4.51145 -7.41669,-4.87131c-0.3467,-3.01056 -2.07579,-5.80169 -4.8757,-7.42107l-2.74725,-1.58427c-1.50089,-0.86455 -3.20805,-1.32535 -4.93714,-1.32535c-1.36046,0 -2.69458,0.28526 -3.91899,0.81627c-1.8037,-2.43566 -4.70016,-3.98921 -7.93454,-3.98921h-3.16855c-3.23438,0 -6.13083,1.55355 -7.93454,3.98921c-1.22441,-0.52663 -2.55854,-0.81189 -3.91899,-0.81189c-1.7291,0 -3.43625,0.45641 -4.93714,1.32535l-2.74725,1.58427c-2.79991,1.61499 -4.52901,4.40613 -4.8757,7.41669c-3.07639,0.35986 -5.84997,2.15918 -7.41669,4.87131l-1.58427,2.74725c-1.62377,2.80869 -1.72032,6.10889 -0.49591,8.90002c-2.44882,1.81248 -4.00238,4.68699 -4.00238,7.89065v3.16855c0,3.22999 1.55355,6.12206 3.98482,7.93015c-1.20247,2.78235 -1.10153,6.06062 0.51346,8.86053l1.58427,2.74725c1.56672,2.71653 4.3403,4.51145 7.41669,4.87131c0.3467,3.01056 2.07579,5.80169 4.8757,7.42107l2.74725,1.58427c1.50089,0.86455 3.20805,1.32535 4.93714,1.32535c1.36046,0 2.69458,-0.28526 3.91899,-0.81627c1.8037,2.43566 4.70016,3.98921 7.93454,3.98921h3.16855c3.23438,0 6.12645,-1.55355 7.93454,-3.98921c1.22441,0.53102 2.55854,0.81627 3.91899,0.81627c1.7291,0 3.43625,-0.45641 4.93714,-1.32096l2.74725,-1.58427c2.79991,-1.61499 4.52901,-4.40613 4.8757,-7.42107c3.07639,-0.35986 5.84997,-2.15479 7.41669,-4.87131l1.58427,-2.74725c1.61499,-2.79552 1.71593,-6.07817 0.51346,-8.86053c2.43566,-1.81248 3.98482,-4.70455 3.98482,-7.93454v-3.16855c0,-3.22999 -1.55355,-6.12206 -3.98482,-7.93015z" id="overlayBgMask" fill="none"></path></clipPath></defs><g fill="none" fill-rule="nonzero" stroke="#000000" stroke-width="5.12" stroke-linecap="butt" stroke-linejoin="miter" stroke-miterlimit="10" stroke-dasharray="" stroke-dashoffset="0" font-family="none" font-weight="none" font-size="none" text-anchor="none" style="mix-blend-mode: normal"><path d="M78.14361,252.6267c-41.29901,0 -74.77847,-33.47946 -74.77847,-74.77847v-99.70462c0,-41.29901 33.47946,-74.77847 74.77847,-74.77847h99.70462c41.29901,0 74.77847,33.47946 74.77847,74.77847v99.70462c0,41.29901 -33.47946,74.77847 -74.77847,74.77847z" id="shape"></path></g><g clip-path="url(#clip-1)" fill="none" fill-rule="nonzero" stroke="none" stroke-width="1" stroke-linecap="butt" stroke-linejoin="miter" stroke-miterlimit="10" stroke-dasharray="" stroke-dashoffset="0" font-family="none" font-weight="none" font-size="none" text-anchor="none" style="mix-blend-mode: normal"><g transform="scale(5.12,5.12)" fill="#000000"><path d="M27,5.36914l-0.5,0.28906l-11,6.35156l-0.26172,0.15039l-0.13476,0.27149l-3.91602,7.91406l-6.85937,6.22266l-0.18945,0.17188l-0.08398,0.24219l-1,2.88672l-0.05469,0.1582v0.16797v4.61914v0.57813l0.5,0.28906l13,7.50586l0.5,0.28906l0.5,-0.28906l3.5,-2.02148l1.5,0.86523l0.23242,0.13477h0.26758h2h0.45703l0.29883,-0.3457l2,-2.30859l0.12695,-0.14453l0.0625,-0.18164l0.87695,-2.53516l7.17773,-4.14453l1.5,0.86523l0.23242,0.13477h0.26758h2h0.45703l0.29883,-0.3457l2,-2.30859l0.12695,-0.14453l0.0625,-0.18164l0.87695,-2.53516l2.67773,-1.54492l0.5,-0.28906v-0.57812v-4.61719v-0.42773l-0.30664,-0.29492l-2.93945,-2.82812l-2.95117,-3.97851l-0.12305,-0.16797l-0.17969,-0.10352l-13,-7.50195zM27,6.81445l12.5,7.21094l-10.5,6.0625l-12.50195,-7.21094zM16.10742,13.22461l12.56445,7.25195l-3.77734,7.63867l-12.56641,-7.25586zM39.93164,14.35352l2.69922,3.64062l-17.04102,9.8418l3.60156,-7.28125zM42.96289,18.38281l2.78711,2.68164v4.36914l-2.875,1.6582c-0.00739,0.00419 -0.01456,0.00875 -0.02148,0.01367l-6.9668,4.02344l-0.01172,0.00586l-8,4.61914c-0.00739,0.00419 -0.01456,0.00875 -0.02148,0.01367l-6.9668,4.02148l-0.01172,0.00586l-3.625,2.09375v-4.14453l0.96484,-2.78711l6.93359,-6.28906zM12.0332,21.26758l12.54492,7.24219l-6.61133,5.99609l-12.54492,-7.24219zM5.13672,27.67578l1.99609,1.15234l-0.83398,2.40625l-1.99609,-1.15039zM42.54297,27.86133l-0.76367,2.20703l-1.89258,2.1875h-1.74219l-0.80273,-1.39062zM7.57227,29.08398l7.62305,4.40039l-0.83398,2.40625l-7.62109,-4.40039zM4.25,30.62891l12.5,7.2168v4.04297l-12.5,-7.21875zM36.9082,31.11523l0.4082,0.70703l-0.81641,-0.4707zM15.63477,33.73828l2.06055,1.18945l-0.83203,2.40625l-2.06055,-1.18945zM27.54492,36.52148l-0.76562,2.20703l-1.89258,2.1875h-1.74219l-0.80273,-1.39258zM21.9082,39.77539l0.4082,0.70703l-0.81641,-0.4707z"></path></g></g><g fill="#38da55" fill-rule="nonzero" stroke="none" stroke-width="1" stroke-linecap="butt" stroke-linejoin="miter" stroke-miterlimit="10" stroke-dasharray="" stroke-dashoffset="0" font-family="none" font-weight="none" font-size="none" text-anchor="none" style="mix-blend-mode: normal"><g transform="translate(160.28,165.28) scale(4.38857,4.38857)" id="overlay"><g><path d="M14,7.361v-0.722c0,-0.127 -0.096,-0.234 -0.223,-0.248l-0.256,-0.028c-0.327,-0.036 -0.586,-0.283 -0.654,-0.605c-0.044,-0.209 -0.099,-0.415 -0.164,-0.616c-0.101,-0.313 -0.001,-0.655 0.264,-0.85l0.206,-0.152c0.103,-0.075 0.132,-0.216 0.068,-0.326l-0.361,-0.626c-0.064,-0.11 -0.2,-0.155 -0.317,-0.104l-0.24,0.106c-0.301,0.132 -0.648,0.048 -0.868,-0.196c-0.142,-0.157 -0.291,-0.307 -0.449,-0.449c-0.244,-0.22 -0.328,-0.567 -0.196,-0.868l0.105,-0.24c0.051,-0.117 0.006,-0.253 -0.104,-0.317l-0.626,-0.361c-0.11,-0.064 -0.251,-0.034 -0.327,0.068l-0.149,0.205c-0.195,0.265 -0.537,0.365 -0.85,0.264c-0.201,-0.065 -0.406,-0.12 -0.616,-0.164c-0.322,-0.067 -0.569,-0.326 -0.605,-0.653l-0.028,-0.256c-0.014,-0.127 -0.121,-0.223 -0.249,-0.223h-0.722c-0.128,0 -0.235,0.096 -0.249,0.223l-0.028,0.256c-0.036,0.327 -0.283,0.586 -0.605,0.653c-0.21,0.044 -0.415,0.099 -0.616,0.164c-0.313,0.101 -0.655,0.001 -0.85,-0.264l-0.152,-0.206c-0.075,-0.103 -0.216,-0.133 -0.326,-0.069l-0.626,0.361c-0.11,0.064 -0.155,0.2 -0.104,0.317l0.105,0.24c0.132,0.301 0.048,0.648 -0.196,0.868c-0.157,0.142 -0.307,0.292 -0.448,0.449c-0.22,0.244 -0.567,0.328 -0.868,0.196l-0.24,-0.106c-0.117,-0.05 -0.254,-0.005 -0.318,0.105l-0.361,0.626c-0.064,0.11 -0.034,0.251 0.068,0.326l0.206,0.152c0.265,0.195 0.365,0.537 0.264,0.85c-0.065,0.201 -0.12,0.406 -0.164,0.616c-0.066,0.322 -0.326,0.569 -0.653,0.605l-0.214,0.024c-0.169,0.018 -0.264,0.125 -0.264,0.253v0.722c0,0.128 0.096,0.235 0.223,0.249l0.256,0.028c0.327,0.036 0.586,0.283 0.654,0.605c0.044,0.209 0.099,0.415 0.164,0.616c0.101,0.313 0.001,0.655 -0.264,0.85l-0.207,0.152c-0.103,0.075 -0.132,0.216 -0.069,0.326l0.361,0.626c0.064,0.11 0.2,0.155 0.317,0.104l0.24,-0.106c0.301,-0.132 0.648,-0.048 0.868,0.196c0.142,0.157 0.291,0.307 0.449,0.449c0.244,0.22 0.328,0.567 0.196,0.868l-0.105,0.24c-0.051,0.117 -0.006,0.253 0.104,0.317l0.626,0.361c0.11,0.064 0.251,0.034 0.326,-0.068l0.151,-0.206c0.195,-0.265 0.537,-0.366 0.85,-0.264c0.201,0.065 0.406,0.12 0.616,0.164c0.322,0.067 0.569,0.326 0.605,0.654l0.028,0.256c0.015,0.126 0.122,0.222 0.25,0.222h0.722c0.127,0 0.234,-0.096 0.248,-0.223l0.028,-0.256c0.036,-0.327 0.283,-0.586 0.605,-0.654c0.209,-0.044 0.415,-0.099 0.616,-0.164c0.313,-0.101 0.655,-0.001 0.85,0.264l0.151,0.206c0.075,0.103 0.216,0.132 0.326,0.068l0.626,-0.361c0.11,-0.064 0.155,-0.2 0.104,-0.317l-0.105,-0.24c-0.132,-0.301 -0.048,-0.648 0.196,-0.868c0.157,-0.142 0.307,-0.291 0.449,-0.449c0.22,-0.244 0.567,-0.328 0.868,-0.196l0.24,0.106c0.117,0.051 0.253,0.006 0.317,-0.104l0.361,-0.626c0.064,-0.11 0.034,-0.251 -0.069,-0.326l-0.206,-0.152c-0.265,-0.195 -0.365,-0.537 -0.264,-0.85c0.065,-0.201 0.12,-0.406 0.164,-0.616c0.067,-0.322 0.327,-0.569 0.654,-0.605c0.093,-0.01 0.181,-0.02 0.256,-0.028c0.129,-0.013 0.224,-0.12 0.224,-0.248zM7,11c-2.209,0 -4,-1.791 -4,-4c0,-2.209 1.791,-4 4,-4c2.209,0 4,1.791 4,4c0,2.209 -1.791,4 -4,4zM8,7c0,0.552 -0.448,1 -1,1c-0.552,0 -1,-0.448 -1,-1c0,-0.552 0.448,-1 1,-1c0.552,0 1,0.448 1,1z"></path></g></g></g></svg>