<svg xmlns="http://www.w3.org/2000/svg" xmlns:xlink="http://www.w3.org/1999/xlink" viewBox="0,0,255.99184,255.99184" width="200px" height="200px"><defs><clipPath id="clip-1"><path d="M0,255.99184v-255.99184h255.99184v255.99184zM228.40982,176.83333c-1.06262,-2.7795 -3.86846,-7.74571 -7.18366,-11.0609c-3.3152,-3.3152 -8.27702,-6.12104 -11.0609,-7.18366c-3.63574,-1.38755 -7.4559,-2.0945 -11.3551,-2.0945c-8.44387,0 -16.37839,3.28446 -22.34136,9.24742c-6.85873,6.85873 -8.9664,15.36407 -6.17373,24.04945l-13.22566,13.22566c-7.42077,7.42077 -7.42077,19.4916 0,26.91238c3.59183,3.59622 8.36923,5.57656 13.45399,5.57656c5.08477,0 9.86216,-1.98034 13.45399,-5.57217l13.21249,-13.21249c2.48091,0.80794 4.94865,1.21191 7.38125,1.21191c4.23291,0 10.56472,-1.28217 16.68137,-7.39882c8.80393,-8.80393 11.60978,-22.0296 7.15731,-33.70085z" id="overlayBgMask" fill="none"></path></clipPath></defs><g fill="none" fill-rule="nonzero" stroke="#000000" stroke-width="5.12" stroke-linecap="butt" stroke-linejoin="miter" stroke-miterlimit="10" stroke-dasharray="" stroke-dashoffset="0" font-family="none" font-weight="none" font-size="none" text-anchor="none" style="mix-blend-mode: normal"><path d="M78.14361,252.6267c-41.29901,0 -74.77847,-33.47946 -74.77847,-74.77847v-99.70462c0,-41.29901 33.47946,-74.77847 74.77847,-74.77847h99.70462c41.29901,0 74.77847,33.47946 74.77847,74.77847v99.70462c0,41.29901 -33.47946,74.77847 -74.77847,74.77847z" id="shape"></path></g><g clip-path="url(#clip-1)" fill="none" fill-rule="nonzero" stroke="none" stroke-width="1" stroke-linecap="butt" stroke-linejoin="miter" stroke-miterlimit="10" stroke-dasharray="" stroke-dashoffset="0" font-family="none" font-weight="none" font-size="none" text-anchor="none" style="mix-blend-mode: normal"><g transform="scale(5.12,5.12)" fill="#000000"><path d="M25,7.67578l-0.5,0.28906l-9,5.19922l-0.26172,0.15039l-0.13476,0.27149l-3.86523,7.80859l-8.73828,5.04883l-0.5,0.28906v0.57813v6.92969v0.57617l0.5,0.28906l14,8.08008l0.5,0.28906l0.5,-0.28906l3.50781,-2.02148l1.48828,0.86914l0.23438,0.13672h0.26953h2h0.45703l0.29883,-0.3457l2,-2.31055l0.12695,-0.14648l0.0625,-0.18164l0.87695,-2.53711l6.17969,-3.56641l1.5,0.86328l0.23047,0.13281h0.26758h2h0.45703l0.29883,-0.34375l2,-2.31055l0.12695,-0.14453l0.0625,-0.18164l0.87695,-2.52734l4.67969,-2.70508l0.5,-0.28906v-0.57617v-6.92969v-0.57812l-0.5,-0.28906l-14,-8.08008l-0.50195,-0.28711l-0.5,0.28711l-2.5,1.44336l-4.5,-2.60156zM25,9.11914l4.875,2.81641c0.00697,0.00425 0.01414,0.00817 0.02148,0.01172l8.60352,4.9707l-8.5,4.90625l-13.50195,-7.79297zM33,10.2793l13.5,7.79102l-4.43164,2.56055l-2.86719,-3.86328c-0.02061,-0.02709 -0.04653,-0.04969 -0.07617,-0.06641l-8.625,-4.98047zM16.10742,14.37891l13.56445,7.83398l-3.7793,7.63281l-13.56445,-7.83594zM38.93164,17.24414l2.70117,3.63867l-15.04297,8.68359l3.60156,-7.27539zM46.75,18.50391v4.04297l-29.5,17.03125v-4.04102l8.86523,-5.11914c0.0033,-0.00188 0.00656,-0.00383 0.00977,-0.00586c0.00739,-0.00419 0.01456,-0.00875 0.02148,-0.01367l15.97852,-9.22266zM12,22.39844l13.5,7.79687l-8.5,4.9082l-13.5,-7.79297zM46.75,23.125v1.73047l-4.875,2.81836c-0.00739,0.00419 -0.01456,0.00875 -0.02148,0.01367l-6.9668,4.01953l-0.01172,0.00586l-7,4.04102c-0.00739,0.00419 -0.01456,0.00875 -0.02148,0.01367l-6.95703,4.01953l-0.01172,0.00586l-3.63477,2.09375v-1.73242zM3.25,27.74414l3.5,2.01953v1.73047l-3.5,-2.01953zM41.54297,28.44336l-0.76367,2.19922l-1.89258,2.1875h-1.74219l-0.80273,-1.38672zM3.25,30.05273l3.625,2.0918c0.0774,0.04467 0.17275,0.04463 0.25011,-0.00009c0.07736,-0.04473 0.12498,-0.12734 0.12489,-0.2167v-1.875l5.5,3.17578v2.16406c-0.0001,0.08942 0.04756,0.17208 0.125,0.2168l3.875,2.23633v1.73242l-13.5,-7.79492zM35.9082,31.69336l0.4082,0.70508l-0.81641,-0.46875zM3.25,32.36133l13.5,7.79297v1.73242l-13.5,-7.79102zM13.25,33.51758l3.5,2.01953v1.73242l-3.5,-2.02148zM27.54492,36.52148l-0.76562,2.21094l-1.89258,2.1875h-1.74219l-0.80078,-1.39258zM21.91016,39.7793l0.4043,0.70117l-0.80664,-0.46875z"></path></g></g><g fill="#38da55" fill-rule="nonzero" stroke="none" stroke-width="1" stroke-linecap="butt" stroke-linejoin="miter" stroke-miterlimit="10" stroke-dasharray="" stroke-dashoffset="0" font-family="none" font-weight="none" font-size="none" text-anchor="none" style="mix-blend-mode: normal"><g transform="translate(160.27671,165.24944) scale(4.39099,4.39099)" id="overlay"><path d="M12.473,8.898c-1.442,1.442 -2.995,1.335 -4.501,0.43c-1.611,1.611 -3.853,3.853 -3.988,3.988c-0.911,0.911 -2.389,0.911 -3.3,0c-0.911,-0.911 -0.911,-2.389 0,-3.3c0.137,-0.138 2.416,-2.417 3.988,-3.988c-0.905,-1.507 -1.012,-3.06 0.43,-4.501c1.5,-1.5 3.685,-1.886 5.547,-1.175l-3.149,3.148l0.5,2.5l2.5,0.5l3.148,-3.148c0.711,1.861 0.325,4.046 -1.175,5.546z"></path></g></g></svg>