<svg xmlns="http://www.w3.org/2000/svg" xmlns:xlink="http://www.w3.org/1999/xlink" viewBox="0,0,255.99184,255.99184" width="200px" height="200px"><defs><clipPath id="clip-1"><path d="M0,255.99184v-255.99184h255.99184v255.99184zM226.81952,190.42261c-1.11957,-1.75445 -14.36672,-21.72928 -35.81952,-21.72928c-21.47669,0 -34.73408,20.02603 -35.82635,21.73952c-1.14347,1.7408 -1.72032,3.61131 -1.72032,5.56715c0,1.86709 0.52565,3.65909 1.56672,5.32821c1.60085,2.90475 12.98773,21.97845 35.97995,21.97845c22.96832,0 34.34837,-19.02592 35.96629,-21.95797c1.04789,-1.67595 1.58037,-3.47136 1.58037,-5.34528c0,-1.96267 -0.58027,-3.84 -1.72715,-5.5808z" id="overlayBgMask" fill="none"></path></clipPath></defs><g fill="none" fill-rule="nonzero" stroke="#000000" stroke-width="5.12" stroke-linecap="butt" stroke-linejoin="miter" stroke-miterlimit="10" stroke-dasharray="" stroke-dashoffset="0" font-family="none" font-weight="none" font-size="none" text-anchor="none" style="mix-blend-mode: normal"><path d="M78.14361,252.6267c-41.29901,0 -74.77847,-33.47946 -74.77847,-74.77847v-99.70462c0,-41.29901 33.47946,-74.77847 74.77847,-74.77847h99.70462c41.29901,0 74.77847,33.47946 74.77847,74.77847v99.70462c0,41.29901 -33.47946,74.77847 -74.77847,74.77847z" id="shape"></path></g><g clip-path="url(#clip-1)" fill="none" fill-rule="nonzero" stroke="none" stroke-width="1" stroke-linecap="butt" stroke-linejoin="miter" stroke-miterlimit="10" stroke-dasharray="" stroke-dashoffset="0" font-family="none" font-weight="none" font-size="none" text-anchor="none" style="mix-blend-mode: normal"><g transform="translate(0,6.169) scale(5.12,5.12)" fill="#000000"><path d="M29,7.67578l-0.5,0.28906l-26,15.01953l-0.5,0.28906v0.57617v6.91992v0.57813l0.5,0.28906l18,10.38867l0.5,0.28906l0.5,-0.28906l26,-15.00977l0.5,-0.28906v-0.57617v-6.91992v-0.57812l-0.5,-0.28906l-18,-10.39844zM29,9.11914l17.5,10.11133l-25.5,14.7207l-17.5,-10.10156zM23.97461,14.93555c-0.1089,0.0101 -0.1986,0.08982 -0.22142,0.19678c-0.02282,0.10696 0.02652,0.21634 0.12181,0.27002l3,1.73047c0.07735,0.04465 0.17265,0.04465 0.25,0l3,-1.73047c0.09826,-0.05647 0.14624,-0.17197 0.11693,-0.28145c-0.02931,-0.10947 -0.1286,-0.18554 -0.24193,-0.18535h-6c-0.00846,-0.00043 -0.01693,-0.00043 -0.02539,0zM24.93359,15.43555h4.13281l-2.06641,1.19336zM32.98047,15.50781c-0.03719,0.00306 -0.07323,0.0144 -0.10547,0.0332l-4.00195,2.31445c-0.07667,0.04484 -0.12379,0.127 -0.12379,0.21582c0,0.08882 0.04712,0.17098 0.12379,0.21582l2.00195,1.15625c0.07735,0.04465 0.17265,0.04465 0.25,0l4,-2.31055c0.07667,-0.04484 0.12379,-0.127 0.12379,-0.21582c0,-0.08882 -0.04712,-0.17098 -0.12379,-0.21582l-2,-1.16016c-0.04371,-0.02543 -0.0941,-0.03701 -0.14453,-0.0332zM33,16.04688l1.50195,0.86914l-3.50195,2.02148l-1.5,-0.86719zM21.98047,16.08984c-0.10725,0.00866 -0.19694,0.08497 -0.22266,0.18945l-1,4.04102c-0.0243,0.09728 0.01187,0.19966 0.09188,0.2601c0.08001,0.06043 0.18838,0.06722 0.27531,0.01725l4,-2.30859c0.07762,-0.04459 0.12548,-0.12728 0.12548,-0.2168c0,-0.08952 -0.04786,-0.1722 -0.12548,-0.2168l-3,-1.73242c-0.04371,-0.02543 -0.0941,-0.03701 -0.14453,-0.0332zM22.16211,16.72266l2.33789,1.34961l-3.11719,1.79883zM35.99219,18.39844c-0.0412,0.00124 -0.08146,0.01264 -0.11719,0.0332l-3,1.73242c-0.07762,0.04459 -0.12548,0.12728 -0.12548,0.2168c0,0.08952 0.04786,0.17221 0.12548,0.2168l3,1.73242c0.0774,0.04467 0.17275,0.04463 0.25011,-0.00009c0.07736,-0.04473 0.12498,-0.12734 0.12489,-0.2167v-3.46484c0.00003,-0.06768 -0.02738,-0.13248 -0.07597,-0.17959c-0.04859,-0.04711 -0.1142,-0.07252 -0.18184,-0.07041zM26.98047,18.97656c-0.03719,0.00306 -0.07323,0.0144 -0.10547,0.0332l-5,2.89258c-0.07667,0.04484 -0.12379,0.127 -0.12379,0.21582c0,0.08882 0.04712,0.17098 0.12379,0.21582l2,1.15039c0.07735,0.04465 0.17265,0.04465 0.25,0l5,-2.88672c0.07762,-0.04459 0.12548,-0.12728 0.12548,-0.2168c0,-0.08952 -0.04786,-0.17221 -0.12548,-0.2168l-2,-1.1543c-0.03631,-0.02087 -0.07727,-0.03229 -0.11914,-0.0332c-0.00846,-0.00043 -0.01693,-0.00043 -0.02539,0zM35.75,19.08203v2.59766l-2.25,-1.29883zM27,19.51563l1.5,0.86523l-4.5,2.59766l-1.49805,-0.86133zM46.75,19.66406v1.72852l-25.5,14.72266v-1.73242zM30.98047,21.28516c-0.03735,0.00365 -0.0734,0.01567 -0.10547,0.03516l-4,2.30859c-0.1005,0.059 -0.14691,0.17961 -0.11188,0.29076c0.03503,0.11115 0.1422,0.18336 0.25836,0.17409l7,-0.57617c0.10955,-0.00866 0.2006,-0.08784 0.22439,-0.19512c0.02379,-0.10728 -0.02525,-0.21752 -0.12087,-0.27168l-3,-1.73047c-0.03612,-0.02155 -0.0771,-0.03365 -0.11914,-0.03516c-0.00846,-0.00043 -0.01693,-0.00043 -0.02539,0zM31,21.82422l2.18359,1.26172l-5.0957,0.41797zM13.98047,21.86328c-0.03719,0.00306 -0.07323,0.0144 -0.10547,0.0332l-2,1.1543c-0.07762,0.04459 -0.12548,0.12728 -0.12548,0.2168c0,0.08952 0.04786,0.17221 0.12548,0.2168l10,5.77344c0.07735,0.04465 0.17265,0.04465 0.25,0l2,-1.1543c0.07762,-0.04459 0.12548,-0.12728 0.12548,-0.2168c0,-0.08952 -0.04786,-0.17221 -0.12548,-0.2168l-10,-5.77344c-0.04371,-0.02543 -0.0941,-0.03701 -0.14453,-0.0332zM46.75,21.96875v1.73242l-25.5,14.7207v-1.72852zM14,22.40234l9.5,5.48438l-1.5,0.86523l-9.5,-5.48437zM46.75,24.27734v1.72852l-25.5,14.7207v-1.72656zM3.25,24.2832l17.5,10.09961v1.73242l-15.625,-9.02148c-0.0774,-0.04467 -0.17275,-0.04463 -0.25011,0.00009c-0.07736,0.04473 -0.12498,0.12734 -0.12489,0.2167v2.30859c-0.0001,0.08942 0.04756,0.17208 0.125,0.2168l15.875,9.16406v1.72656l-17.5,-10.10156zM5.25,27.74414l15.5,8.94922v1.72852l-15.5,-8.94727z"></path></g></g><g fill="#38da55" fill-rule="nonzero" stroke="none" stroke-width="1" stroke-linecap="butt" stroke-linejoin="miter" stroke-miterlimit="10" stroke-dasharray="" stroke-dashoffset="0" font-family="none" font-weight="none" font-size="none" text-anchor="none" style="mix-blend-mode: normal"><g transform="translate(160.28,175.52) scale(3.41333,3.41333)" id="overlay"><path d="M11,6c0,1.105 -0.895,2 -2,2c-1.105,0 -2,-0.895 -2,-2c0,-1.105 0.895,-2 2,-2c1.105,0 2,0.895 2,2zM18,6c0,0.207 -0.078,0.388 -0.185,0.547c0,0 -2.815,5.453 -8.815,5.453c-6,0 -8.817,-5.456 -8.817,-5.456c-0.106,-0.158 -0.183,-0.338 -0.183,-0.544c0,-0.205 0.077,-0.385 0.182,-0.543c0,0 3.418,-5.457 8.818,-5.457c5.4,0 8.816,5.455 8.816,5.455c0.107,0.159 0.184,0.339 0.184,0.545zM13,6c0,-2.209 -1.791,-4 -4,-4c-2.209,0 -4,1.791 -4,4c0,2.209 1.791,4 4,4c2.209,0 4,-1.791 4,-4z"></path></g></g></svg>