<svg xmlns="http://www.w3.org/2000/svg" xmlns:xlink="http://www.w3.org/1999/xlink" viewBox="0,0,255.99184,255.99184" width="200px" height="200px"><defs><clipPath id="clip-1"><path d="M0,255.99184v-255.99184h255.99184v255.99184zM226.63456,213.01858l-7.71058,-7.71058c1.84317,-4.30511 2.79547,-8.94375 2.79547,-13.69649c0,-19.35764 -15.7503,-35.10794 -35.10794,-35.10794c-19.35764,0 -35.10794,15.7503 -35.10794,35.10794c0,19.35764 15.7503,35.10794 35.10794,35.10794c4.75274,0 9.38699,-0.9523 13.69649,-2.79547l7.71497,7.71497c2.48389,2.48828 5.79281,3.85749 9.30799,3.85749c3.51518,0 6.82411,-1.36921 9.30799,-3.85749c2.48828,-2.48389 3.85749,-5.79281 3.85749,-9.30799c0,-3.51957 -1.36921,-6.8285 -3.86187,-9.31238z" id="overlayBgMask" fill="none"></path></clipPath></defs><g fill="none" fill-rule="nonzero" stroke="#000000" stroke-width="5.12" stroke-linecap="butt" stroke-linejoin="miter" stroke-miterlimit="10" stroke-dasharray="" stroke-dashoffset="0" font-family="none" font-weight="none" font-size="none" text-anchor="none" style="mix-blend-mode: normal"><path d="M78.14361,252.6267c-41.29901,0 -74.77847,-33.47946 -74.77847,-74.77847v-99.70462c0,-41.29901 33.47946,-74.77847 74.77847,-74.77847h99.70462c41.29901,0 74.77847,33.47946 74.77847,74.77847v99.70462c0,41.29901 -33.47946,74.77847 -74.77847,74.77847z" id="shape"></path></g><g clip-path="url(#clip-1)" fill="none" fill-rule="nonzero" stroke="none" stroke-width="1" stroke-linecap="butt" stroke-linejoin="miter" stroke-miterlimit="10" stroke-dasharray="" stroke-dashoffset="0" font-family="none" font-weight="none" font-size="none" text-anchor="none" style="mix-blend-mode: normal"><g transform="scale(5.12,5.12)" fill="#000000"><path d="M33.99805,3.63477l-0.5,0.29102l-2,1.16016l-0.49805,0.28711v0.57617v2.88477l-2.50195,1.45117l-0.49805,0.28906v0.57617v1.72266l-2,1.1543v-0.57812v-0.57812l-0.5,-0.28906l-9,-5.18945l-0.5,-0.28711l-0.5,0.28906l-9,5.18945l-0.5,0.28711v0.57813v21.94141v0.57617l0.5,0.28906l18,10.39063l0.5,0.28906l0.5,-0.28906l18,-10.39062l0.5,-0.28906v-0.57617v-19.63086v-0.57617l-0.5,-0.28906l-3.5,-2.02148v-1.73242v-0.57812l-0.5,-0.28906l-2.5,-1.44141v-2.89258v-0.57812l-0.50195,-0.28906l-2,-1.14844zM34,5.07813l1.50195,0.86328l-1.50195,0.87109l-1.5,-0.86328zM35.75,6.37305v3.03711v1.00977l-1.5,0.86719v-4.04297zM32.25,6.38281l1.5,0.86328v4.04102l-1.5,-0.86523v-1c0.00009,-0.00391 0.00009,-0.00781 0,-0.01172zM16,8.54883l4.5,2.5957l-4.5,2.59766l-4.5,-2.59766zM31.75,9.84375v0.72266c-0.0001,0.08942 0.04756,0.17208 0.125,0.2168l2,1.1543c0.07735,0.04465 0.17265,0.04465 0.25,0l2,-1.15625c0.07744,-0.04471 0.1251,-0.12738 0.125,-0.2168v-0.7207l2.25,1.29688l-4.5,2.60156l-4.5,-2.5918zM38.75,11.57422v1.875v2.16601l-4.50195,2.59766l0.00195,-4.03906zM10.75,11.57617v1.87695c-0.0001,0.08942 0.04756,0.17208 0.125,0.2168l5,2.88672c0.07735,0.04465 0.17265,0.04465 0.25,0l5,-2.88672c0.07744,-0.04471 0.1251,-0.12738 0.125,-0.2168v-1.87695l3.25195,1.875l-8.50195,4.9082l-8.50195,-4.9082zM11.25,11.57813l4.5,2.5957v1.73242l-4.5,-2.59766zM20.75,11.57813v1.73047l-4.5,2.59766v-1.73242zM29.25,11.58398l4.5,2.58984l-0.00195,4.03906l-4.49805,-2.5957v-2.15625c0.00009,-0.00391 0.00009,-0.00781 0,-0.01172zM7.25,13.88281l8.5,4.91016l0.00195,6.76953v0.01172l-0.00195,14.57813l-8.5,-4.90625zM24.75,13.88281v1.87695v4.47461l-8.49805,4.90625l-0.00195,-6.34766zM28.75,13.88281v1.87891c0.0006,0.08872 0.04817,0.17048 0.125,0.21484l4.99805,2.88672c0.07735,0.04465 0.17265,0.04465 0.25,0l5,-2.88672c0.07744,-0.04471 0.1251,-0.12738 0.125,-0.2168l0.00195,-1.87695l3.25,1.87695l-8.5,4.91016l-8.50195,-4.9082zM42.75,16.19336v19.05273l-8.50195,4.9082l0.00195,-14.56641c0.00009,-0.00391 0.00009,-0.00781 0,-0.01172v-4.47266zM25.25,16.19531l8.5,4.9082v4.03906l-1.5,-0.86523v-2.16406c0.0001,-0.08942 -0.04756,-0.17208 -0.125,-0.2168l-2,-1.1543c-0.04371,-0.02543 -0.0941,-0.03701 -0.14453,-0.0332c-0.13039,0.01023 -0.23086,0.11921 -0.23047,0.25v1.87305l-0.5,-0.28711v-2.16406c0.0001,-0.08942 -0.04756,-0.17208 -0.125,-0.2168l-2,-1.1543c-0.04371,-0.02543 -0.0941,-0.03701 -0.14453,-0.0332c-0.13039,0.01023 -0.23086,0.11921 -0.23047,0.25v1.87305l-1.5,-0.86523zM8.98047,16.66797c-0.13039,0.01023 -0.23086,0.11921 -0.23047,0.25v2.30859c-0.0001,0.08942 0.04756,0.17208 0.125,0.2168l5,2.88672c0.0774,0.04467 0.17275,0.04463 0.25011,-0.00009c0.07736,-0.04473 0.12498,-0.12734 0.12489,-0.2167v-2.30859c0.0001,-0.08942 -0.04756,-0.17208 -0.125,-0.2168l-5,-2.88672c-0.04371,-0.02543 -0.0941,-0.03701 -0.14453,-0.0332zM22.99219,16.66797c-0.0412,0.00124 -0.08146,0.01264 -0.11719,0.0332l-5,2.88672c-0.07744,0.04471 -0.1251,0.12738 -0.125,0.2168v2.30859c-0.00009,0.08936 0.04752,0.17198 0.12489,0.2167c0.07736,0.04473 0.17272,0.04476 0.25011,0.00009l5,-2.88672c0.07744,-0.04471 0.1251,-0.12738 0.125,-0.2168v-2.30859c0.00003,-0.06768 -0.02738,-0.13248 -0.07597,-0.17959c-0.04859,-0.04711 -0.1142,-0.07252 -0.18184,-0.07041zM9.25,17.34961l4.5,2.59766v1.73242l-4.5,-2.59766zM22.75,17.34961v1.73242l-4.5,2.59766v-1.73242zM40.99219,18.97656c-0.0412,0.00124 -0.08146,0.01264 -0.11719,0.0332l-2,1.1543c-0.07744,0.04471 -0.1251,0.12738 -0.125,0.2168v15.01172c-0.00009,0.08936 0.04752,0.17198 0.12489,0.2167c0.07736,0.04473 0.17272,0.04476 0.25011,0.00009l2,-1.1543c0.07744,-0.04471 0.1251,-0.12738 0.125,-0.2168v-15.01172c0.00003,-0.06768 -0.02738,-0.13248 -0.07597,-0.17959c-0.04859,-0.04711 -0.1142,-0.07252 -0.18184,-0.07041zM27.25,19.66016l1.5,0.86523v1.73047l-1.5,-0.86719zM40.75,19.66016v14.43359l-1.5,0.86523v-14.43359zM25,20.66602l8.5,4.91016l-8.5,4.90625l-8.49805,-4.9082zM37.99219,20.70898c-0.0412,0.00124 -0.08146,0.01264 -0.11719,0.0332l-2,1.1543c-0.07744,0.04471 -0.1251,0.12738 -0.125,0.2168v15.00977c-0.00009,0.08936 0.04752,0.17198 0.12489,0.2167c0.07736,0.04473 0.17272,0.04476 0.25011,0.00009l2,-1.15234c0.07744,-0.04471 0.1251,-0.12738 0.125,-0.2168v-15.01172c0.00003,-0.06768 -0.02738,-0.13248 -0.07597,-0.17959c-0.04859,-0.04711 -0.1142,-0.07252 -0.18184,-0.07041zM8.98047,21.28516c-0.13039,0.01023 -0.23086,0.11921 -0.23047,0.25v2.31055c0.0006,0.08872 0.04817,0.17048 0.125,0.21484l5,2.88867c0.0774,0.04467 0.17275,0.04463 0.25011,-0.00009c0.07736,-0.04473 0.12498,-0.12734 0.12489,-0.2167v-2.30859c0.0001,-0.08942 -0.04756,-0.17208 -0.125,-0.2168l-5,-2.88672c-0.03612,-0.02155 -0.0771,-0.03365 -0.11914,-0.03516c-0.00846,-0.00043 -0.01693,-0.00043 -0.02539,0zM30.25,21.39258l1.5,0.86523v1.73047l-1.5,-0.86719zM37.75,21.39258v14.43359l-1.5,0.86523v-14.43359zM9.25,21.96875l4.5,2.59766v1.73242l-4.5,-2.59766zM8.98047,25.9043c-0.13039,0.01023 -0.23086,0.11921 -0.23047,0.25v2.31055c0.0006,0.08872 0.04817,0.17048 0.125,0.21484l5,2.88867c0.0774,0.04467 0.17275,0.04463 0.25011,-0.00009c0.07736,-0.04473 0.12498,-0.12734 0.12489,-0.2167v-2.31055c0.0001,-0.08942 -0.04756,-0.17208 -0.125,-0.2168l-5,-2.88477c-0.03612,-0.02155 -0.0771,-0.03365 -0.11914,-0.03516c-0.00846,-0.00043 -0.01693,-0.00043 -0.02539,0zM16.25195,26.00781l8.49805,4.9082v14.43164l-8.5,-4.90625zM33.75,26.00977l-0.00195,14.43359l-8.49805,4.9043v-14.43164zM9.25,26.58789l4.5,2.59766v1.73242l-4.5,-2.59766zM17.98047,28.79102c-0.13039,0.01023 -0.23086,0.11921 -0.23047,0.25v3.46484c-0.0001,0.08942 0.04756,0.17208 0.125,0.2168l2,1.1543c0.0774,0.04467 0.17275,0.04463 0.25011,-0.00009c0.07736,-0.04473 0.12498,-0.12734 0.12489,-0.2167v-3.46484c-0.0006,-0.08872 -0.04817,-0.17048 -0.125,-0.21484l-2,-1.15625c-0.04371,-0.02543 -0.0941,-0.03701 -0.14453,-0.0332zM31.99219,28.79102c-0.0412,0.00124 -0.08146,0.01264 -0.11719,0.0332l-2,1.15625c-0.07683,0.04436 -0.1244,0.12612 -0.125,0.21484v3.46484c-0.00009,0.08936 0.04752,0.17198 0.12489,0.2167c0.07736,0.04473 0.17272,0.04476 0.25011,0.00009l2,-1.1543c0.07744,-0.04471 0.1251,-0.12738 0.125,-0.2168v-3.46484c0.00003,-0.06768 -0.02738,-0.13248 -0.07597,-0.17959c-0.04859,-0.04711 -0.1142,-0.07252 -0.18184,-0.07041zM18.25,29.47461l1.5,0.86523v2.88672l-1.5,-0.86523zM31.75,29.47461v2.88672l-1.5,0.86523v-2.88672zM8.98047,30.52344c-0.13039,0.01023 -0.23086,0.11921 -0.23047,0.25v2.30859c-0.0001,0.08942 0.04756,0.17208 0.125,0.2168l5,2.88672c0.0771,0.0445 0.17203,0.04465 0.24927,0.0004c0.07724,-0.04425 0.12512,-0.12623 0.12573,-0.21524v-2.31055c0.0001,-0.08942 -0.04756,-0.17208 -0.125,-0.2168l-5,-2.88672c-0.03631,-0.02087 -0.07727,-0.03229 -0.11914,-0.0332c-0.00846,-0.00043 -0.01693,-0.00043 -0.02539,0zM20.98047,30.52344c-0.13039,0.01023 -0.23086,0.11921 -0.23047,0.25v3.46484c-0.0001,0.08942 0.04756,0.17208 0.125,0.2168l2,1.1543c0.0774,0.04467 0.17275,0.04463 0.25011,-0.00009c0.07736,-0.04473 0.12498,-0.12734 0.12489,-0.2167v-3.46484c0.0001,-0.08942 -0.04756,-0.17208 -0.125,-0.2168l-2,-1.1543c-0.03631,-0.02087 -0.07727,-0.03229 -0.11914,-0.0332c-0.00846,-0.00043 -0.01693,-0.00043 -0.02539,0zM28.99219,30.52344c-0.0412,0.00124 -0.08146,0.01264 -0.11719,0.0332l-2,1.1543c-0.07744,0.04471 -0.1251,0.12738 -0.125,0.2168v3.46484c-0.00009,0.08936 0.04752,0.17198 0.12489,0.2167c0.07736,0.04473 0.17272,0.04476 0.25011,0.00009l2,-1.1543c0.07744,-0.04471 0.1251,-0.12738 0.125,-0.2168v-3.46484c0.00003,-0.06768 -0.02738,-0.13248 -0.07597,-0.17959c-0.04859,-0.04711 -0.1142,-0.07252 -0.18184,-0.07041zM9.25,31.20703l4.5,2.59766v1.73242l-4.5,-2.59766zM21.25,31.20703l1.5,0.86523v2.88672l-1.5,-0.86523zM28.75,31.20703v2.88672l-1.5,0.86523v-2.88672zM17.98047,34.56445c-0.13039,0.01023 -0.23086,0.11921 -0.23047,0.25v3.46484c-0.0001,0.08942 0.04756,0.17208 0.125,0.2168l2,1.1543c0.0774,0.04467 0.17275,0.04463 0.25011,-0.00009c0.07736,-0.04473 0.12498,-0.12734 0.12489,-0.2167v-3.46289c0.0001,-0.08942 -0.04756,-0.17208 -0.125,-0.2168l-2,-1.15625c-0.03631,-0.02087 -0.07727,-0.03229 -0.11914,-0.0332c-0.00846,-0.00043 -0.01693,-0.00043 -0.02539,0zM31.99219,34.56445c-0.0412,0.00124 -0.08146,0.01264 -0.11719,0.0332l-2,1.15625c-0.07744,0.04471 -0.1251,0.12738 -0.125,0.2168v3.46289c-0.00009,0.08936 0.04752,0.17198 0.12489,0.2167c0.07736,0.04473 0.17272,0.04476 0.25011,0.00009l2,-1.1543c0.07744,-0.04471 0.1251,-0.12738 0.125,-0.2168v-3.46484c0.00003,-0.06768 -0.02738,-0.13248 -0.07597,-0.17959c-0.04859,-0.04711 -0.1142,-0.07252 -0.18184,-0.07041zM18.25,35.24805l1.5,0.86523v2.88672l-1.5,-0.86523zM31.75,35.24805v2.88672l-1.5,0.86523v-2.88672zM20.98047,36.29688c-0.13039,0.01023 -0.23086,0.11921 -0.23047,0.25v3.46484c0.0006,0.08872 0.04817,0.17048 0.125,0.21484l2,1.15625c0.0774,0.04467 0.17275,0.04463 0.25011,-0.00009c0.07736,-0.04473 0.12498,-0.12734 0.12489,-0.2167v-3.46484c-0.0006,-0.08872 -0.04817,-0.17048 -0.125,-0.21484l-2,-1.15625c-0.04371,-0.02543 -0.0941,-0.03701 -0.14453,-0.0332zM28.99219,36.29688c-0.0412,0.00124 -0.08146,0.01264 -0.11719,0.0332l-2,1.15625c-0.07683,0.04436 -0.1244,0.12612 -0.125,0.21484v3.46484c-0.00009,0.08936 0.04752,0.17198 0.12489,0.2167c0.07736,0.04473 0.17272,0.04476 0.25011,0.00009l2,-1.15625c0.07683,-0.04436 0.1244,-0.12612 0.125,-0.21484v-3.46484c0.00003,-0.06768 -0.02738,-0.13248 -0.07597,-0.17959c-0.04859,-0.04711 -0.1142,-0.07252 -0.18184,-0.07041zM21.25,36.98047l1.5,0.86523v2.88672l-1.5,-0.86523zM28.75,36.98047v2.88672l-1.5,0.86523v-2.88672z"></path></g></g><g fill="#38da55" fill-rule="nonzero" stroke="none" stroke-width="1" stroke-linecap="butt" stroke-linejoin="miter" stroke-miterlimit="10" stroke-dasharray="" stroke-dashoffset="0" font-family="none" font-weight="none" font-size="none" text-anchor="none" style="mix-blend-mode: normal"><g transform="translate(160.28,165.28055) scale(4.38849,4.38849)" id="overlay"><path d="M13.707,12.293l-2.822,-2.822c0.699,-0.981 1.115,-2.177 1.115,-3.471c0,-3.309 -2.691,-6 -6,-6c-3.309,0 -6,2.691 -6,6c0,3.309 2.691,6 6,6c1.294,0 2.49,-0.416 3.471,-1.115l2.822,2.822c0.195,0.195 0.451,0.293 0.707,0.293c0.256,0 0.512,-0.098 0.707,-0.293c0.391,-0.391 0.391,-1.024 0,-1.414zM2,6c0,-2.206 1.794,-4 4,-4c2.206,0 4,1.794 4,4c0,2.206 -1.794,4 -4,4c-2.206,0 -4,-1.794 -4,-4z"></path></g></g></svg>