<svg xmlns="http://www.w3.org/2000/svg" xmlns:xlink="http://www.w3.org/1999/xlink" viewBox="0,0,255.99184,255.99184" width="200px" height="200px"><defs><clipPath id="clip-1"><path d="M0,255.99184v-255.99184h255.99184v255.99184zM212.94286,156.50286h-43.88571c-9.68119,0 -17.55429,7.8731 -17.55429,17.55429v43.88571c0,9.68119 7.8731,17.55429 17.55429,17.55429h43.88571c9.68119,0 17.55429,-7.8731 17.55429,-17.55429v-43.88571c0,-9.68119 -7.8731,-17.55429 -17.55429,-17.55429z" id="overlayBgMask" fill="none"></path></clipPath></defs><g fill="none" fill-rule="nonzero" stroke="#000000" stroke-width="5.12" stroke-linecap="butt" stroke-linejoin="miter" stroke-miterlimit="10" stroke-dasharray="" stroke-dashoffset="0" font-family="none" font-weight="none" font-size="none" text-anchor="none" style="mix-blend-mode: normal"><path d="M78.14361,252.6267c-41.29901,0 -74.77847,-33.47946 -74.77847,-74.77847v-99.70462c0,-41.29901 33.47946,-74.77847 74.77847,-74.77847h99.70462c41.29901,0 74.77847,33.47946 74.77847,74.77847v99.70462c0,41.29901 -33.47946,74.77847 -74.77847,74.77847z" id="shape"></path></g><g clip-path="url(#clip-1)" fill="none" fill-rule="nonzero" stroke="none" stroke-width="1" stroke-linecap="butt" stroke-linejoin="miter" stroke-miterlimit="10" stroke-dasharray="" stroke-dashoffset="0" font-family="none" font-weight="none" font-size="none" text-anchor="none" style="mix-blend-mode: normal"><g transform="translate(0,-1.391) scale(5.12,5.12)" fill="#000000"><path d="M34.42773,4.84961l-0.61719,0.11914l-12,2.30859l-0.16406,0.0332l-0.14648,0.08398l-18,10.38867l-0.5,0.28906v0.57813v2.31055v1.21094l1.18945,-0.23047l2.81055,-0.54297v8.2207l-3.5,2.02148l-0.5,0.28711v0.57813v2.30859v0.57617l0.5,0.28906l21,12.125l0.5,0.28906l0.5,-0.28906l21,-12.125l0.5,-0.28906v-0.57617v-2.30859v-0.57812l-0.5,-0.28906l-3.5,-2.01953v-2.31055l3.5,-2.02344l0.5,-0.28906v-0.57617v-2.31055v-0.33008l-0.19727,-0.26562l-12,-16.16016zM33.93164,6.27734l11.69922,15.75586l-17.5625,10.14453l-11.70117,-15.76172zM32.5918,6.47461l-16.67969,9.62695l-10.49805,2.02148l16.67383,-9.625zM15.89258,16.61523l11.85742,15.97266v1.46875l-11.54883,-15.55664c-0.04548,-0.0617 -0.11675,-0.09914 -0.19336,-0.10156c-0.01839,-0.00006 -0.03673,0.0019 -0.05469,0.00586l-7.98633,1.53516l-0.01367,0.00195l-3.70312,0.7168v-1.80273zM15.89258,18.92383l6.85742,9.23828v12.57617l-12.5,-7.2207v-13.50977zM9.75,20.10352v13.125l-1.5,-0.86719v-2.1543c0.00009,-0.00391 0.00009,-0.00781 0,-0.01172v-9.80273zM45.75,22.54297v1.73242l-3.875,2.24023c-0.00739,0.00419 -0.01456,0.00875 -0.02148,0.01367l-13.60352,7.85156v-1.73047zM13.98047,24.17383c-0.13039,0.01023 -0.23086,0.11921 -0.23047,0.25v4.61719c-0.0001,0.08942 0.04756,0.17208 0.125,0.2168l3.875,2.23828v1.73047l-3.625,-2.0918c-0.0774,-0.04467 -0.17275,-0.04463 -0.25011,0.00009c-0.07736,0.04473 -0.12498,0.12734 -0.12489,0.2167v1.1543c-0.0001,0.08942 0.04756,0.17208 0.125,0.2168l1.875,1.08203v1.00977c-0.0001,0.08942 0.04756,0.17208 0.125,0.2168l1,0.57813c0.0774,0.04467 0.17275,0.04463 0.25011,-0.00009c0.07736,-0.04473 0.12498,-0.12734 0.12489,-0.2167v-0.7207l1.625,0.9375c0.0774,0.04467 0.17275,0.04463 0.25011,-0.00009c0.07736,-0.04473 0.12498,-0.12734 0.12489,-0.2167v-4.61914c0.0001,-0.08942 -0.04756,-0.17208 -0.125,-0.2168l-3.875,-2.23633v-1.73242l3.625,2.0918c0.0771,0.0445 0.17203,0.04465 0.24927,0.0004c0.07724,-0.04425 0.12512,-0.12623 0.12573,-0.21524v-1.15625c0.0001,-0.08942 -0.04756,-0.17208 -0.125,-0.2168l-1.875,-1.08203v-1.00977c0.0001,-0.08942 -0.04756,-0.17208 -0.125,-0.2168l-1,-0.57617c-0.0774,-0.04467 -0.17275,-0.04463 -0.25011,0.00009c-0.07736,0.04473 -0.12498,0.12734 -0.12489,0.2167v0.7207l-1.625,-0.9375c-0.04371,-0.02543 -0.0941,-0.03701 -0.14453,-0.0332zM14.25,24.85547l1.625,0.9375c0.0774,0.04467 0.17275,0.04463 0.25011,-0.00009c0.07736,-0.04473 0.12498,-0.12734 0.12489,-0.2167v-0.7207l0.5,0.28906v1.00977c-0.0001,0.08942 0.04756,0.17208 0.125,0.2168l1.875,1.08203v0.57813l-3.625,-2.0918c-0.0771,-0.0445 -0.17203,-0.04465 -0.24927,-0.0004c-0.07724,0.04425 -0.12512,0.12623 -0.12573,0.21524v2.31055c0.0006,0.08872 0.04817,0.17048 0.125,0.21484l3.875,2.23828v4.04102l-1.625,-0.9375c-0.0774,-0.04467 -0.17275,-0.04463 -0.25011,0.00009c-0.07736,0.04473 -0.12498,0.12734 -0.12489,0.2167v0.7207l-0.5,-0.28906v-1.00977c0.0001,-0.08942 -0.04756,-0.17208 -0.125,-0.2168l-1.875,-1.08203v-0.57617l3.625,2.0918c0.0774,0.04467 0.17275,0.04463 0.25011,-0.00009c0.07736,-0.04473 0.12498,-0.12734 0.12489,-0.2167v-2.30859c0.0001,-0.08942 -0.04756,-0.17208 -0.125,-0.2168l-3.875,-2.23828zM41.75,27.16602v3.0293v2.17383l-1.5,0.86523v-5.20312zM39.75,28.32031v5.20313l-12.5,7.2168v-6.51562l0.54883,0.74023c0.07605,0.10181 0.21637,0.13038 0.32617,0.06641zM23.25,28.83594l1.5,2.02148v11.03711l-1.5,-0.86719zM7.75,30.62891v1.87695c-0.0001,0.08942 0.04756,0.17208 0.125,0.2168l17,9.82227c0.07735,0.04465 0.17265,0.04465 0.25,0l17,-9.81445c0.07744,-0.04471 0.1251,-0.12738 0.125,-0.2168v-1.88477l3.25,1.87695l-20.5,11.83594l-20.5,-11.83594zM25.25,31.53125l1.5,2.02148v7.47656l-1.5,0.86523zM4.25,32.93945l20.5,11.83398v1.73242l-20.5,-11.83594zM45.75,32.93945v1.73047l-20.5,11.83594v-1.73242z"></path></g></g><g fill="#38da55" fill-rule="nonzero" stroke="none" stroke-width="1" stroke-linecap="butt" stroke-linejoin="miter" stroke-miterlimit="10" stroke-dasharray="" stroke-dashoffset="0" font-family="none" font-weight="none" font-size="none" text-anchor="none" style="mix-blend-mode: normal"><g transform="translate(160.28,165.28) scale(4.38857,4.38857)" id="overlay"><path d="M12,0h-10c-1.105,0 -2,0.895 -2,2v10c0,1.105 0.895,2 2,2h10c1.105,0 2,-0.895 2,-2v-10c0,-1.105 -0.895,-2 -2,-2zM12,4h-10v-2h10zM12,8h-2v-2h2zM8,8h-2v-2h2zM4,8h-2v-2h2zM8,12h-2v-2h2zM4,12h-2v-2h2z"></path></g></g></svg>