<svg xmlns="http://www.w3.org/2000/svg" xmlns:xlink="http://www.w3.org/1999/xlink" viewBox="0,0,255.99184,255.99184" width="200px" height="200px"><defs><clipPath id="clip-1"><path d="M0,255.99184v-255.99184h255.99184v255.99184zM204.96224,157.6c-5.71392,0 -10.38336,1.85344 -13.96224,4.1216c-3.57888,-2.26816 -8.24832,-4.1216 -13.96224,-4.1216c-14.88896,0 -26.99776,12.1088 -26.99776,26.99776c0,20.12672 26.25536,42.21952 31.51872,46.44864c0.0768,0.06144 0.15872,0.128 0.24064,0.18432c2.74432,2.0736 5.92896,3.16928 9.20064,3.16928c3.27168,0 6.45632,-1.09568 9.20064,-3.16928c0.08192,-0.06144 0.15872,-0.12288 0.24064,-0.18432c5.26336,-4.22912 31.51872,-26.32704 31.51872,-46.44864c0,-14.88896 -12.1088,-26.99776 -26.99776,-26.99776z" id="overlayBgMask" fill="none"></path></clipPath></defs><g fill="none" fill-rule="nonzero" stroke="#000000" stroke-width="5.12" stroke-linecap="butt" stroke-linejoin="miter" stroke-miterlimit="10" stroke-dasharray="" stroke-dashoffset="0" font-family="none" font-weight="none" font-size="none" text-anchor="none" style="mix-blend-mode: normal"><path d="M78.14361,252.6267c-41.29901,0 -74.77847,-33.47946 -74.77847,-74.77847v-99.70462c0,-41.29901 33.47946,-74.77847 74.77847,-74.77847h99.70462c41.29901,0 74.77847,33.47946 74.77847,74.77847v99.70462c0,41.29901 -33.47946,74.77847 -74.77847,74.77847z" id="shape"></path></g><g clip-path="url(#clip-1)" fill="none" fill-rule="nonzero" stroke="none" stroke-width="1" stroke-linecap="butt" stroke-linejoin="miter" stroke-miterlimit="10" stroke-dasharray="" stroke-dashoffset="0" font-family="none" font-weight="none" font-size="none" text-anchor="none" style="mix-blend-mode: normal"><g transform="scale(5.12,5.12)" fill="#000000"><path d="M25,1.90625l-0.5,0.28906l-5,2.88672l-0.32227,0.18555l-0.12305,0.35156l-1,2.88867l-0.17188,0.49805l0.24609,0.33203l-8.62891,4.98047l-0.5,0.28906v0.57813v12.70117v0.26758l0.13477,0.23242l7,12.125l0.13281,0.23047l0.23242,0.13477l11,6.35156l0.5,0.28906l0.5,-0.28906l12,-6.92773l0.5,-0.28906v-0.57812v-12.70117v-0.26758l-0.13477,-0.23242l-7,-12.125l-0.13281,-0.23047l-0.23242,-0.13476l-3.42773,-1.97852l1.73047,-2.33203l0.31445,-0.42383l-0.17188,-0.5l-1,-2.88672l-0.12305,-0.35156l-0.32227,-0.18945l-5,-2.88672zM25,3.34961l4.5,2.59766l-4.5,2.59766l-4.5,-2.59766zM20.13672,6.31445l4.61328,2.66406v2.88672l-5.44531,-3.14453zM29.86328,6.31445l0.83203,2.40625l-5.44531,3.14453v-2.88672zM30.08008,9.65234l-1.6582,2.23828l-0.00977,0.01172c-0.00477,0.00502 -0.00933,0.01023 -0.01367,0.01563v0.00195l-0.56836,0.76563l-2.58008,1.48828v-1.73242zM19.92188,9.65625l4.82813,2.78516v1.73242l-2.58008,-1.48828zM19.53125,9.9707l2.26758,3.05469c0.02061,0.02709 0.04653,0.04969 0.07617,0.06641l2.96875,1.71484c0.08977,0.07061 0.21598,0.07142 0.30664,0.00195l2.97461,-1.7168c0.02965,-0.01672 0.05557,-0.03932 0.07617,-0.06641l0.4668,-0.62891l3.83008,2.21094l-4.49805,2.59766l-10.5,-6.06055zM17,11.43359l10.81641,6.24414l6.93359,12.00781v12.49023l-6.75,3.89844l-10.81641,-6.24609l-6.93359,-12.00781v-12.49023zM17.98047,13.78125c-0.03719,0.00306 -0.07323,0.0144 -0.10547,0.0332l-0.98437,0.56836c-0.0053,0.00242 -0.01051,0.00503 -0.01562,0.00781c-0.00739,0.00419 -0.01456,0.00875 -0.02148,0.01367l-4.97852,2.87305c-0.07744,0.04471 -0.1251,0.12738 -0.125,0.2168v10.35352c-0.01069,0.06689 0.00623,0.13526 0.04688,0.18945c0.00129,0.00132 0.00259,0.00262 0.00391,0.00391l5.9668,10.33594c0.02537,0.06095 0.07381,0.1094 0.13477,0.13477l8.97266,5.17969c0.07735,0.04465 0.17265,0.04465 0.25,0l4.98828,-2.88086h0.00195c0.0033,-0.00188 0.00656,-0.00383 0.00977,-0.00586c0.00739,-0.00419 0.01456,-0.00875 0.02148,-0.01367l0.97852,-0.5625c0.07744,-0.04471 0.1251,-0.12738 0.125,-0.2168v-10.39258c0.00009,-0.04386 -0.01136,-0.08697 -0.0332,-0.125l-6,-10.39258c-0.02198,-0.03815 -0.05365,-0.06981 -0.0918,-0.0918l-9,-5.19531c-0.04371,-0.02543 -0.0941,-0.03701 -0.14453,-0.0332zM32.9082,14.94922l6.75,11.69141l-4.56641,2.63672l-6.75,-11.69141zM16.75,15.04102v9.81445l-4.5,2.59766v-9.81445zM18,15.18555l8.26758,4.77148l5.73242,9.92969v9.54688l-8.26758,-4.77344l-5.73242,-9.92773zM16.9082,25.3418l5.75,9.95898l-4.56641,2.63672l-5.75,-9.95898zM39.75,27.16602v12.12305l-4.5,2.59766v-12.12305zM23,35.68164l8.5,4.90625l-4.5,2.59766l-8.49805,-4.90625z"></path></g></g><g fill="#38da55" fill-rule="nonzero" stroke="none" stroke-width="1" stroke-linecap="butt" stroke-linejoin="miter" stroke-miterlimit="10" stroke-dasharray="" stroke-dashoffset="0" font-family="none" font-weight="none" font-size="none" text-anchor="none" style="mix-blend-mode: normal"><g transform="translate(160.28,167.84) scale(5.12,5.12)" id="overlay"><path d="M12,3.273c0,3.17 -5.408,7.512 -5.408,7.512c-0.168,0.126 -0.366,0.215 -0.592,0.215c-0.226,0 -0.424,-0.089 -0.592,-0.215c0,0 -5.408,-4.342 -5.408,-7.512c0,-1.808 1.465,-3.273 3.273,-3.273c1.727,0 2.727,1.5 2.727,1.5c0,0 1,-1.5 2.727,-1.5c1.808,0 3.273,1.465 3.273,3.273z"></path></g></g></svg>