<svg xmlns="http://www.w3.org/2000/svg" xmlns:xlink="http://www.w3.org/1999/xlink" viewBox="0,0,255.99184,255.99184" width="200px" height="200px"><defs><clipPath id="clip-1"><path d="M0,255.99184v-255.99184h255.99184v255.99184zM217.34069,184.60288c-2.69312,-9.32181 -11.15819,-15.90955 -21.22069,-15.90955c-7.7824,0 -14.87872,4.11307 -18.85184,10.5984c-5.81973,1.21515 -10.56085,5.40331 -12.55765,10.89877c-6.56043,2.38251 -11.25717,8.67669 -11.25717,16.04949c0,9.41056 7.65611,17.06667 17.06667,17.06667h37.54667c11.29131,0 20.48,-9.18869 20.48,-20.48c0,-7.8336 -4.43392,-14.80021 -11.20597,-18.22379z" id="overlayBgMask" fill="none"></path></clipPath></defs><g fill="none" fill-rule="nonzero" stroke="#000000" stroke-width="5.12" stroke-linecap="butt" stroke-linejoin="miter" stroke-miterlimit="10" stroke-dasharray="" stroke-dashoffset="0" font-family="none" font-weight="none" font-size="none" text-anchor="none" style="mix-blend-mode: normal"><path d="M78.14361,252.6267c-41.29901,0 -74.77847,-33.47946 -74.77847,-74.77847v-99.70462c0,-41.29901 33.47946,-74.77847 74.77847,-74.77847h99.70462c41.29901,0 74.77847,33.47946 74.77847,74.77847v99.70462c0,41.29901 -33.47946,74.77847 -74.77847,74.77847z" id="shape"></path></g><g clip-path="url(#clip-1)" fill="none" fill-rule="nonzero" stroke="none" stroke-width="1" stroke-linecap="butt" stroke-linejoin="miter" stroke-miterlimit="10" stroke-dasharray="" stroke-dashoffset="0" font-family="none" font-weight="none" font-size="none" text-anchor="none" style="mix-blend-mode: normal"><g transform="scale(5.12,5.12)" fill="#000000"><path d="M37,7.67383l-0.50195,0.29102l-3,1.74023l-0.29883,0.17383l-0.12695,0.31836l-0.45117,1.125l-2.01172,-1.54688l-0.53125,-0.40625l-0.57812,0.33398l-3,1.73047l-0.5,0.28906v0.57813v2.30859v0.16992l0.05469,0.1582l0.72852,2.09961l-7.41406,4.29102l-9.75977,-7.50977l-0.5293,-0.4082l-0.58008,0.33399l-4,2.31055l-0.5,0.28906v0.57617v2.31055v0.3125l0.17773,0.25781l5.0918,7.34766l-1.77148,1.02734l-0.23047,0.13281l-0.13281,0.23047l-4,6.93164l-0.13477,0.23047v0.26953v3.45898v0.57812l0.5,0.28906l4,2.30859l0.41406,0.24023l0.44531,-0.17187l6,-2.31055l0.07422,-0.02734l0.06641,-0.03906l7.51953,-4.33398l16.75586,3.87109l0.38477,0.08984l0.3418,-0.19727l4,-2.31055l0.5,-0.28906v-0.57617v-2.31055v-0.6582l-0.60352,-0.25977l-9.60352,-4.16016l0.70508,-0.40625l0.14648,-0.08398l0.11133,-0.12695l3.75195,-4.33789l4.34766,0.63281l0.34375,0.04883l0.30078,-0.17383l3,-1.74023l0.49805,-0.28906v-0.57617v-2.30859v-0.6582l-0.60352,-0.25977l-7.28906,-3.15234l0.87891,-5.58398l0.10742,-0.67773l-0.5918,-0.34375l-2,-1.16016zM37,9.11914l1.5,0.87109l-2.5,1.44141l-1.50195,-0.86328zM38.67188,10.46875l-0.89844,5.71289l-4.27344,2.4668l2.70117,-6.75391zM29.98047,10.86914l2.77734,2.13476l-1.99023,4.97461c-0.04679,0.11582 -0.00093,0.2484 0.10742,0.31055l1.9668,1.13477c0.00065,0.00065 0.0013,0.00131 0.00195,0.00195c0.0708,0.05463 0.16538,0.06729 0.24805,0.0332c0.01716,-0.00664 0.03354,-0.01516 0.04883,-0.02539c0.00197,-0.00127 0.00392,-0.00258 0.00586,-0.00391l4.86914,-2.81055l7.42969,3.21484l-2.49609,1.44141l-7.87305,-1.13672c-0.02588,-0.00823 -0.05293,-0.01219 -0.08008,-0.01172c-0.05885,0.0007 -0.11556,0.02214 -0.16016,0.06055l-20.83594,12.0293l-5.5,-3.17773l2.30469,-1.33594c0.0053,-0.00242 0.01051,-0.00503 0.01562,-0.00781l0.00586,-0.00391c0.00263,-0.00126 0.00523,-0.00256 0.00781,-0.00391l0.00195,-0.00195l1.0918,-0.62695c0.03891,-0.01149 0.07443,-0.03227 0.10352,-0.06055l7.36523,-4.24219c0.00131,-0.00064 0.00261,-0.00129 0.00391,-0.00195l0.01367,-0.00781c0.00735,-0.00355 0.01452,-0.00746 0.02148,-0.01172l8.67773,-5.02148h0.00195c0.0033,-0.00188 0.00656,-0.00383 0.00977,-0.00586c0.00739,-0.00419 0.01456,-0.00875 0.02148,-0.01367l0.97852,-0.55859c0.10991,-0.06383 0.15445,-0.19996 0.10352,-0.31641l-1.91016,-4.41211zM34.125,10.92969l1.5625,0.90039l-2.8125,7.03516l-1.5625,-0.90234l1.97266,-4.93164l0.00391,-0.00586c0.0014,-0.00387 0.0027,-0.00778 0.00391,-0.01172zM27.25,13.50391l1.43164,3.30664l-0.54492,0.3125l-0.88672,-2.55469zM8.98047,14.91016l9.85938,7.58984l-6.91211,3.98047l-6.56836,-9.47852zM5.25,17.7207l6.24414,9.00977l-0.70899,0.4082l-5.53516,-7.98633zM45.75,20.23242v1.73438l-2.5,1.44922v-1.73633zM35.25,20.66992l7.5,1.08203v1.80859l-4.56836,-0.66211c-0.01156,-0.00279 -0.02331,-0.00475 -0.03516,-0.00586l-2.89648,-0.41797zM34.75,20.81445v1.87695c0.00072,0.12394 0.09213,0.22866 0.21484,0.24609l2.6582,0.38281l-3.78516,4.375l-2.2832,1.31641l-4.45508,-1.93164c-0.03077,-0.01366 -0.06399,-0.02097 -0.09766,-0.02148c-0.04452,-0.00043 -0.08835,0.01103 -0.12695,0.0332l-7.98242,4.60938c-0.00196,0.00063 -0.00391,0.00128 -0.00586,0.00195l-0.01172,0.00781c-0.09318,0.05169 -0.14336,0.15676 -0.125,0.26172v2.26563c-0.00029,0.11649 0.0799,0.21774 0.19336,0.24414l2.24023,0.51953l-6.93359,3.99609v-6.34766zM27.01563,27.58789l4.45508,1.93164c0.00764,0.00365 0.01547,0.00691 0.02344,0.00977l10.95117,4.74219l-3.48437,2.00977l-19.28516,-4.45508zM8.0918,29.38086l5.49609,3.17578l-2.625,2.52539l-4.62109,-2.66797zM19.25,32.24219l19.5,4.50391v1.79883l-16.82227,-3.88477c-0.00387,-0.0014 -0.00778,-0.0027 -0.01172,-0.00391l-2.66602,-0.61719zM6.0918,32.84766l4.49609,2.5957l-2.625,2.52539l-3.62109,-2.08984zM13.75,33.09375v6.16406l-5.5,2.11719v-1.79687l4.875,-2.81445c0.07744,-0.04471 0.1251,-0.12738 0.125,-0.2168v-2.30859c0.00009,-0.08936 -0.04752,-0.17198 -0.12489,-0.2167c-0.07736,-0.04473 -0.17272,-0.04476 -0.25011,-0.00009l-0.22266,0.12891zM12.75,34.67188v1.73047l-4.5,2.59766v-0.61523l2.90234,-2.79102zM42.75,34.67383v1.73242l-3.5,2.02148v-1.73633zM4.25,36.40234l3.5,2.02148v0.57617l-3.5,-2.01953zM4.25,37.55664l3.5,2.02148v1.72852l-3.5,-2.02148z"></path></g></g><g fill="#38da55" fill-rule="nonzero" stroke="none" stroke-width="1" stroke-linecap="butt" stroke-linejoin="miter" stroke-miterlimit="10" stroke-dasharray="" stroke-dashoffset="0" font-family="none" font-weight="none" font-size="none" text-anchor="none" style="mix-blend-mode: normal"><g transform="translate(160.28,175.52) scale(3.41333,3.41333)" id="overlay"><path d="M18,8c0,2.209 -1.791,4 -4,4h-11c-1.657,0 -3,-1.343 -3,-3c0,-1.657 1.343,-3 3,-3c0,-1.657 1.343,-3 3,-3c0.091,0 0.178,0.019 0.267,0.027c0.613,-1.758 2.267,-3.027 4.233,-3.027c2.359,0 4.271,1.821 4.463,4.13c1.741,0.433 3.037,1.995 3.037,3.87z"></path></g></g></svg>