<svg xmlns="http://www.w3.org/2000/svg" xmlns:xlink="http://www.w3.org/1999/xlink" viewBox="0,0,255.99184,255.99184" width="200px" height="200px"><defs><clipPath id="clip-1"><path d="M-11.13008,267.12192v-278.252h278.252v278.252zM227.92544,189.79456l-30.72,-30.72c-1.71154,-1.71593 -3.95849,-2.5717 -6.20544,-2.5717c-2.24695,0 -4.4939,0.85577 -6.20544,2.5717l-30.72,30.72c-3.42747,3.42747 -3.42747,8.98341 0,12.41088l30.72,30.72c1.71154,1.71593 3.95849,2.5717 6.20544,2.5717c2.24695,0 4.4939,-0.85577 6.20544,-2.5717l30.72,-30.72c3.42747,-3.42747 3.42747,-8.98341 0,-12.41088z" id="overlayBgMask" fill="none"></path></clipPath></defs><g transform="translate(10.23967,10.23967) scale(0.92,0.92)"><g fill="none" fill-rule="nonzero" stroke="#000000" stroke-width="5.12" stroke-linecap="butt" stroke-linejoin="miter" stroke-miterlimit="10" stroke-dasharray="" stroke-dashoffset="0" font-family="none" font-weight="none" font-size="none" text-anchor="none" style="mix-blend-mode: normal"><path d="M73.69441,263.74969c-44.98484,0 -81.45226,-36.46742 -81.45226,-81.45226v-108.60301c0,-44.98484 36.46742,-81.45226 81.45226,-81.45226h108.60301c44.98484,0 81.45226,36.46742 81.45226,81.45226v108.60301c0,44.98484 -36.46742,81.45226 -81.45226,81.45226z" id="shape"></path></g><g clip-path="url(#clip-1)" fill="none" fill-rule="nonzero" stroke="none" stroke-width="1" stroke-linecap="butt" stroke-linejoin="miter" stroke-miterlimit="10" stroke-dasharray="" stroke-dashoffset="0" font-family="none" font-weight="none" font-size="none" text-anchor="none" style="mix-blend-mode: normal"><g transform="scale(5.12,5.12)" fill="#000000"><path d="M20.8418,10.08008l-0.3418,0.19727l-20,11.54688l-0.5,0.28906v0.57617v2.31055v0.79492l0.77539,0.17969l9.68164,2.23633l7.78711,8.99023l0.21289,0.24609l0.31836,0.07227l10,2.30859l0.38281,0.08984l0.3418,-0.19727l20,-11.54687l0.5,-0.28906v-0.57617v-2.3125v-0.79687l-0.77539,-0.17773l-9.22461,-2.12695v-3.82227v-0.26758l-0.13477,-0.23242l-2,-3.46484l-0.13281,-0.23047l-0.23242,-0.13476l-4,-2.30859l-0.5,-0.28906l-0.5,0.28906l-1.6582,0.95703l-9.61719,-2.2207zM21.03906,11.41016l9.28516,2.14453l-1.41016,0.81445c-0.02855,0.01012 -0.05502,0.02534 -0.07812,0.04492l-17.875,10.32031l-9.28516,-2.14453zM33,12.58594l3.49805,2.02148l-1.49805,0.86523l-3.5,-2.01953zM31,13.74219l3.81641,2.20312l1.93359,3.34766v4.47461l-3.6875,5.32227l-0.91992,-2.39062c-0.00286,-0.00797 -0.00612,-0.0158 -0.00977,-0.02344l-2.88281,-7.49609v-4.42773zM36.9082,14.94922l0.875,1.51563l0.875,1.51563l-1.56641,0.9043l-1.75,-3.03125zM28.75,15.04102v4.18555c0.00028,0.03077 0.00624,0.06123 0.01758,0.08984l2.83203,7.35742l-12.54687,7.24414l-7.66406,-8.85352zM31.98047,16.08984c-0.03719,0.00306 -0.07323,0.0144 -0.10547,0.0332l-1,0.57813c-0.07744,0.04471 -0.1251,0.12738 -0.125,0.2168v2.30859c-0.00012,0.00456 -0.00012,0.00912 0,0.01367c0.00056,0.00392 0.00121,0.00783 0.00195,0.01172c0.00102,0.0125 0.00298,0.0249 0.00586,0.03711c0.00121,0.00394 0.00251,0.00785 0.00391,0.01172c0.00121,0.00394 0.00251,0.00785 0.00391,0.01172c0.00233,0.00662 0.00494,0.01313 0.00781,0.01953c0.00064,0.00131 0.00129,0.00261 0.00195,0.00391c0.00188,0.0033 0.00383,0.00655 0.00586,0.00977c0.00063,0.00196 0.00128,0.00391 0.00195,0.00586l1,1.73242c0.02089,0.03599 0.05042,0.0662 0.08594,0.08789c0.00193,0.00133 0.00389,0.00263 0.00586,0.00391l0.00391,0.00195c0.00509,0.00345 0.0103,0.0067 0.01563,0.00977l1.98047,1.14258c0.07735,0.04465 0.17265,0.04465 0.25,0l1,-0.57812c0.07744,-0.04471 0.1251,-0.12738 0.125,-0.2168v-1.13086c0.00043,-0.00846 0.00043,-0.01693 0,-0.02539v-1.15234c0.00009,-0.04386 -0.01136,-0.08697 -0.0332,-0.125l-1,-1.73242c-0.02198,-0.03815 -0.05365,-0.06981 -0.0918,-0.0918l-0.9668,-0.55664c-0.01998,-0.01637 -0.04239,-0.02955 -0.06641,-0.03906l-0.9668,-0.55859c-0.04371,-0.02543 -0.0941,-0.03701 -0.14453,-0.0332zM32,16.62891l0.75,0.43359v0.86523l-1.5,0.86523v-1.73242zM33.25,17.35156l0.56641,0.32617l0.93359,1.61523v0.6543l-0.54102,-0.31055c-0.00065,-0.00065 -0.0013,-0.00131 -0.00195,-0.00195c-0.01052,-0.01286 -0.0223,-0.02464 -0.03516,-0.03516l-0.92187,-1.59375zM32.9082,18.41406l0.75,1.29883l-1.56641,0.9043l-0.75,-1.29883zM38.75,18.50586v4.04102l-1.5,0.86523v-4.04102zM33.99805,20.0918l0.75195,0.43359v0.86719l-0.75,0.43164l-1.5,-0.86523zM39.10742,22.97266l5.2832,1.21875l3.93359,0.9082l-19.36328,11.18164l-9.28711,-2.14258l12.10742,-6.99023l0.96289,2.50195c0.00823,0.09388 0.06855,0.17516 0.15602,0.21023c0.08747,0.03507 0.18723,0.01798 0.25804,-0.04421l1.9668,-1.13672c0.03183,-0.01854 0.05918,-0.04388 0.08008,-0.07422zM1.25,23.00586l9.61523,2.21875l7.92578,9.15625c0.03456,0.04958 0.0859,0.08497 0.14453,0.09961c0.0013,0.00066 0.0026,0.00131 0.00391,0.00195c0.0013,0.00001 0.0026,0.00001 0.00391,0c0.00707,0.00227 0.01424,0.00423 0.02148,0.00586h0.00586l9.97266,2.30273c0.06182,0.01426 0.12676,0.00449 0.18164,-0.02734l19.625,-11.33203v1.73242l-19.78906,11.42578l-9.82617,-2.26758l-7.94531,-9.17773c-0.03466,-0.0401 -0.08117,-0.06814 -0.13281,-0.08008l-9.80664,-2.26172zM38.16016,23.46484l-3.33398,4.81055l-0.98437,0.56836l3.33008,-4.80859z"></path></g></g><g fill="#38da55" fill-rule="nonzero" stroke="none" stroke-width="1" stroke-linecap="butt" stroke-linejoin="miter" stroke-miterlimit="10" stroke-dasharray="" stroke-dashoffset="0" font-family="none" font-weight="none" font-size="none" text-anchor="none" style="mix-blend-mode: normal"><g transform="translate(160.28,165.28) scale(4.38857,4.38857)" id="overlay"><path d="M11,10v-2h-3v3h2l-3,3l-3,-3h2v-3h-3v2l-3,-3l3,-3v2h3v-3h-2l3,-3l3,3h-2v3h3v-2l3,3z"></path></g></g></g></svg>