<svg xmlns="http://www.w3.org/2000/svg" xmlns:xlink="http://www.w3.org/1999/xlink" viewBox="0,0,255.99184,255.99184" width="200px" height="200px"><defs><clipPath id="clip-1"><path d="M0,255.99184v-255.99184h255.99184v255.99184zM219.77147,161.63749c-0.54857,-0.17993 -15.72864,-5.13463 -28.77147,-5.13463c-13.04283,0 -28.2229,4.9547 -28.86363,5.16535c-6.32393,2.00558 -10.63351,7.87749 -10.63351,14.58322v12.06857c0,31.85225 32.2955,45.46121 33.66912,46.02295c1.86075,0.76361 3.82245,1.15419 5.82802,1.15419c2.00558,0 3.96727,-0.39058 5.83241,-1.15419c1.36923,-0.56174 33.66473,-14.1707 33.66473,-46.02295v-12.06857c0,-6.70574 -4.30958,-12.57765 -10.72567,-14.61394z" id="overlayBgMask" fill="none"></path></clipPath></defs><g fill="none" fill-rule="nonzero" stroke="#000000" stroke-width="5.12" stroke-linecap="butt" stroke-linejoin="miter" stroke-miterlimit="10" stroke-dasharray="" stroke-dashoffset="0" font-family="none" font-weight="none" font-size="none" text-anchor="none" style="mix-blend-mode: normal"><path d="M78.14361,252.6267c-41.29901,0 -74.77847,-33.47946 -74.77847,-74.77847v-99.70462c0,-41.29901 33.47946,-74.77847 74.77847,-74.77847h99.70462c41.29901,0 74.77847,33.47946 74.77847,74.77847v99.70462c0,41.29901 -33.47946,74.77847 -74.77847,74.77847z" id="shape"></path></g><g clip-path="url(#clip-1)" fill="none" fill-rule="nonzero" stroke="none" stroke-width="1" stroke-linecap="butt" stroke-linejoin="miter" stroke-miterlimit="10" stroke-dasharray="" stroke-dashoffset="0" font-family="none" font-weight="none" font-size="none" text-anchor="none" style="mix-blend-mode: normal"><g transform="scale(5.12,5.12)" fill="#000000"><path d="M25,3.06641l-0.49805,0.28711l-2,1.15039l-0.50195,0.28711v0.57813v1.55273l-3.77148,0.31641l-4.72852,-2.73437l-0.49805,-0.28711l-0.5,0.28711l-2,1.14844l-0.50195,0.28906v0.57813v2.31055v0.57617l0.49805,0.28906l1.26172,0.73242l-3.56641,9.26367l-4.69336,2.71289l-0.79687,0.46094l0.39258,0.83203l3,6.34961l0.13281,0.2832l0.27148,0.15625l8,4.61914l0.5,0.28906l0.5,-0.28906l9,-5.19922l0.26953,-0.15625l0.13281,-0.28125l3,-6.35156l0.39453,-0.83203l-0.79687,-0.46094l-6.46094,-3.73242l-1.50586,-5.66211l3.23633,-0.26758l1.54102,0.89453l6.5625,9.19727l-3.67969,9.56641l-4.69336,2.70313l-0.79883,0.45898l0.39453,0.83398l3,6.35156l0.13281,0.28125l0.26953,0.15625l8,4.62109l0.5,0.28906l0.5,-0.28906l9,-5.18945l0.27148,-0.15625l0.13477,-0.2832l3,-6.35937l0.39258,-0.83398l-0.79883,-0.45898l-6.45898,-3.72266l-1.3457,-5.04492l0.80273,-0.45898l0.50391,-0.28906v-0.58008v-2.31055v-0.57617l-0.5,-0.28906l-4.8125,-2.78125l-6.6875,-9.38281v-3.14062v-0.57812l-0.50195,-0.28711l-2,-1.15039zM25,4.50781l1.5,0.86328l-1.5,0.86523l-1.5,-0.86523zM13,5.6582l4.5,2.60156l-1.50195,0.86328l-4.49805,-2.60352zM23.25,5.80273l1.5,0.86719v3.28125c-0.01278,0.07937 0.01338,0.16004 0.07031,0.2168l6.95117,9.74414l0.00391,0.00586c0.02835,0.05801 0.07804,0.1028 0.13867,0.125c0.00065,0 0.0013,0 0.00195,0l4.83398,2.79297v1.73047l-1.58398,-0.91602c-0.02453,-0.02161 -0.05307,-0.0382 -0.08398,-0.04883h-0.00195l-2.91016,-1.68359l-6.9668,-9.76367c-0.02077,-0.02871 -0.0474,-0.05268 -0.07812,-0.07031l-2,-1.16016c-0.04371,-0.02543 -0.0941,-0.03701 -0.14453,-0.0332l-4.7168,0.38867h-0.00195c-0.00784,0.00028 -0.01566,0.00093 -0.02344,0.00195l-2.18164,0.18359l-2.92578,-1.6875l-0.00586,-0.00391c-0.00697,-0.00425 -0.01414,-0.00817 -0.02148,-0.01172l-1.85352,-1.07617v-1.73242l4.58984,2.6543c0.02399,0.0184 0.05112,0.0323 0.08008,0.04102c0.04077,0.01416 0.0845,0.01752 0.12695,0.00977l6.97461,-0.57422c0.12961,-0.01119 0.22899,-0.11991 0.22852,-0.25v-0.97266v-0.02148c0.00043,-0.00846 0.00043,-0.01693 0,-0.02539zM26.75,5.80273v2.88281l-1.5,0.87109v-2.88672zM22.75,8.11328v0.49023l-5.6582,0.4668l0.98242,-0.56445zM26.92969,9.16016l6.70703,9.41016l-1.56445,0.9043l-6.70898,-9.4082zM13.12695,10.35352l2.6582,1.53125l3.81641,14.32812l-1.38672,-0.80078l-0.33398,-1.25c-0.00151,-0.00856 -0.00347,-0.01703 -0.00586,-0.02539l-2.0332,-7.62891c0,-0.00065 0,-0.0013 0,-0.00195l-0.46094,-1.74023c-0.00222,-0.00794 -0.00482,-0.01576 -0.00781,-0.02344c-0.00126,-0.00263 -0.00256,-0.00523 -0.00391,-0.00781l-0.62695,-2.35547c-0.02807,-0.10444 -0.12011,-0.17899 -0.2281,-0.18477c-0.10799,-0.00578 -0.20746,0.05853 -0.24651,0.15938l-3.39648,8.82031l-1.5625,-0.90234zM18.07227,11.79688l1.86523,7.01758l1.77148,6.64258l-1.55078,0.89453l-3.83984,-14.40625zM14.45508,13.25195l0.41992,1.57031l-0.95898,2.47461c-0.00365,0.00764 -0.00691,0.01546 -0.00977,0.02344c-0.00299,0.00768 -0.0056,0.0155 -0.00781,0.02344l-1.10156,2.86523l-1.31055,0.75586zM15.44141,16.94922l0.40039,1.50195l-2.35352,1.35938l0.85352,-2.22656zM34,18.93945l4.5,2.59961l-1.5,0.86328l-4.5,-2.59766zM15.75,19.08203v4.04102l-3.74805,2.16602l-3.50195,-2.02148l2.61523,-1.51172c0.00735,-0.00355 0.01452,-0.00746 0.02149,-0.01172l1.95898,-1.13086c0.01937,-0.00746 0.03775,-0.0173 0.05469,-0.0293l0.00391,-0.00391zM20.57813,19.26953l5.92188,3.41992l-4.3418,2.50781zM16.25,19.98438l0.98828,3.70898l-0.98828,-0.57031zM9,20.66797l1.5,0.86719l-2.625,1.51563c-0.07762,0.04459 -0.12548,0.12728 -0.12548,0.2168c0,0.08952 0.04786,0.17221 0.12548,0.2168l3.96484,2.28906c0.01951,0.01551 0.04124,0.02802 0.06445,0.03711l2.9707,1.71484c0.07735,0.04465 0.17265,0.04465 0.25,0l2.875,-1.66016l1.5,0.86719l-4.5,2.59766l-10.5,-6.06055zM38.75,21.97266v1.73242l-1.32422,0.75781l-0.01953,0.00977c-0.00065,0.00065 -0.00131,0.0013 -0.00195,0.00195c-0.00668,0.00361 -0.0132,0.00752 -0.01953,0.01172l-0.13477,0.07813v-1.72852zM32.12695,22.47266l2.6582,1.53516l3.81836,14.32617l-1.38867,-0.80078l-0.3125,-1.17578c0.00313,-0.05388 -0.01126,-0.10732 -0.04102,-0.15234l-3.11914,-11.70703c-0.02807,-0.10444 -0.12011,-0.17899 -0.2281,-0.18477c-0.10799,-0.00578 -0.20746,0.05853 -0.24651,0.15938l-3.39453,8.82031l-1.56055,-0.90234zM26.43359,23.30469l-2.62695,5.55859l-8.55664,4.94336v-4.04297l4.8418,-2.79687c0.00263,-0.00126 0.00523,-0.00256 0.00781,-0.00391l0.01563,-0.00781c0.01021,-0.00581 0.02,-0.01234 0.0293,-0.01953l1.95117,-1.12695c0.01505,-0.00639 0.02945,-0.01424 0.04297,-0.02344zM16,23.55664l1.42188,0.82031l0.28711,1.08008l-2.70898,1.5625l-2.5,-1.44336zM4.56641,23.88477l10.18359,5.87891v4.04297l-7.55664,-4.36328zM35.39844,24.36328l1.44336,0.83398l0.00195,0.00195c0.09179,0.07255 0.22162,0.07174 0.3125,-0.00195l0.2168,-0.12695l1.56445,5.875c0.00312,0.01133 0.00704,0.02243 0.01172,0.0332l1.75977,6.59961l-1.55078,0.89453zM33.45508,25.37109l0.42188,1.58398l-0.95117,2.44531c-0.00065,0.00065 -0.00131,0.0013 -0.00195,0.00195c-0.00697,0.01249 -0.01285,0.02556 -0.01758,0.03906l-1.10937,2.88867l-1.31055,0.75586zM34.44336,29.07813l0.39844,1.49414l-2.35547,1.35938l0.84961,-2.2168zM34.75,31.20313v4.04102l-3.75,2.16406l-3.5,-2.01953l4.61328,-2.66406c0.00735,-0.00355 0.01452,-0.00746 0.02148,-0.01172zM39.58008,31.39844l5.91992,3.41211l-4.3418,2.50781zM35.25,32.10547l0.98828,3.70898l-0.98828,-0.57031zM28.00781,32.79297l1.49219,0.86328l-2.625,1.51563c-0.07762,0.04459 -0.12548,0.12728 -0.12548,0.2168c0,0.08952 0.04786,0.17221 0.12548,0.2168l3.97266,2.29297c0.00065,0.00065 0.0013,0.00131 0.00195,0.00195c0.01344,0.00988 0.02784,0.01838 0.04297,0.02539c0.00195,0.00068 0.0039,0.00133 0.00586,0.00195l2.97656,1.71875c0.07735,0.04465 0.17265,0.04465 0.25,0l2.875,-1.66016l1.5,0.86523l-4.5,2.59961l-10.5,-6.06055zM45.43359,35.42578l-2.62695,5.56641l-8.55664,4.93555v-4.04492l4.8418,-2.79687c0.00599,-0.00302 0.01185,-0.00628 0.01758,-0.00977l0.00586,-0.00195c0.00943,-0.00463 0.01857,-0.00985 0.02734,-0.01562l1.95313,-1.12891c0.01149,-0.00502 0.02259,-0.0109 0.0332,-0.01758l0.00977,-0.00586c0.00065,-0.00065 0.00131,-0.0013 0.00195,-0.00195zM35.00195,35.67578l1.41797,0.82031l0.28906,1.08008l-2.70898,1.56445l-2.5,-1.44336zM23.56641,36.00586l10.18359,5.87695v4.04492l-7.55664,-4.36523z"></path></g></g><g fill="#38da55" fill-rule="nonzero" stroke="none" stroke-width="1" stroke-linecap="butt" stroke-linejoin="miter" stroke-miterlimit="10" stroke-dasharray="" stroke-dashoffset="0" font-family="none" font-weight="none" font-size="none" text-anchor="none" style="mix-blend-mode: normal"><g transform="translate(160.28,165.28) scale(4.38857,4.38857)" id="overlay"><path d="M12.951,1.077c0,0 -3.266,-1.077 -5.951,-1.077c-2.685,0 -5.951,1.077 -5.951,1.077c-0.607,0.192 -1.049,0.753 -1.049,1.423v2.75c0,6 6.431,8.637 6.431,8.637c0.176,0.072 0.367,0.113 0.569,0.113c0.202,0 0.393,-0.041 0.569,-0.113c0,0 6.431,-2.637 6.431,-8.637v-2.75c0,-0.67 -0.442,-1.231 -1.049,-1.423z"></path></g></g></svg>