<svg xmlns="http://www.w3.org/2000/svg" xmlns:xlink="http://www.w3.org/1999/xlink" viewBox="0,0,255.99184,255.99184" width="200px" height="200px"><defs><clipPath id="clip-1"><path d="M0,255.99184v-255.99184h255.99184v255.99184zM191,156.50286c-21.81559,0 -39.49714,17.68155 -39.49714,39.49714c0,21.81559 17.68155,39.49714 39.49714,39.49714c21.81559,0 39.49714,-17.68155 39.49714,-39.49714c0,-21.81559 -17.68155,-39.49714 -39.49714,-39.49714z" id="overlayBgMask" fill="none"></path></clipPath></defs><g fill="none" fill-rule="nonzero" stroke="#000000" stroke-width="5.12" stroke-linecap="butt" stroke-linejoin="miter" stroke-miterlimit="10" stroke-dasharray="" stroke-dashoffset="0" font-family="none" font-weight="none" font-size="none" text-anchor="none" style="mix-blend-mode: normal"><path d="M78.14361,252.6267c-41.29901,0 -74.77847,-33.47946 -74.77847,-74.77847v-99.70462c0,-41.29901 33.47946,-74.77847 74.77847,-74.77847h99.70462c41.29901,0 74.77847,33.47946 74.77847,74.77847v99.70462c0,41.29901 -33.47946,74.77847 -74.77847,74.77847z" id="shape"></path></g><g clip-path="url(#clip-1)" fill="none" fill-rule="nonzero" stroke="none" stroke-width="1" stroke-linecap="butt" stroke-linejoin="miter" stroke-miterlimit="10" stroke-dasharray="" stroke-dashoffset="0" font-family="none" font-weight="none" font-size="none" text-anchor="none" style="mix-blend-mode: normal"><g transform="scale(5.12,5.12)" fill="#000000"><path d="M36.42383,4.91211l-0.50586,0.04102l-7,0.58008l-0.22461,0.01953l-0.19336,0.11133l-12,6.92969l-0.49609,0.28711l-0.00391,0.57422l-0.00977,2.31055v7.50781l-11.49023,6.63086l-0.86523,0.49805l0.49805,0.86523l0.86719,1.50781l-0.00977,5.50195l-0.00195,0.58008l0.50391,0.28906l3.00977,1.73047l0.50195,0.28711l0.49805,-0.28906l0.49805,-0.28906l1,0.58008v0.57422v0.57422l0.49609,0.28906l1.99023,1.16016l0.5,0.29297l0.50195,-0.29102l7.5,-4.33008l3.5,2.01953l0.5,0.28906l0.49805,-0.28711l0.50977,-0.29297l0.99219,0.57227v0.59375v0.57813l0.5,0.28906l3,1.73047l0.5,0.28711l0.5,-0.28906l12.00977,-6.93945l0.5,-0.28906v-0.57812v-21.93945v-0.37305l-0.24219,-0.28125l-8,-9.23047zM35.94727,6.26953l7.66406,8.8457l-11.56445,6.6875l-7.66016,-8.86133zM34.91211,6.29102l-10.98828,6.33984l-5.82812,0.48633l10.98047,-6.3418zM23.89453,13.13477l7.84766,9.07812v1.5293l-7.55273,-8.7207c-0.05242,-0.06087 -0.1309,-0.09284 -0.21094,-0.08594l-6.73633,0.5625l0.00781,-1.80859zM23.89453,15.44531l7.84766,9.0625l0.00195,19.12109l-2.50391,-1.44336v-1.00977h0.00195l0.00195,-4.62305c0.0001,-0.08942 -0.04756,-0.17208 -0.125,-0.2168l-3,-1.73242c-0.03631,-0.02087 -0.07727,-0.03229 -0.11914,-0.0332c-0.06731,-0.00157 -0.13241,0.02407 -0.18057,0.07113c-0.04816,0.04705 -0.0753,0.11154 -0.07529,0.17887l-0.00195,5.33789l-3.50195,-2.02148l0.00977,-5.63086c0.00009,-0.04386 -0.01136,-0.08697 -0.0332,-0.125l-4.97656,-8.59961v-7.78125zM43.75,15.61328v1.73633l-11.50781,6.64648v-1.73047zM43.75,17.92773v19.04883l-11.50586,6.64844l-0.00195,-19.05469zM19.97852,18.40039c-0.13039,0.01023 -0.23086,0.11921 -0.23047,0.25v2.31055c0.0006,0.08872 0.04817,0.17048 0.125,0.21484l3,1.73242c0.0774,0.04467 0.17275,0.04463 0.25011,-0.00009c0.07736,-0.04473 0.12498,-0.12734 0.12489,-0.2167v-2.30859c0.0001,-0.08942 -0.04756,-0.17208 -0.125,-0.2168l-3,-1.73242c-0.04371,-0.02543 -0.0941,-0.03701 -0.14453,-0.0332zM20.24805,19.08398l2.5,1.44141v1.73242l-2.5,-1.44141zM42.00781,20.69141c-0.0412,0.00124 -0.08146,0.01264 -0.11719,0.0332l-3,1.73242c-0.07744,0.04471 -0.1251,0.12738 -0.125,0.2168v2.30859c-0.00009,0.08936 0.04752,0.17198 0.12489,0.2167c0.07736,0.04473 0.17272,0.04476 0.25011,0.00009l3,-1.73242c0.07683,-0.04436 0.1244,-0.12612 0.125,-0.21484v-2.31055c0.00003,-0.06768 -0.02739,-0.13248 -0.07597,-0.17959c-0.04859,-0.04711 -0.1142,-0.07252 -0.18184,-0.07041zM41.76563,21.375v1.73242l-2.5,1.44141v-1.73047zM25.98047,21.86328c-0.13039,0.01023 -0.23086,0.11921 -0.23047,0.25v2.31055c0.0006,0.08872 0.04817,0.17048 0.125,0.21484l3,1.73242c0.0774,0.04467 0.17275,0.04463 0.25011,-0.00009c0.07736,-0.04473 0.12498,-0.12734 0.12489,-0.2167v-2.30859c0.0001,-0.08942 -0.04756,-0.17208 -0.125,-0.2168l-3,-1.73242c-0.04371,-0.02543 -0.0941,-0.03701 -0.14453,-0.0332zM26.25,22.54688l2.5,1.44336v1.73242l-2.5,-1.44336zM37.00391,23.58398c-0.0412,0.00124 -0.08146,0.01265 -0.11719,0.0332l-3,1.73047c-0.07744,0.04471 -0.1251,0.12738 -0.125,0.2168v2.31055c-0.00009,0.08936 0.04752,0.17198 0.12489,0.2167c0.07736,0.04473 0.17272,0.04476 0.25011,0.00009l3,-1.73242c0.07744,-0.04471 0.1251,-0.12738 0.125,-0.2168v-2.31055c-0.0005,-0.06734 -0.02814,-0.13163 -0.07667,-0.17832c-0.04853,-0.04669 -0.11384,-0.07183 -0.18114,-0.06973zM19.97852,24.17383c-0.13039,0.01023 -0.23086,0.11921 -0.23047,0.25v2.30859c-0.0001,0.08942 0.04756,0.17208 0.125,0.2168l3,1.73242c0.0774,0.04467 0.17275,0.04463 0.25011,-0.00009c0.07736,-0.04473 0.12498,-0.12734 0.12489,-0.2167v-2.30859c0.0001,-0.08942 -0.04756,-0.17208 -0.125,-0.2168l-3,-1.73242c-0.04371,-0.02543 -0.0941,-0.03701 -0.14453,-0.0332zM16.89844,24.19141l4.75977,8.22266l-6.56641,3.79102l-4.75195,-8.22852zM36.76172,24.26563v1.73242l-2.5,1.44336v-1.73242zM20.24805,24.85742l2.5,1.44336v1.73047l-2.5,-1.44336zM42.00781,26.46484c-0.0412,0.00124 -0.08146,0.01264 -0.11719,0.0332l-3,1.73242c-0.07744,0.04471 -0.1251,0.12738 -0.125,0.2168v2.31055c0.00061,0.08901 0.04849,0.17099 0.12573,0.21524c0.07724,0.04425 0.17218,0.0441 0.24927,-0.0004l3,-1.73047c0.07744,-0.04471 0.1251,-0.12738 0.125,-0.2168v-2.31055c0.00003,-0.06768 -0.02739,-0.13248 -0.07597,-0.17959c-0.04859,-0.04711 -0.1142,-0.07252 -0.18184,-0.07041zM41.76563,27.14844v1.73242l-2.5,1.44336v-1.73242zM25.98047,27.63672c-0.13039,0.01023 -0.23086,0.11921 -0.23047,0.25v2.30859c-0.0001,0.08942 0.04756,0.17208 0.125,0.2168l3,1.73242c0.0774,0.04467 0.17275,0.04463 0.25011,-0.00009c0.07736,-0.04473 0.12498,-0.12734 0.12489,-0.2167v-2.30859c0.0001,-0.08942 -0.04756,-0.17208 -0.125,-0.2168l-3,-1.73242c-0.03631,-0.02087 -0.07727,-0.03229 -0.11914,-0.0332c-0.00846,-0.00043 -0.01693,-0.00043 -0.02539,0zM9.90625,28.22656l4.75195,8.22852l-0.56641,0.32813l-3.875,-6.71289c-0.06962,-0.11913 -0.22259,-0.15934 -0.3418,-0.08984l-3.7832,2.1875l-0.75,-1.30664zM26.25,28.32031l2.5,1.44336v1.73047l-2.5,-1.44336zM37.00391,29.35742c-0.0412,0.00124 -0.08146,0.01264 -0.11719,0.0332l-3,1.73242c-0.07744,0.04471 -0.1251,0.12738 -0.125,0.2168v2.30859c-0.00009,0.08936 0.04752,0.17198 0.12489,0.2167c0.07736,0.04473 0.17272,0.04476 0.25011,0.00009l3,-1.73242c0.07744,-0.04471 0.1251,-0.12738 0.125,-0.2168v-2.30859c0.00003,-0.06768 -0.02739,-0.13248 -0.07597,-0.17959c-0.04859,-0.04711 -0.1142,-0.07252 -0.18184,-0.07041zM36.76172,30.04102v1.73047l-2.5,1.44336v-1.73242zM9.9082,30.53711l3.8418,6.65234l-0.00977,5.27539l-1.49023,-0.86914v-1.00586v-3.4668c-0.0006,-0.08872 -0.04817,-0.17048 -0.125,-0.21484l-3,-1.73242c-0.04371,-0.02543 -0.0941,-0.03701 -0.14453,-0.0332c-0.13039,0.01023 -0.23086,0.11921 -0.23047,0.25v4.18359l-2.50977,-1.44141l0.00977,-5.48047zM42.00781,32.23828c-0.04137,0.00183 -0.08164,0.01391 -0.11719,0.03516l-3,1.73047c-0.07744,0.04471 -0.1251,0.12738 -0.125,0.2168v2.30859c-0.00009,0.08936 0.04752,0.17198 0.12489,0.2167c0.07736,0.04473 0.17272,0.04476 0.25011,0.00009l3,-1.73242c0.07683,-0.04436 0.1244,-0.12612 0.125,-0.21484v-2.31055c0.00003,-0.06768 -0.02739,-0.13248 -0.07597,-0.17959c-0.04859,-0.04711 -0.1142,-0.07252 -0.18184,-0.07041zM41.76563,32.92188v1.73242l-2.5,1.44336v-1.73242zM21.75,32.93945l-0.00977,5.19727l-7.5,4.33008l0.00977,-5.19922zM37.00391,35.13086c-0.0412,0.00124 -0.08146,0.01264 -0.11719,0.0332l-3,1.73047c-0.07744,0.04471 -0.1251,0.12738 -0.125,0.2168v2.31055c-0.00009,0.08936 0.04752,0.17198 0.12489,0.2167c0.07736,0.04473 0.17272,0.04476 0.25011,0.00009l3,-1.73242c0.07744,-0.04471 0.1251,-0.12738 0.125,-0.2168v-2.30859c0.00003,-0.06768 -0.02739,-0.13248 -0.07597,-0.17959c-0.04859,-0.04711 -0.1142,-0.07252 -0.18184,-0.07041zM26.24414,35.25391l0.5,0.28906l-0.00195,4.32617l-0.5,0.28711zM36.76172,35.8125v1.73242l-2.5,1.44336v-1.73242zM9.25,35.82617l0.5,0.28711v3.17188l-0.5,0.29102zM27.24414,35.83008l1.5,0.86719l-0.00195,4.03125l-1.5,-0.86719zM10.25,36.40234l1.5,0.86523v2.88867l-1.5,-0.87109z"></path></g></g><g fill="#38da55" fill-rule="nonzero" stroke="none" stroke-width="1" stroke-linecap="butt" stroke-linejoin="miter" stroke-miterlimit="10" stroke-dasharray="" stroke-dashoffset="0" font-family="none" font-weight="none" font-size="none" text-anchor="none" style="mix-blend-mode: normal"><g transform="translate(160.28,165.28) scale(4.38857,4.38857)" id="overlay"><g id="Layer_2" font-family="Inter, apple-system, BlinkMacSystemFont, &quot;Helvetica Neue&quot;, &quot;Segoe UI&quot;, &quot;Fira Sans&quot;, Roboto, Oxygen, Ubuntu, &quot;Droid Sans&quot;, Arial, sans-serif" font-weight="400" font-size="16" text-anchor="start"></g><g id="Layer_3" font-family="Inter, apple-system, BlinkMacSystemFont, &quot;Helvetica Neue&quot;, &quot;Segoe UI&quot;, &quot;Fira Sans&quot;, Roboto, Oxygen, Ubuntu, &quot;Droid Sans&quot;, Arial, sans-serif" font-weight="400" font-size="16" text-anchor="start"></g><g id="Layer_1"><path d="M7,0c-3.867,0 -7,3.133 -7,7c0,3.867 3.133,7 7,7c3.867,0 7,-3.133 7,-7c0,-3.867 -3.133,-7 -7,-7zM6.562,9.974v0.983h-1.606v-0.983h-0.907v-1.069h0.907v-0.73h-0.907v-1.284h0.907v-3.685h2.948c1.474,0 2.452,1.037 2.452,2.508c0,1.45 -1.034,2.492 -2.538,2.492h-1.256v0.698h1.965v1.069h-1.965zM6.562,6.869h0.851c0.866,0 1.322,-0.424 1.322,-1.133c0,-0.698 -0.456,-1.128 -1.317,-1.128h-0.856z"></path></g></g></g></svg>