<svg width="282" height="294" viewBox="0 0 282 294" fill="none" xmlns="http://www.w3.org/2000/svg">
<path d="M82.319 80.517C73.592 90.036 67.8249 101.876 65.7413 114.549C63.6577 127.222 65.3504 140.163 70.6069 151.749C75.8634 163.335 84.449 173.048 95.287 179.668C106.124 186.289 118.73 189.522 131.521 188.962C144.65 188.471 157.385 183.978 168.021 176.085L204.069 209.955C204.631 210.483 205.384 210.763 206.161 210.732C206.939 210.701 207.677 210.362 208.215 209.79L220.373 196.85C220.911 196.278 221.203 195.519 221.185 194.741C221.168 193.964 220.842 193.23 220.28 192.702L184.232 158.831C192.532 145.971 196.132 130.69 194.408 115.629C192.685 100.568 185.746 86.6761 174.793 76.3542C168.662 70.5188 161.41 65.984 153.461 63.0142C145.511 60.0444 137.023 58.6989 128.492 59.0563C119.806 59.3843 111.244 61.4527 103.313 65.139C95.382 68.8253 88.243 74.0545 82.319 80.517ZM87.811 83.282C98.603 72.1214 113.243 65.5355 128.623 64.9226C144.297 64.3472 159.45 70.0158 170.76 80.685C182.07 91.355 188.612 106.153 188.951 121.835C189.265 134.574 185.428 147.141 178.018 157.638C177.61 158.22 177.422 158.926 177.488 159.627C177.555 160.328 177.872 160.977 178.382 161.455L186.026 168.638L177.92 177.264L170.276 170.082C169.767 169.604 169.099 169.328 168.396 169.305C167.692 169.282 166.999 169.514 166.444 169.958C155.246 178.901 141.278 183.571 127.09 183.115C112.901 182.659 99.438 177.107 89.158 167.473C83.514 162.239 78.9869 155.914 75.8409 148.866C72.6949 141.819 70.9927 134.191 70.8337 126.427C70.6561 118.514 72.0672 110.619 74.9833 103.208C77.8993 95.797 82.261 89.021 87.811 83.282ZM94.711 88.076C87.342 95.307 82.286 104.558 80.204 114.619C78.122 124.681 79.1107 135.084 83.041 144.469C86.971 153.854 93.66 161.784 102.233 167.222C110.806 172.66 120.863 175.353 131.091 174.948C137.772 174.7 144.36 173.129 150.474 170.325C156.589 167.521 162.108 163.54 166.713 158.613C175.902 148.831 180.957 135.9 180.794 122.593C180.632 109.286 175.263 96.663 165.842 87.434C156.42 78.2037 143.696 73.1017 130.398 73.2219C117.1 73.342 104.288 78.6748 94.711 88.076ZM97.973 93.0651C104.18 86.6811 112.093 82.232 120.728 80.271C129.364 78.3106 138.34 78.925 146.541 82.0381C154.743 85.1511 161.807 90.625 166.855 97.779C171.904 104.933 174.714 113.452 174.937 122.276C175.195 134.209 170.708 145.838 162.462 154.609C154.215 163.379 142.884 168.573 130.958 169.048C119.033 169.524 107.489 165.242 98.864 157.144C90.239 149.047 85.239 137.796 84.962 125.864C84.844 119.842 85.934 113.836 88.169 108.202C90.404 102.568 93.738 97.4211 97.973 93.0651ZM182.159 181.247L190.264 172.62L214.108 195.024L206.002 203.65L182.159 181.247Z" fill="black"/>
<path d="M130.927 87.6231C115.658 87.4291 102.631 96.6661 97.192 110.014C97.043 110.361 96.965 110.737 96.962 111.119C96.959 111.5 97.031 111.881 97.174 112.238C97.317 112.595 97.529 112.921 97.796 113.198C98.063 113.475 98.38 113.696 98.73 113.849C99.079 114.003 99.453 114.085 99.831 114.091C100.208 114.097 100.581 114.027 100.927 113.884C101.274 113.742 101.587 113.531 101.849 113.262C102.111 112.994 102.316 112.674 102.452 112.322C107.049 101.039 118.034 93.2091 131 93.3741C138.649 93.4711 145.659 96.3271 151.149 101.003C151.438 101.249 151.771 101.437 152.128 101.555C152.486 101.673 152.861 101.719 153.232 101.691C153.604 101.662 153.964 101.56 154.293 101.39C154.621 101.219 154.912 100.984 155.148 100.698C155.384 100.411 155.561 100.079 155.668 99.7201C155.776 99.3611 155.812 98.9821 155.774 98.6061C155.737 98.2291 155.626 97.8621 155.45 97.5241C155.273 97.1871 155.033 96.8871 154.744 96.6411C148.261 91.1201 139.934 87.7381 130.927 87.6231ZM131.073 99.1251C128.093 99.0871 125.226 99.5671 122.57 100.488C122.22 100.61 121.898 100.801 121.624 101.05C121.35 101.299 121.128 101.602 120.972 101.941C120.815 102.28 120.727 102.649 120.712 103.026C120.698 103.403 120.756 103.781 120.886 104.139C121.015 104.497 121.212 104.827 121.465 105.111C121.718 105.395 122.023 105.627 122.362 105.794C122.701 105.961 123.068 106.06 123.441 106.084C123.814 106.109 124.186 106.059 124.537 105.937C126.597 105.222 128.814 104.846 131.146 104.876C142.16 105.016 151.144 114.107 151.286 125.256C151.394 133.742 148.833 153.025 148.833 153.025C148.766 153.405 148.777 153.796 148.863 154.175C148.949 154.554 149.11 154.913 149.335 155.231C149.56 155.55 149.846 155.82 150.174 156.027C150.502 156.234 150.866 156.373 151.245 156.435C151.624 156.497 152.009 156.482 152.378 156.39C152.747 156.298 153.091 156.13 153.391 155.898C153.691 155.666 153.94 155.374 154.124 155.04C154.307 154.705 154.421 154.334 154.458 153.95C154.458 153.95 157.091 135.027 156.967 125.328C156.786 111.071 145.158 99.3041 131.073 99.1251ZM160.991 105.901C160.499 105.903 160.019 106.035 159.598 106.283C159.178 106.532 158.831 106.888 158.592 107.318C158.353 107.747 158.23 108.235 158.235 108.733C158.24 109.232 158.373 109.724 158.621 110.161C161.121 114.702 162.578 119.884 162.648 125.401C162.688 128.553 162.269 131.578 161.454 134.437C161.336 134.801 161.292 135.188 161.324 135.573C161.357 135.959 161.466 136.336 161.645 136.682C161.824 137.028 162.069 137.335 162.366 137.586C162.662 137.837 163.004 138.026 163.371 138.142C163.738 138.258 164.122 138.299 164.501 138.261C164.88 138.224 165.246 138.109 165.576 137.925C165.907 137.74 166.195 137.489 166.425 137.186C166.654 136.883 166.82 136.535 166.912 136.163C167.875 132.783 168.377 129.193 168.329 125.473C168.246 118.976 166.522 112.827 163.568 107.461C163.316 106.989 162.943 106.594 162.488 106.318C162.033 106.043 161.515 105.898 160.991 105.901ZM113.144 107.724C112.731 107.741 112.33 107.849 111.967 108.04C111.605 108.231 111.29 108.501 111.044 108.832C107.715 113.176 105.762 118.692 105.838 124.679C106.01 138.204 103.908 146.957 103.908 146.957C103.81 147.325 103.785 147.712 103.837 148.093C103.889 148.475 104.015 148.844 104.208 149.179C104.402 149.514 104.659 149.809 104.964 150.044C105.269 150.28 105.616 150.453 105.985 150.553C106.354 150.652 106.737 150.677 107.111 150.624C107.485 150.572 107.844 150.444 108.165 150.247C108.486 150.051 108.763 149.791 108.98 149.482C109.198 149.173 109.35 148.821 109.43 148.448C109.43 148.448 111.699 138.922 111.519 124.751C111.459 120.07 112.974 115.81 115.567 112.427C115.904 111.998 116.11 111.477 116.159 110.926C116.207 110.374 116.097 109.816 115.841 109.319C115.585 108.822 115.194 108.407 114.715 108.124C114.237 107.841 113.691 107.702 113.144 107.724ZM131.22 110.627C123.409 110.527 117.099 116.917 117.2 124.823C117.457 145.003 114.845 155.519 114.845 155.519C114.738 155.888 114.707 156.277 114.753 156.662C114.799 157.048 114.921 157.422 115.112 157.762C115.303 158.102 115.559 158.402 115.865 158.642C116.17 158.883 116.519 159.06 116.89 159.163C117.261 159.265 117.647 159.291 118.025 159.24C118.402 159.188 118.764 159.059 119.088 158.861C119.411 158.664 119.69 158.401 119.908 158.088C120.126 157.776 120.278 157.42 120.356 157.043C120.356 157.043 123.145 145.615 122.881 124.895C122.82 120.098 126.553 116.317 131.293 116.377C136.032 116.438 139.863 120.314 139.924 125.112C139.968 128.556 139.869 132.149 139.692 135.643C139.67 136.021 139.722 136.402 139.846 136.764C139.969 137.125 140.162 137.46 140.412 137.75C140.662 138.039 140.965 138.276 141.304 138.449C141.642 138.621 142.01 138.725 142.384 138.753C142.759 138.782 143.134 138.736 143.487 138.617C143.84 138.498 144.164 138.309 144.442 138.06C144.719 137.812 144.943 137.509 145.102 137.169C145.261 136.829 145.351 136.459 145.367 136.08C145.548 132.495 145.651 128.791 145.605 125.184C145.504 117.278 139.03 110.726 131.22 110.627ZM97.194 119.324C96.492 119.349 95.83 119.637 95.337 120.133C94.844 120.629 94.556 121.297 94.527 122.008C94.482 122.843 94.465 123.686 94.476 124.534C94.516 127.682 94.944 130.742 95.707 133.669C95.798 134.041 95.961 134.393 96.186 134.704C96.412 135.016 96.695 135.28 97.019 135.482C97.343 135.684 97.703 135.82 98.076 135.882C98.449 135.944 98.829 135.93 99.193 135.841C99.557 135.753 99.898 135.592 100.196 135.367C100.495 135.142 100.745 134.858 100.931 134.532C101.118 134.206 101.238 133.843 101.284 133.466C101.329 133.089 101.3 132.704 101.198 132.335C100.552 129.856 100.191 127.273 100.157 124.606C100.148 123.885 100.164 123.173 100.202 122.468C100.229 122.06 100.171 121.65 100.03 121.263C99.888 120.876 99.668 120.522 99.384 120.225C99.099 119.927 98.756 119.693 98.379 119.538C98.001 119.383 97.597 119.31 97.194 119.324ZM131.321 122.088C130.569 122.091 129.856 122.395 129.339 122.935C128.821 123.475 128.542 124.206 128.562 124.967C128.662 132.786 128.327 139.23 127.849 144.308C127.806 144.687 127.838 145.072 127.944 145.441C128.05 145.811 128.227 146.157 128.465 146.46C128.703 146.763 128.996 147.016 129.329 147.205C129.662 147.394 130.027 147.515 130.403 147.561C130.778 147.607 131.158 147.577 131.518 147.472C131.878 147.367 132.213 147.191 132.501 146.952C132.79 146.713 133.028 146.418 133.2 146.082C133.372 145.746 133.475 145.378 133.504 144.998C134.002 139.715 134.345 133.064 134.243 125.04C134.243 124.655 134.167 124.272 134.02 123.914C133.872 123.556 133.655 123.229 133.383 122.954C133.11 122.679 132.788 122.461 132.433 122.312C132.079 122.163 131.701 122.087 131.321 122.088ZM141.487 145.93C140.783 145.92 140.107 146.175 139.59 146.646C139.074 147.117 138.753 147.769 138.691 148.477C138.106 154.226 137.537 158.115 137.537 158.115C137.483 158.488 137.502 158.869 137.593 159.238C137.684 159.607 137.846 159.956 138.069 160.265C138.292 160.574 138.571 160.837 138.892 161.039C139.212 161.241 139.568 161.378 139.937 161.442C140.307 161.507 140.683 161.497 141.045 161.414C141.407 161.331 141.748 161.176 142.048 160.959C142.347 160.741 142.6 160.464 142.791 160.145C142.983 159.825 143.109 159.469 143.163 159.096C143.163 159.096 143.75 155.075 144.347 149.212C144.394 148.807 144.354 148.394 144.231 148.002C144.109 147.609 143.905 147.245 143.634 146.934C143.364 146.624 143.032 146.374 142.662 146.2C142.292 146.027 141.891 145.935 141.487 145.93ZM128.996 153.374C128.341 153.365 127.709 153.586 127.207 153.998C126.705 154.41 126.363 154.988 126.24 155.636C125.832 157.636 125.567 158.513 125.567 158.513C125.458 158.872 125.421 159.252 125.458 159.629C125.495 160.006 125.605 160.374 125.782 160.712C125.959 161.05 126.199 161.351 126.488 161.598C126.777 161.844 127.111 162.032 127.469 162.15C127.827 162.268 128.202 162.314 128.574 162.285C128.946 162.256 129.307 162.153 129.635 161.982C129.964 161.81 130.255 161.574 130.491 161.287C130.726 160.999 130.902 160.666 131.009 160.306C131.009 160.306 131.361 159.106 131.803 156.936C131.895 156.516 131.891 156.078 131.792 155.655C131.693 155.231 131.501 154.834 131.231 154.491C130.961 154.149 130.62 153.871 130.233 153.677C129.846 153.484 129.423 153.38 128.996 153.374Z" fill="black"/>
<path d="M141 0C125.278 0 112.009 8.0002 92.331 17.3375C72.6531 26.6749 46.2406 37.9489 5.0071 46.2949L0 47.4015V52.0125C0 142.435 34.4238 202.863 68.8977 240.327C103.372 277.792 138.396 292.709 138.396 292.709L141.2 294L144.004 292.709C144.004 292.709 282 227.048 282 52.0125V47.4015L276.993 46.2949C235.759 37.9489 209.347 26.6749 189.669 17.3375C169.991 8.0002 156.722 0 141 0ZM141 11.8043C151.54 11.8043 163.757 18.3289 183.861 27.8507C202.963 36.8883 229.826 47.9779 268.781 56.4391C266.428 216.488 149.036 276.524 140.8 280.536C136.819 278.761 109.08 265.988 78.5114 232.765C46.2907 197.745 14.3954 141.421 13.2188 56.4391C52.174 47.9779 79.0371 36.8883 98.139 27.8507C118.243 18.3289 130.46 11.8043 141 11.8043Z" fill="#162CBD"/>
</svg>
