<svg width="1094" height="294" viewBox="0 0 1094 294" fill="none" xmlns="http://www.w3.org/2000/svg">
<path d="M344 244.3V234.4H345.5C346.434 234.4 347.25 234.017 347.95 233.25C348.684 232.483 349.3 231.25 349.8 229.55C350.334 227.817 350.75 225.5 351.05 222.6C351.384 219.7 351.617 216.1 351.75 211.8L352 202H373.25V234.4H377.5V244.3H374.4V237.5H347.1V244.3H344ZM350.5 234.4H369.75V205.1H355.2L355 212.2C354.9 216.7 354.667 220.467 354.3 223.5C353.967 226.5 353.484 228.883 352.85 230.65C352.217 232.383 351.434 233.633 350.5 234.4ZM403.551 238C401.685 238 399.951 237.65 398.351 236.95C396.751 236.217 395.368 235.233 394.201 234C393.035 232.733 392.118 231.283 391.451 229.65C390.818 228.017 390.501 226.267 390.501 224.4C390.501 221.967 391.051 219.733 392.151 217.7C393.285 215.667 394.835 214.05 396.801 212.85C398.768 211.617 401.001 211 403.501 211C406.068 211 408.301 211.617 410.201 212.85C412.135 214.083 413.651 215.717 414.751 217.75C415.851 219.75 416.401 221.95 416.401 224.35C416.401 224.617 416.401 224.883 416.401 225.15C416.401 225.383 416.385 225.567 416.351 225.7H394.051C394.218 227.567 394.735 229.233 395.601 230.7C396.501 232.133 397.651 233.283 399.051 234.15C400.485 234.983 402.035 235.4 403.701 235.4C405.401 235.4 407.001 234.967 408.501 234.1C410.035 233.233 411.101 232.1 411.701 230.7L414.651 231.5C414.118 232.733 413.301 233.85 412.201 234.85C411.101 235.85 409.801 236.633 408.301 237.2C406.835 237.733 405.251 238 403.551 238ZM393.951 223.25H413.201C413.068 221.35 412.551 219.683 411.651 218.25C410.785 216.817 409.635 215.7 408.201 214.9C406.801 214.067 405.251 213.65 403.551 213.65C401.851 213.65 400.301 214.067 398.901 214.9C397.501 215.7 396.351 216.833 395.451 218.3C394.585 219.733 394.085 221.383 393.951 223.25ZM437.147 237.5V214.5H427.847V211.45H449.847V214.5H440.547V237.5H437.147ZM474.725 238C472.859 238 471.125 237.65 469.525 236.95C467.925 236.217 466.542 235.233 465.375 234C464.209 232.733 463.292 231.283 462.625 229.65C461.992 228.017 461.675 226.267 461.675 224.4C461.675 221.967 462.225 219.733 463.325 217.7C464.459 215.667 466.009 214.05 467.975 212.85C469.942 211.617 472.175 211 474.675 211C477.242 211 479.475 211.617 481.375 212.85C483.309 214.083 484.825 215.717 485.925 217.75C487.025 219.75 487.575 221.95 487.575 224.35C487.575 224.617 487.575 224.883 487.575 225.15C487.575 225.383 487.559 225.567 487.525 225.7H465.225C465.392 227.567 465.909 229.233 466.775 230.7C467.675 232.133 468.825 233.283 470.225 234.15C471.659 234.983 473.209 235.4 474.875 235.4C476.575 235.4 478.175 234.967 479.675 234.1C481.209 233.233 482.275 232.1 482.875 230.7L485.825 231.5C485.292 232.733 484.475 233.85 483.375 234.85C482.275 235.85 480.975 236.633 479.475 237.2C478.009 237.733 476.425 238 474.725 238ZM465.125 223.25H484.375C484.242 221.35 483.725 219.683 482.825 218.25C481.959 216.817 480.809 215.7 479.375 214.9C477.975 214.067 476.425 213.65 474.725 213.65C473.025 213.65 471.475 214.067 470.075 214.9C468.675 215.7 467.525 216.833 466.625 218.3C465.759 219.733 465.259 221.383 465.125 223.25ZM501.771 237.5V211.45H505.171V222.6H509.071L517.821 211.45H521.721L511.771 224.1L522.971 237.5H518.971L509.071 225.75H505.171V237.5H501.771ZM543.298 237.5V214.5H533.998V211.45H555.998V214.5H546.698V237.5H543.298ZM569.576 237.5V211.5H572.976V232.9L588.826 211.45H591.876V237.5H588.476V216.45L572.876 237.5H569.576ZM608.263 237.5V211.45H621.263C622.73 211.45 623.963 211.767 624.963 212.4C625.963 213 626.713 213.783 627.213 214.75C627.747 215.717 628.013 216.75 628.013 217.85C628.013 219.25 627.68 220.517 627.013 221.65C626.347 222.75 625.38 223.583 624.113 224.15C625.613 224.583 626.83 225.367 627.763 226.5C628.697 227.633 629.163 229 629.163 230.6C629.163 232 628.813 233.217 628.113 234.25C627.447 235.283 626.513 236.083 625.313 236.65C624.147 237.217 622.797 237.5 621.263 237.5H608.263ZM611.513 235.05H621.163C622.03 235.05 622.813 234.833 623.513 234.4C624.247 233.933 624.813 233.333 625.213 232.6C625.647 231.867 625.863 231.1 625.863 230.3C625.863 229.433 625.663 228.65 625.263 227.95C624.863 227.217 624.33 226.633 623.663 226.2C622.997 225.767 622.23 225.55 621.363 225.55H611.513V235.05ZM611.513 223.2H620.363C621.23 223.2 621.997 222.967 622.663 222.5C623.33 222.033 623.847 221.433 624.213 220.7C624.58 219.967 624.763 219.2 624.763 218.4C624.763 217.2 624.363 216.15 623.563 215.25C622.797 214.35 621.797 213.9 620.563 213.9H611.513V223.2ZM644.021 237.5V211.45H647.421V222.65H662.321V211.45H665.721V237.5H662.321V225.7H647.421V237.5H644.021ZM693.321 238C691.455 238 689.721 237.65 688.121 236.95C686.555 236.217 685.188 235.233 684.021 234C682.888 232.733 682.005 231.3 681.371 229.7C680.738 228.067 680.421 226.35 680.421 224.55C680.421 222.683 680.738 220.95 681.371 219.35C682.005 217.717 682.905 216.283 684.071 215.05C685.238 213.783 686.605 212.8 688.171 212.1C689.771 211.367 691.505 211 693.371 211C695.238 211 696.955 211.367 698.521 212.1C700.088 212.8 701.455 213.783 702.621 215.05C703.788 216.283 704.688 217.717 705.321 219.35C705.955 220.95 706.271 222.683 706.271 224.55C706.271 226.35 705.955 228.067 705.321 229.7C704.688 231.3 703.788 232.733 702.621 234C701.488 235.233 700.121 236.217 698.521 236.95C696.955 237.65 695.221 238 693.321 238ZM683.871 224.6C683.871 226.533 684.288 228.3 685.121 229.9C685.988 231.467 687.138 232.717 688.571 233.65C690.005 234.55 691.588 235 693.321 235C695.055 235 696.638 234.533 698.071 233.6C699.505 232.667 700.655 231.4 701.521 229.8C702.388 228.167 702.821 226.4 702.821 224.5C702.821 222.567 702.388 220.8 701.521 219.2C700.655 217.6 699.505 216.333 698.071 215.4C696.638 214.467 695.055 214 693.321 214C691.588 214 690.005 214.483 688.571 215.45C687.171 216.417 686.038 217.7 685.171 219.3C684.305 220.867 683.871 222.633 683.871 224.6ZM732.208 238C730.341 238 728.608 237.65 727.008 236.95C725.408 236.217 724.024 235.233 722.858 234C721.691 232.733 720.774 231.283 720.108 229.65C719.474 228.017 719.158 226.267 719.158 224.4C719.158 221.967 719.708 219.733 720.808 217.7C721.941 215.667 723.491 214.05 725.458 212.85C727.424 211.617 729.658 211 732.158 211C734.724 211 736.958 211.617 738.858 212.85C740.791 214.083 742.308 215.717 743.408 217.75C744.508 219.75 745.058 221.95 745.058 224.35C745.058 224.617 745.058 224.883 745.058 225.15C745.058 225.383 745.041 225.567 745.008 225.7H722.708C722.874 227.567 723.391 229.233 724.258 230.7C725.158 232.133 726.308 233.283 727.708 234.15C729.141 234.983 730.691 235.4 732.358 235.4C734.058 235.4 735.658 234.967 737.158 234.1C738.691 233.233 739.758 232.1 740.358 230.7L743.308 231.5C742.774 232.733 741.958 233.85 740.858 234.85C739.758 235.85 738.458 236.633 736.958 237.2C735.491 237.733 733.908 238 732.208 238ZM722.608 223.25H741.858C741.724 221.35 741.208 219.683 740.308 218.25C739.441 216.817 738.291 215.7 736.858 214.9C735.458 214.067 733.908 213.65 732.208 213.65C730.508 213.65 728.958 214.067 727.558 214.9C726.158 215.7 725.008 216.833 724.108 218.3C723.241 219.733 722.741 221.383 722.608 223.25ZM791.185 202H794.135L808.885 237.5H805.185L800.585 226.4H784.635L780.085 237.5H776.335L791.185 202ZM799.785 223.65L792.635 206.1L785.385 223.65H799.785ZM822.224 237.5V211.45H837.774V214.5H825.624V237.5H822.224ZM862.788 238C860.921 238 859.188 237.65 857.588 236.95C855.988 236.217 854.604 235.233 853.438 234C852.271 232.733 851.354 231.283 850.688 229.65C850.054 228.017 849.738 226.267 849.738 224.4C849.738 221.967 850.288 219.733 851.388 217.7C852.521 215.667 854.071 214.05 856.038 212.85C858.004 211.617 860.238 211 862.738 211C865.304 211 867.538 211.617 869.438 212.85C871.371 214.083 872.888 215.717 873.988 217.75C875.088 219.75 875.638 221.95 875.638 224.35C875.638 224.617 875.638 224.883 875.638 225.15C875.638 225.383 875.621 225.567 875.588 225.7H853.288C853.454 227.567 853.971 229.233 854.838 230.7C855.738 232.133 856.888 233.283 858.288 234.15C859.721 234.983 861.271 235.4 862.938 235.4C864.638 235.4 866.238 234.967 867.738 234.1C869.271 233.233 870.338 232.1 870.938 230.7L873.888 231.5C873.354 232.733 872.538 233.85 871.438 234.85C870.338 235.85 869.038 236.633 867.538 237.2C866.071 237.733 864.488 238 862.788 238ZM853.188 223.25H872.438C872.304 221.35 871.788 219.683 870.888 218.25C870.021 216.817 868.871 215.7 867.438 214.9C866.038 214.067 864.488 213.65 862.788 213.65C861.088 213.65 859.538 214.067 858.138 214.9C856.738 215.7 855.588 216.833 854.688 218.3C853.821 219.733 853.321 221.383 853.188 223.25ZM889.834 237.5V211.45H893.234V222.65H908.134V211.45H911.534V237.5H908.134V225.7H893.234V237.5H889.834ZM934.534 237.5V214.5H925.234V211.45H947.234V214.5H937.934V237.5H934.534ZM972.162 238C970.262 238 968.512 237.65 966.912 236.95C965.345 236.217 963.962 235.217 962.762 233.95C961.595 232.683 960.679 231.233 960.012 229.6C959.379 227.967 959.062 226.233 959.062 224.4C959.062 221.933 959.612 219.683 960.712 217.65C961.812 215.617 963.345 214 965.312 212.8C967.279 211.6 969.545 211 972.112 211C974.545 211 976.695 211.567 978.562 212.7C980.429 213.8 981.812 215.3 982.712 217.2L979.412 218.25C978.679 216.917 977.645 215.883 976.312 215.15C975.012 214.383 973.562 214 971.962 214C970.229 214 968.645 214.45 967.212 215.35C965.779 216.25 964.629 217.483 963.762 219.05C962.929 220.617 962.512 222.4 962.512 224.4C962.512 226.367 962.945 228.15 963.812 229.75C964.679 231.35 965.829 232.633 967.262 233.6C968.695 234.533 970.279 235 972.012 235C973.145 235 974.229 234.8 975.262 234.4C976.329 234 977.245 233.467 978.012 232.8C978.812 232.1 979.345 231.35 979.612 230.55L982.962 231.55C982.495 232.783 981.712 233.9 980.612 234.9C979.545 235.867 978.279 236.633 976.812 237.2C975.379 237.733 973.829 238 972.162 238ZM1003.81 237.5V214.5H994.508V211.45H1016.51V214.5H1007.21V237.5H1003.81ZM1030.08 237.5V211.45H1043.08C1044.55 211.45 1045.78 211.767 1046.78 212.4C1047.78 213 1048.53 213.783 1049.03 214.75C1049.57 215.717 1049.83 216.75 1049.83 217.85C1049.83 219.25 1049.5 220.517 1048.83 221.65C1048.17 222.75 1047.2 223.583 1045.93 224.15C1047.43 224.583 1048.65 225.367 1049.58 226.5C1050.52 227.633 1050.98 229 1050.98 230.6C1050.98 232 1050.63 233.217 1049.93 234.25C1049.27 235.283 1048.33 236.083 1047.13 236.65C1045.97 237.217 1044.62 237.5 1043.08 237.5H1030.08ZM1033.33 235.05H1042.98C1043.85 235.05 1044.63 234.833 1045.33 234.4C1046.07 233.933 1046.63 233.333 1047.03 232.6C1047.47 231.867 1047.68 231.1 1047.68 230.3C1047.68 229.433 1047.48 228.65 1047.08 227.95C1046.68 227.217 1046.15 226.633 1045.48 226.2C1044.82 225.767 1044.05 225.55 1043.18 225.55H1033.33V235.05ZM1033.33 223.2H1042.18C1043.05 223.2 1043.82 222.967 1044.48 222.5C1045.15 222.033 1045.67 221.433 1046.03 220.7C1046.4 219.967 1046.58 219.2 1046.58 218.4C1046.58 217.2 1046.18 216.15 1045.38 215.25C1044.62 214.35 1043.62 213.9 1042.38 213.9H1033.33V223.2ZM1076.99 238C1075.12 238 1073.39 237.65 1071.79 236.95C1070.22 236.217 1068.86 235.233 1067.69 234C1066.56 232.733 1065.67 231.3 1065.04 229.7C1064.41 228.067 1064.09 226.35 1064.09 224.55C1064.09 222.683 1064.41 220.95 1065.04 219.35C1065.67 217.717 1066.57 216.283 1067.74 215.05C1068.91 213.783 1070.27 212.8 1071.84 212.1C1073.44 211.367 1075.17 211 1077.04 211C1078.91 211 1080.62 211.367 1082.19 212.1C1083.76 212.8 1085.12 213.783 1086.29 215.05C1087.46 216.283 1088.36 217.717 1088.99 219.35C1089.62 220.95 1089.94 222.683 1089.94 224.55C1089.94 226.35 1089.62 228.067 1088.99 229.7C1088.36 231.3 1087.46 232.733 1086.29 234C1085.16 235.233 1083.79 236.217 1082.19 236.95C1080.62 237.65 1078.89 238 1076.99 238ZM1067.54 224.6C1067.54 226.533 1067.96 228.3 1068.79 229.9C1069.66 231.467 1070.81 232.717 1072.24 233.65C1073.67 234.55 1075.26 235 1076.99 235C1078.72 235 1080.31 234.533 1081.74 233.6C1083.17 232.667 1084.32 231.4 1085.19 229.8C1086.06 228.167 1086.49 226.4 1086.49 224.5C1086.49 222.567 1086.06 220.8 1085.19 219.2C1084.32 217.6 1083.17 216.333 1081.74 215.4C1080.31 214.467 1078.72 214 1076.99 214C1075.26 214 1073.67 214.483 1072.24 215.45C1070.84 216.417 1069.71 217.7 1068.84 219.3C1067.97 220.867 1067.54 222.633 1067.54 224.6Z" fill="white"/>
<path d="M372.327 109C372.327 117.8 373.527 126.267 375.927 134.4C378.46 142.4 382.527 149.4 388.127 155.4C393.86 161.267 400.66 164.2 408.527 164.2C416.394 164.2 422.994 161.4 428.327 155.8C433.794 150.2 437.594 143.667 439.727 136.2C441.994 128.6 443.127 120.6 443.127 112.2C443.127 103.533 441.86 95.133 439.327 87C436.794 78.7333 432.66 71.6667 426.927 65.8C421.327 59.8 414.66 56.8 406.927 56.8C400.927 56.8 395.594 58.4 390.927 61.6C386.394 64.8 382.794 69.0667 380.127 74.4C377.594 79.6 375.66 85.1333 374.327 91C372.994 96.867 372.327 102.867 372.327 109ZM352.327 110.6C352.327 93.933 357.527 79.6667 367.927 67.8C378.327 55.9333 391.594 50 407.727 50C423.86 50 437.127 55.9333 447.527 67.8C457.927 79.6667 463.127 93.933 463.127 110.6C463.127 127.267 457.86 141.533 447.327 153.4C436.927 165.133 423.727 171 407.727 171C391.46 171 378.127 165.133 367.727 153.4C357.46 141.667 352.327 127.4 352.327 110.6ZM510.685 169V164.8C517.885 164.8 522.085 163.467 523.285 160.8V60.2C522.085 57.5333 517.885 56.2 510.685 56.2V52H539.885L582.485 145L625.085 52H654.685V56.2C647.485 56.2 643.285 57.5333 642.085 60.2V160.8C643.285 163.467 647.485 164.8 654.685 164.8V169H611.085V164.8C618.285 164.8 622.485 163.467 623.685 160.8V71L578.885 169H575.885L530.085 69.8V160.8C531.285 163.467 535.485 164.8 542.685 164.8V169H510.685ZM703.427 169V164.8C710.627 164.8 714.827 163.467 716.027 160.8V60.2C714.827 57.5333 710.627 56.2 703.427 56.2V52H784.027V71.4H779.827C779.827 64.2 778.494 60 775.827 58.8H734.427V104.8H762.427C765.094 103.6 766.427 99.4 766.427 92.2H770.627V124.2H766.427C766.427 117 765.094 112.8 762.427 111.6H734.427V162.2H780.027C783.36 160.733 786.36 156.533 789.027 149.6H793.027L788.227 169H703.427ZM897.632 56.8C886.165 56.8 876.298 62.2 868.032 73C859.765 83.6667 855.632 96.6 855.632 111.8C855.632 121 856.832 129.133 859.232 136.2C861.632 143.267 864.832 148.8 868.832 152.8C872.832 156.667 877.032 159.533 881.432 161.4C885.832 163.267 890.298 164.2 894.832 164.2C902.298 164.2 909.365 162.933 916.032 160.4V119.4C914.832 116.733 910.632 115.4 903.432 115.4V111.2H947.032V115.4C939.832 115.4 935.632 116.733 934.432 119.4V153C932.165 157.267 927.565 161.333 920.632 165.2C913.832 169.067 905.098 171 894.432 171C876.565 171 862.165 165.2 851.232 153.6C840.298 142 834.832 128.2 834.832 112.2C834.832 93.667 841.098 78.6667 853.632 67.2C866.165 55.7333 880.765 50 897.432 50C901.298 50 906.098 51 911.832 53C917.565 55 920.832 56 921.632 56C923.232 56 924.032 54.6667 924.032 52H928.632L930.632 77.4H926.232C925.432 71.5333 922.498 66.6667 917.432 62.8C912.365 58.8 905.765 56.8 897.632 56.8ZM1049.47 169V164.8C1055.6 164.8 1059.47 164 1061.07 162.4L1049.87 131.8H1011.47L1001.07 161.2C1002.4 163.6 1006.54 164.8 1013.47 164.8V169H980.669V164.8C988.138 164.8 992.338 163.4 993.268 160.6L1032.07 52H1041.67L1080.47 160.6C1081.4 163.4 1085.67 164.8 1093.27 164.8V169H1049.47ZM1030.47 78.6L1013.87 125.2H1047.47L1030.47 78.6Z" fill="white"/>
<path d="M82.319 80.517C73.592 90.036 67.8249 101.876 65.7413 114.549C63.6577 127.222 65.3504 140.163 70.6069 151.749C75.8634 163.335 84.449 173.048 95.287 179.668C106.124 186.289 118.73 189.522 131.521 188.962C144.65 188.471 157.385 183.978 168.021 176.085L204.069 209.955C204.631 210.483 205.384 210.763 206.161 210.732C206.939 210.701 207.677 210.362 208.215 209.79L220.373 196.85C220.911 196.278 221.203 195.519 221.185 194.741C221.168 193.964 220.842 193.23 220.28 192.702L184.232 158.831C192.532 145.971 196.132 130.69 194.408 115.629C192.685 100.568 185.746 86.6761 174.793 76.3542C168.662 70.5188 161.41 65.984 153.461 63.0142C145.511 60.0444 137.023 58.6989 128.492 59.0563C119.806 59.3843 111.244 61.4527 103.313 65.139C95.382 68.8253 88.243 74.0545 82.319 80.517ZM87.811 83.282C98.603 72.1214 113.243 65.5355 128.623 64.9226C144.297 64.3472 159.45 70.0158 170.76 80.685C182.07 91.355 188.612 106.153 188.951 121.835C189.265 134.574 185.428 147.141 178.018 157.638C177.61 158.22 177.422 158.926 177.488 159.627C177.555 160.328 177.872 160.977 178.382 161.455L186.026 168.638L177.92 177.264L170.276 170.082C169.767 169.604 169.099 169.328 168.396 169.305C167.692 169.282 166.999 169.514 166.444 169.958C155.246 178.901 141.278 183.571 127.09 183.115C112.901 182.659 99.438 177.107 89.158 167.473C83.514 162.239 78.9869 155.914 75.8409 148.866C72.6949 141.819 70.9927 134.191 70.8337 126.427C70.6561 118.514 72.0672 110.619 74.9833 103.208C77.8993 95.797 82.261 89.021 87.811 83.282ZM94.711 88.076C87.342 95.307 82.286 104.558 80.204 114.619C78.122 124.681 79.1107 135.084 83.041 144.469C86.971 153.854 93.66 161.784 102.233 167.222C110.806 172.66 120.863 175.353 131.091 174.948C137.772 174.7 144.36 173.129 150.474 170.325C156.589 167.521 162.108 163.54 166.713 158.613C175.902 148.831 180.957 135.9 180.794 122.593C180.632 109.286 175.263 96.663 165.842 87.434C156.42 78.2037 143.696 73.1017 130.398 73.2219C117.1 73.342 104.288 78.6748 94.711 88.076ZM97.973 93.0651C104.18 86.6811 112.093 82.232 120.728 80.271C129.364 78.3106 138.34 78.925 146.541 82.0381C154.743 85.1511 161.807 90.625 166.855 97.779C171.904 104.933 174.714 113.452 174.937 122.276C175.195 134.209 170.708 145.838 162.462 154.609C154.215 163.379 142.884 168.573 130.958 169.048C119.033 169.524 107.489 165.242 98.864 157.144C90.239 149.047 85.239 137.796 84.962 125.864C84.844 119.842 85.934 113.836 88.169 108.202C90.404 102.568 93.738 97.4211 97.973 93.0651ZM182.159 181.247L190.264 172.62L214.108 195.024L206.002 203.65L182.159 181.247Z" fill="white"/>
<path d="M130.927 87.6231C115.658 87.4291 102.631 96.6661 97.192 110.014C97.043 110.361 96.965 110.737 96.962 111.119C96.959 111.5 97.031 111.881 97.174 112.238C97.317 112.595 97.529 112.921 97.796 113.198C98.063 113.475 98.38 113.696 98.73 113.849C99.079 114.003 99.453 114.085 99.831 114.091C100.208 114.097 100.581 114.027 100.927 113.884C101.274 113.742 101.587 113.531 101.849 113.262C102.111 112.994 102.316 112.674 102.452 112.322C107.049 101.039 118.034 93.2091 131 93.3741C138.649 93.4711 145.659 96.3271 151.149 101.003C151.438 101.249 151.771 101.437 152.128 101.555C152.486 101.673 152.861 101.719 153.232 101.691C153.604 101.662 153.964 101.56 154.293 101.39C154.621 101.219 154.912 100.984 155.148 100.698C155.384 100.411 155.561 100.079 155.668 99.7201C155.776 99.3611 155.812 98.9821 155.774 98.6061C155.737 98.2291 155.626 97.8621 155.45 97.5241C155.273 97.1871 155.033 96.8871 154.744 96.6411C148.261 91.1201 139.934 87.7381 130.927 87.6231ZM131.073 99.1251C128.093 99.0871 125.226 99.5671 122.57 100.488C122.22 100.61 121.898 100.801 121.624 101.05C121.35 101.299 121.128 101.602 120.972 101.941C120.815 102.28 120.727 102.649 120.712 103.026C120.698 103.403 120.756 103.781 120.886 104.139C121.015 104.497 121.212 104.827 121.465 105.111C121.718 105.395 122.023 105.627 122.362 105.794C122.701 105.961 123.068 106.06 123.441 106.084C123.814 106.109 124.186 106.059 124.537 105.937C126.597 105.222 128.814 104.846 131.146 104.876C142.16 105.016 151.144 114.107 151.286 125.256C151.394 133.742 148.833 153.025 148.833 153.025C148.766 153.405 148.777 153.796 148.863 154.175C148.949 154.554 149.11 154.913 149.335 155.231C149.56 155.55 149.846 155.82 150.174 156.027C150.502 156.234 150.866 156.373 151.245 156.435C151.624 156.497 152.009 156.482 152.378 156.39C152.747 156.298 153.091 156.13 153.391 155.898C153.691 155.666 153.94 155.374 154.124 155.04C154.307 154.705 154.421 154.334 154.458 153.95C154.458 153.95 157.091 135.027 156.967 125.328C156.786 111.071 145.158 99.3041 131.073 99.1251ZM160.991 105.901C160.499 105.903 160.019 106.035 159.598 106.283C159.178 106.532 158.831 106.888 158.592 107.318C158.353 107.747 158.23 108.235 158.235 108.733C158.24 109.232 158.373 109.724 158.621 110.161C161.121 114.702 162.578 119.884 162.648 125.401C162.688 128.553 162.269 131.578 161.454 134.437C161.336 134.801 161.292 135.188 161.324 135.573C161.357 135.959 161.466 136.336 161.645 136.682C161.824 137.028 162.069 137.335 162.366 137.586C162.662 137.837 163.004 138.026 163.371 138.142C163.738 138.258 164.122 138.299 164.501 138.261C164.88 138.224 165.246 138.109 165.576 137.925C165.907 137.74 166.195 137.489 166.425 137.186C166.654 136.883 166.82 136.535 166.912 136.163C167.875 132.783 168.377 129.193 168.329 125.473C168.246 118.976 166.522 112.827 163.568 107.461C163.316 106.989 162.943 106.594 162.488 106.318C162.033 106.043 161.515 105.898 160.991 105.901ZM113.144 107.724C112.731 107.741 112.33 107.849 111.967 108.04C111.605 108.231 111.29 108.501 111.044 108.832C107.715 113.176 105.762 118.692 105.838 124.679C106.01 138.204 103.908 146.957 103.908 146.957C103.81 147.325 103.785 147.712 103.837 148.093C103.889 148.475 104.015 148.844 104.208 149.179C104.402 149.514 104.659 149.809 104.964 150.044C105.269 150.28 105.616 150.453 105.985 150.553C106.354 150.652 106.737 150.677 107.111 150.624C107.485 150.572 107.844 150.444 108.165 150.247C108.486 150.051 108.763 149.791 108.98 149.482C109.198 149.173 109.35 148.821 109.43 148.448C109.43 148.448 111.699 138.922 111.519 124.751C111.459 120.07 112.974 115.81 115.567 112.427C115.904 111.998 116.11 111.477 116.159 110.926C116.207 110.374 116.097 109.816 115.841 109.319C115.585 108.822 115.194 108.407 114.715 108.124C114.237 107.841 113.691 107.702 113.144 107.724ZM131.22 110.627C123.409 110.527 117.099 116.917 117.2 124.823C117.457 145.003 114.845 155.519 114.845 155.519C114.738 155.888 114.707 156.277 114.753 156.662C114.799 157.048 114.921 157.422 115.112 157.762C115.303 158.102 115.559 158.402 115.865 158.642C116.17 158.883 116.519 159.06 116.89 159.163C117.261 159.265 117.647 159.291 118.025 159.24C118.402 159.188 118.764 159.059 119.088 158.861C119.411 158.664 119.69 158.401 119.908 158.088C120.126 157.776 120.278 157.42 120.356 157.043C120.356 157.043 123.145 145.615 122.881 124.895C122.82 120.098 126.553 116.317 131.293 116.377C136.032 116.438 139.863 120.314 139.924 125.112C139.968 128.556 139.869 132.149 139.692 135.643C139.67 136.021 139.722 136.402 139.846 136.764C139.969 137.125 140.162 137.46 140.412 137.75C140.662 138.039 140.965 138.276 141.304 138.449C141.642 138.621 142.01 138.725 142.384 138.753C142.759 138.782 143.134 138.736 143.487 138.617C143.84 138.498 144.164 138.309 144.442 138.06C144.719 137.812 144.943 137.509 145.102 137.169C145.261 136.829 145.351 136.459 145.367 136.08C145.548 132.495 145.651 128.791 145.605 125.184C145.504 117.278 139.03 110.726 131.22 110.627ZM97.194 119.324C96.492 119.349 95.83 119.637 95.337 120.133C94.844 120.629 94.556 121.297 94.527 122.008C94.482 122.843 94.465 123.686 94.476 124.534C94.516 127.682 94.944 130.742 95.707 133.669C95.798 134.041 95.961 134.393 96.186 134.704C96.412 135.016 96.695 135.28 97.019 135.482C97.343 135.684 97.703 135.82 98.076 135.882C98.449 135.944 98.829 135.93 99.193 135.841C99.557 135.753 99.898 135.592 100.196 135.367C100.495 135.142 100.745 134.858 100.931 134.532C101.118 134.206 101.238 133.843 101.284 133.466C101.329 133.089 101.3 132.704 101.198 132.335C100.552 129.856 100.191 127.273 100.157 124.606C100.148 123.885 100.164 123.173 100.202 122.468C100.229 122.06 100.171 121.65 100.03 121.263C99.888 120.876 99.668 120.522 99.384 120.225C99.099 119.927 98.756 119.693 98.379 119.538C98.001 119.383 97.597 119.31 97.194 119.324ZM131.321 122.088C130.569 122.091 129.856 122.395 129.339 122.935C128.821 123.475 128.542 124.206 128.562 124.967C128.662 132.786 128.327 139.23 127.849 144.308C127.806 144.687 127.838 145.072 127.944 145.441C128.05 145.811 128.227 146.157 128.465 146.46C128.703 146.763 128.996 147.016 129.329 147.205C129.662 147.394 130.027 147.515 130.403 147.561C130.778 147.607 131.158 147.577 131.518 147.472C131.878 147.367 132.213 147.191 132.501 146.952C132.79 146.713 133.028 146.418 133.2 146.082C133.372 145.746 133.475 145.378 133.504 144.998C134.002 139.715 134.345 133.064 134.243 125.04C134.243 124.655 134.167 124.272 134.02 123.914C133.872 123.556 133.655 123.229 133.383 122.954C133.11 122.679 132.788 122.461 132.433 122.312C132.079 122.163 131.701 122.087 131.321 122.088ZM141.487 145.93C140.783 145.92 140.107 146.175 139.59 146.646C139.074 147.117 138.753 147.769 138.691 148.477C138.106 154.226 137.537 158.115 137.537 158.115C137.483 158.488 137.502 158.869 137.593 159.238C137.684 159.607 137.846 159.956 138.069 160.265C138.292 160.574 138.571 160.837 138.892 161.039C139.212 161.241 139.568 161.378 139.937 161.442C140.307 161.507 140.683 161.497 141.045 161.414C141.407 161.331 141.748 161.176 142.048 160.959C142.347 160.741 142.6 160.464 142.791 160.145C142.983 159.825 143.109 159.469 143.163 159.096C143.163 159.096 143.75 155.075 144.347 149.212C144.394 148.807 144.354 148.394 144.231 148.002C144.109 147.609 143.905 147.245 143.634 146.934C143.364 146.624 143.032 146.374 142.662 146.2C142.292 146.027 141.891 145.935 141.487 145.93ZM128.996 153.374C128.341 153.365 127.709 153.586 127.207 153.998C126.705 154.41 126.363 154.988 126.24 155.636C125.832 157.636 125.567 158.513 125.567 158.513C125.458 158.872 125.421 159.252 125.458 159.629C125.495 160.006 125.605 160.374 125.782 160.712C125.959 161.05 126.199 161.351 126.488 161.598C126.777 161.844 127.111 162.032 127.469 162.15C127.827 162.268 128.202 162.314 128.574 162.285C128.946 162.256 129.307 162.153 129.635 161.982C129.964 161.81 130.255 161.574 130.491 161.287C130.726 160.999 130.902 160.666 131.009 160.306C131.009 160.306 131.361 159.106 131.803 156.936C131.895 156.516 131.891 156.078 131.792 155.655C131.693 155.231 131.501 154.834 131.231 154.491C130.961 154.149 130.62 153.871 130.233 153.677C129.846 153.484 129.423 153.38 128.996 153.374Z" fill="white"/>
<path d="M141 0C125.278 0 112.009 8.0002 92.331 17.3375C72.6531 26.6749 46.2406 37.9489 5.0071 46.2949L0 47.4015V52.0125C0 142.435 34.4238 202.863 68.8977 240.327C103.372 277.792 138.396 292.709 138.396 292.709L141.2 294L144.004 292.709C144.004 292.709 282 227.048 282 52.0125V47.4015L276.993 46.2949C235.759 37.9489 209.347 26.6749 189.669 17.3375C169.991 8.0002 156.722 0 141 0ZM141 11.8043C151.54 11.8043 163.757 18.3289 183.861 27.8507C202.963 36.8883 229.826 47.9779 268.781 56.4391C266.428 216.488 149.036 276.524 140.8 280.536C136.819 278.761 109.08 265.988 78.5114 232.765C46.2907 197.745 14.3954 141.421 13.2188 56.4391C52.174 47.9779 79.0371 36.8883 98.139 27.8507C118.243 18.3289 130.46 11.8043 141 11.8043Z" fill="#162CBD"/>
</svg>
